<ttFont>
<head>
    <!-- Most of this table will be recalculated by the compiler -->
    <tableVersion value="1.0"/>
    <fontRevision value="1.0"/>
    <checkSumAdjustment value="0x115e903c"/>
    <magicNumber value="0x5f0f3cf5"/>
    <flags value="00000000 00011011"/>
    <unitsPerEm value="1000"/>
    <created value="Mon Jan  7 15:43:00 2013"/>
    <modified value="Thu Nov  6 12:32:23 2014"/>
    <xMin value="-58"/>
    <yMin value="-282"/>
    <xMax value="1295"/>
    <yMax value="1085"/>
    <macStyle value="00000000 00000000"/>
    <lowestRecPPEM value="9"/>
    <fontDirectionHint value="2"/>
    <indexToLocFormat value="0"/>
    <glyphDataFormat value="0"/>
  </head>
    <TTGlyph name=".notdef" xMin="67" yMin="0" xMax="531" yMax="650">
      <contour>
        <pt x="67" y="650" on="1"/>
        <pt x="531" y="650" on="1"/>
        <pt x="531" y="0" on="1"/>
        <pt x="67" y="0" on="1"/>
      </contour>
      <contour>
        <pt x="457" y="604" on="1"/>
        <pt x="141" y="604" on="1"/>
        <pt x="300" y="367" on="1"/>
      </contour>
      <contour>
        <pt x="485" y="88" on="1"/>
        <pt x="485" y="562" on="1"/>
        <pt x="327" y="325" on="1"/>
      </contour>
      <contour>
        <pt x="457" y="47" on="1"/>
        <pt x="300" y="283" on="1"/>
        <pt x="141" y="47" on="1"/>
      </contour>
      <contour>
        <pt x="114" y="88" on="1"/>
        <pt x="271" y="325" on="1"/>
        <pt x="114" y="562" on="1"/>
      </contour>
    </TTGlyph>
    <TTGlyph name="A" xMin="16" yMin="0" xMax="683" yMax="663">
      <contour>
        <pt x="498" y="144" on="1"/>
        <pt x="194" y="144" on="1"/>
        <pt x="144" y="12" on="1"/>
        <pt x="141" y="4" on="0"/>
        <pt x="135" y="0" on="0"/>
        <pt x="127" y="0" on="1"/>
        <pt x="16" y="0" on="1"/>
        <pt x="274" y="663" on="1"/>
        <pt x="394" y="663" on="1"/>
        <pt x="402" y="663" on="0"/>
        <pt x="409" y="659" on="0"/>
        <pt x="412" y="651" on="1"/>
        <pt x="683" y="0" on="1"/>
        <pt x="568" y="0" on="1"/>
        <pt x="560" y="0" on="0"/>
        <pt x="554" y="4" on="0"/>
        <pt x="551" y="12" on="1"/>
      </contour>
      <contour>
        <pt x="230" y="242" on="1"/>
        <pt x="459" y="242" on="1"/>
        <pt x="405" y="378" on="1"/>
        <pt x="386" y="424" on="0"/>
        <pt x="351" y="512" on="0"/>
        <pt x="340" y="544" on="1"/>
        <pt x="330" y="512" on="0"/>
        <pt x="298" y="424" on="0"/>
        <pt x="281" y="380" on="1"/>
      </contour>
    </TTGlyph>
    <TTGlyph name="AE" xMin="-3" yMin="0" xMax="930" yMax="663">
      <contour>
        <pt x="141" y="12" on="1"/>
        <pt x="136" y="5" on="0"/>
        <pt x="129" y="0" on="0"/>
        <pt x="118" y="0" on="1"/>
        <pt x="-3" y="0" on="1"/>
        <pt x="418" y="663" on="1"/>
        <pt x="919" y="663" on="1"/>
        <pt x="919" y="561" on="1"/>
        <pt x="577" y="561" on="1"/>
        <pt x="577" y="391" on="1"/>
        <pt x="883" y="391" on="1"/>
        <pt x="883" y="290" on="1"/>
        <pt x="577" y="290" on="1"/>
        <pt x="577" y="102" on="1"/>
        <pt x="930" y="102" on="1"/>
        <pt x="930" y="0" on="1"/>
        <pt x="457" y="0" on="1"/>
        <pt x="457" y="144" on="1"/>
        <pt x="224" y="144" on="1"/>
      </contour>
      <contour>
        <pt x="285" y="242" on="1"/>
        <pt x="457" y="242" on="1"/>
        <pt x="457" y="537" on="1"/>
        <pt x="429" y="484" on="0"/>
        <pt x="359" y="363" on="0"/>
        <pt x="327" y="310" on="1"/>
      </contour>
    </TTGlyph>
    <TTGlyph name="AEacute" xMin="-3" yMin="0" xMax="930" yMax="923">
      <component glyphName="AE" x="0" y="0" flags="0x204"/>
      <component glyphName="acute.cap" x="404" y="0" flags="0x4"/>
    </TTGlyph>
    <TTGlyph name="Aacute" xMin="16" yMin="0" xMax="683" yMax="923">
      <component glyphName="A" x="0" y="0" flags="0x204"/>
      <component glyphName="acute.cap" x="148" y="0" flags="0x4"/>
    </TTGlyph>
    <TTGlyph name="Abreve" xMin="16" yMin="0" xMax="683" yMax="889">
      <component glyphName="A" x="0" y="0" flags="0x204"/>
      <component glyphName="breve.cap" x="137" y="0" flags="0x4"/>
    </TTGlyph>
    <TTGlyph name="Acaron" xMin="16" yMin="0" xMax="683" yMax="914">
      <component glyphName="A" x="0" y="0" flags="0x204"/>
      <component glyphName="caron.cap" x="139" y="0" flags="0x4"/>
    </TTGlyph>
    <TTGlyph name="Acircumflex" xMin="16" yMin="0" xMax="683" yMax="904">
      <component glyphName="A" x="0" y="0" flags="0x204"/>
      <component glyphName="circumflex.cap" x="138" y="0" flags="0x4"/>
    </TTGlyph>
    <TTGlyph name="Adieresis" xMin="16" yMin="0" xMax="683" yMax="863">
      <component glyphName="A" x="0" y="0" flags="0x204"/>
      <component glyphName="dieresis.cap" x="138" y="0" flags="0x4"/>
    </TTGlyph>
    <TTGlyph name="Agrave" xMin="16" yMin="0" xMax="683" yMax="923">
      <component glyphName="A" x="0" y="0" flags="0x204"/>
      <component glyphName="grave.cap" x="129" y="0" flags="0x4"/>
    </TTGlyph>
    <TTGlyph name="Amacron" xMin="16" yMin="0" xMax="683" yMax="854">
      <component glyphName="A" x="0" y="0" flags="0x204"/>
      <component glyphName="macron.cap" x="137" y="0" flags="0x4"/>
    </TTGlyph>
    <TTGlyph name="Aogonek" xMin="16" yMin="-218" xMax="687" yMax="663">
      <contour>
        <pt x="498" y="144" on="1"/>
        <pt x="193" y="144" on="1"/>
        <pt x="144" y="12" on="1"/>
        <pt x="141" y="4" on="0"/>
        <pt x="135" y="0" on="0"/>
        <pt x="127" y="0" on="1"/>
        <pt x="16" y="0" on="1"/>
        <pt x="274" y="663" on="1"/>
        <pt x="394" y="663" on="1"/>
        <pt x="402" y="663" on="0"/>
        <pt x="409" y="659" on="0"/>
        <pt x="412" y="651" on="1"/>
        <pt x="683" y="0" on="1"/>
        <pt x="620" y="0" on="1"/>
        <pt x="611" y="0" on="0"/>
        <pt x="598" y="-4" on="0"/>
        <pt x="590" y="-12" on="1"/>
        <pt x="573" y="-30" on="0"/>
        <pt x="547" y="-73" on="0"/>
        <pt x="547" y="-95" on="1"/>
        <pt x="547" y="-116" on="0"/>
        <pt x="576" y="-139" on="0"/>
        <pt x="600" y="-140" on="1"/>
        <pt x="608" y="-140" on="0"/>
        <pt x="633" y="-138" on="0"/>
        <pt x="643" y="-136" on="1"/>
        <pt x="668" y="-132" on="1"/>
        <pt x="687" y="-192" on="1"/>
        <pt x="632" y="-218" on="0"/>
        <pt x="583" y="-218" on="1"/>
        <pt x="554" y="-218" on="0"/>
        <pt x="506" y="-202" on="0"/>
        <pt x="472" y="-175" on="0"/>
        <pt x="452" y="-138" on="0"/>
        <pt x="452" y="-116" on="1"/>
        <pt x="452" y="-75" on="0"/>
        <pt x="507" y="-3" on="0"/>
        <pt x="546" y="26" on="1"/>
      </contour>
      <contour>
        <pt x="230" y="242" on="1"/>
        <pt x="459" y="242" on="1"/>
        <pt x="405" y="378" on="1"/>
        <pt x="386" y="424" on="0"/>
        <pt x="351" y="512" on="0"/>
        <pt x="340" y="544" on="1"/>
        <pt x="330" y="512" on="0"/>
        <pt x="298" y="424" on="0"/>
        <pt x="281" y="380" on="1"/>
      </contour>
    </TTGlyph>
    <TTGlyph name="Aring" xMin="16" yMin="0" xMax="683" yMax="877">
      <contour>
        <pt x="683" y="0" on="1"/>
        <pt x="568" y="0" on="1"/>
        <pt x="560" y="0" on="0"/>
        <pt x="554" y="4" on="0"/>
        <pt x="551" y="12" on="1"/>
        <pt x="498" y="144" on="1"/>
        <pt x="193" y="144" on="1"/>
        <pt x="144" y="12" on="1"/>
        <pt x="141" y="4" on="0"/>
        <pt x="135" y="0" on="0"/>
        <pt x="127" y="0" on="1"/>
        <pt x="16" y="0" on="1"/>
        <pt x="271" y="655" on="1"/>
        <pt x="246" y="671" on="0"/>
        <pt x="218" y="721" on="0"/>
        <pt x="218" y="756" on="1"/>
        <pt x="218" y="783" on="0"/>
        <pt x="237" y="828" on="0"/>
        <pt x="271" y="860" on="0"/>
        <pt x="317" y="877" on="0"/>
        <pt x="343" y="877" on="1"/>
        <pt x="369" y="877" on="0"/>
        <pt x="415" y="860" on="0"/>
        <pt x="449" y="828" on="0"/>
        <pt x="468" y="783" on="0"/>
        <pt x="468" y="756" on="1"/>
        <pt x="468" y="721" on="0"/>
        <pt x="437" y="666" on="0"/>
        <pt x="411" y="655" on="1"/>
      </contour>
      <contour>
        <pt x="399" y="756" on="1"/>
        <pt x="399" y="780" on="0"/>
        <pt x="372" y="809" on="0"/>
        <pt x="343" y="809" on="1"/>
        <pt x="314" y="809" on="0"/>
        <pt x="287" y="780" on="0"/>
        <pt x="287" y="756" on="1"/>
        <pt x="287" y="732" on="0"/>
        <pt x="314" y="703" on="0"/>
        <pt x="343" y="703" on="1"/>
        <pt x="372" y="703" on="0"/>
        <pt x="399" y="732" on="0"/>
      </contour>
      <contour>
        <pt x="230" y="242" on="1"/>
        <pt x="459" y="242" on="1"/>
        <pt x="405" y="378" on="1"/>
        <pt x="386" y="424" on="0"/>
        <pt x="351" y="512" on="0"/>
        <pt x="340" y="544" on="1"/>
        <pt x="330" y="512" on="0"/>
        <pt x="298" y="424" on="0"/>
        <pt x="281" y="380" on="1"/>
      </contour>
    </TTGlyph>
    <TTGlyph name="Aringacute" xMin="16" yMin="0" xMax="683" yMax="1085">
      <component glyphName="acute" x="136" y="342" flags="0x4"/>
      <component glyphName="Aring" x="0" y="0" flags="0x4"/>
    </TTGlyph>
    <TTGlyph name="Atilde" xMin="16" yMin="0" xMax="683" yMax="871">
      <component glyphName="A" x="0" y="0" flags="0x204"/>
      <component glyphName="tilde.cap" x="137" y="0" flags="0x4"/>
    </TTGlyph>
    <TTGlyph name="B" xMin="72" yMin="0" xMax="604" yMax="663">
      <contour>
        <pt x="339" y="663" on="1"/>
        <pt x="393" y="663" on="0"/>
        <pt x="482" y="643" on="0"/>
        <pt x="514" y="613" on="1"/>
        <pt x="535" y="593" on="0"/>
        <pt x="561" y="536" on="0"/>
        <pt x="561" y="500" on="1"/>
        <pt x="561" y="458" on="0"/>
        <pt x="527" y="393" on="0"/>
        <pt x="499" y="358" on="1"/>
        <pt x="499" y="357" on="1"/>
        <pt x="545" y="335" on="0"/>
        <pt x="604" y="250" on="0"/>
        <pt x="604" y="191" on="1"/>
        <pt x="604" y="145" on="0"/>
        <pt x="573" y="76" on="0"/>
        <pt x="546" y="52" on="1"/>
        <pt x="487" y="0" on="0"/>
        <pt x="378" y="0" on="1"/>
        <pt x="72" y="0" on="1"/>
        <pt x="72" y="663" on="1"/>
      </contour>
      <contour>
        <pt x="192" y="102" on="1"/>
        <pt x="360" y="102" on="1"/>
        <pt x="396" y="102" on="0"/>
        <pt x="442" y="113" on="0"/>
        <pt x="457" y="128" on="1"/>
        <pt x="468" y="139" on="0"/>
        <pt x="481" y="176" on="0"/>
        <pt x="481" y="196" on="1"/>
        <pt x="481" y="225" on="0"/>
        <pt x="460" y="269" on="0"/>
        <pt x="438" y="278" on="1"/>
        <pt x="427" y="283" on="0"/>
        <pt x="398" y="285" on="0"/>
        <pt x="383" y="285" on="1"/>
        <pt x="192" y="285" on="1"/>
      </contour>
      <contour>
        <pt x="192" y="383" on="1"/>
        <pt x="385" y="383" on="1"/>
        <pt x="409" y="383" on="0"/>
        <pt x="421" y="402" on="1"/>
        <pt x="441" y="433" on="0"/>
        <pt x="441" y="477" on="1"/>
        <pt x="441" y="519" on="0"/>
        <pt x="417" y="540" on="1"/>
        <pt x="403" y="552" on="0"/>
        <pt x="360" y="561" on="0"/>
        <pt x="331" y="561" on="1"/>
        <pt x="192" y="561" on="1"/>
      </contour>
    </TTGlyph>
    <TTGlyph name="C" xMin="39" yMin="-10" xMax="653" yMax="673">
      <contour>
        <pt x="653" y="130" on="1"/>
        <pt x="627" y="99" on="0"/>
        <pt x="559" y="47" on="0"/>
        <pt x="482" y="10" on="0"/>
        <pt x="398" y="-10" on="0"/>
        <pt x="356" y="-10" on="1"/>
        <pt x="354" y="-10" on="1"/>
        <pt x="284" y="-10" on="0"/>
        <pt x="168" y="41" on="0"/>
        <pt x="85" y="133" on="0"/>
        <pt x="39" y="258" on="0"/>
        <pt x="39" y="332" on="1"/>
        <pt x="39" y="411" on="0"/>
        <pt x="91" y="537" on="0"/>
        <pt x="178" y="626" on="0"/>
        <pt x="293" y="673" on="0"/>
        <pt x="356" y="673" on="1"/>
        <pt x="460" y="673" on="0"/>
        <pt x="602" y="570" on="0"/>
        <pt x="636" y="477" on="1"/>
        <pt x="555" y="427" on="1"/>
        <pt x="484" y="496" on="1"/>
        <pt x="452" y="527" on="0"/>
        <pt x="391" y="557" on="0"/>
        <pt x="348" y="557" on="1"/>
        <pt x="311" y="557" on="0"/>
        <pt x="244" y="530" on="0"/>
        <pt x="194" y="475" on="0"/>
        <pt x="164" y="389" on="0"/>
        <pt x="164" y="331" on="1"/>
        <pt x="164" y="280" on="0"/>
        <pt x="189" y="197" on="0"/>
        <pt x="240" y="138" on="0"/>
        <pt x="316" y="106" on="0"/>
        <pt x="368" y="106" on="1"/>
        <pt x="401" y="106" on="0"/>
        <pt x="473" y="124" on="0"/>
        <pt x="510" y="143" on="1"/>
        <pt x="606" y="192" on="1"/>
      </contour>
    </TTGlyph>
    <TTGlyph name="Cacute" xMin="39" yMin="-10" xMax="653" yMax="923">
      <component glyphName="C" x="0" y="0" flags="0x204"/>
      <component glyphName="acute.cap" x="163" y="0" flags="0x4"/>
    </TTGlyph>
    <TTGlyph name="Ccaron" xMin="39" yMin="-10" xMax="653" yMax="914">
      <component glyphName="C" x="0" y="0" flags="0x204"/>
      <component glyphName="caron.cap" x="156" y="0" flags="0x4"/>
    </TTGlyph>
    <TTGlyph name="Ccedilla" xMin="39" yMin="-240" xMax="653" yMax="673">
      <contour>
        <pt x="653" y="130" on="1"/>
        <pt x="603" y="70" on="0"/>
        <pt x="456" y="-5" on="0"/>
        <pt x="375" y="-9" on="1"/>
        <pt x="369" y="-18" on="0"/>
        <pt x="361" y="-33" on="0"/>
        <pt x="361" y="-41" on="1"/>
        <pt x="361" y="-51" on="0"/>
        <pt x="395" y="-62" on="0"/>
        <pt x="437" y="-79" on="0"/>
        <pt x="471" y="-108" on="0"/>
        <pt x="471" y="-136" on="1"/>
        <pt x="471" y="-182" on="0"/>
        <pt x="380" y="-240" on="0"/>
        <pt x="289" y="-240" on="1"/>
        <pt x="277" y="-178" on="1"/>
        <pt x="336" y="-167" on="1"/>
        <pt x="358" y="-162" on="0"/>
        <pt x="373" y="-150" on="0"/>
        <pt x="373" y="-143" on="1"/>
        <pt x="373" y="-134" on="0"/>
        <pt x="342" y="-123" on="0"/>
        <pt x="304" y="-109" on="0"/>
        <pt x="273" y="-88" on="0"/>
        <pt x="273" y="-68" on="1"/>
        <pt x="273" y="-54" on="0"/>
        <pt x="293" y="-23" on="0"/>
        <pt x="307" y="-7" on="1"/>
        <pt x="246" y="2" on="0"/>
        <pt x="147" y="59" on="0"/>
        <pt x="77" y="148" on="0"/>
        <pt x="39" y="264" on="0"/>
        <pt x="39" y="332" on="1"/>
        <pt x="39" y="411" on="0"/>
        <pt x="91" y="537" on="0"/>
        <pt x="178" y="626" on="0"/>
        <pt x="293" y="673" on="0"/>
        <pt x="356" y="673" on="1"/>
        <pt x="460" y="673" on="0"/>
        <pt x="602" y="570" on="0"/>
        <pt x="636" y="477" on="1"/>
        <pt x="555" y="427" on="1"/>
        <pt x="484" y="496" on="1"/>
        <pt x="452" y="527" on="0"/>
        <pt x="391" y="557" on="0"/>
        <pt x="348" y="557" on="1"/>
        <pt x="312" y="557" on="0"/>
        <pt x="245" y="530" on="0"/>
        <pt x="194" y="475" on="0"/>
        <pt x="164" y="389" on="0"/>
        <pt x="164" y="331" on="1"/>
        <pt x="164" y="282" on="0"/>
        <pt x="189" y="200" on="0"/>
        <pt x="240" y="140" on="0"/>
        <pt x="317" y="106" on="0"/>
        <pt x="368" y="106" on="1"/>
        <pt x="401" y="106" on="0"/>
        <pt x="473" y="124" on="0"/>
        <pt x="510" y="143" on="1"/>
        <pt x="606" y="192" on="1"/>
      </contour>
    </TTGlyph>
    <TTGlyph name="Ccircumflex" xMin="39" yMin="-10" xMax="653" yMax="904">
      <component glyphName="C" x="0" y="0" flags="0x204"/>
      <component glyphName="circumflex.cap" x="153" y="0" flags="0x4"/>
    </TTGlyph>
    <TTGlyph name="Cdotaccent" xMin="39" yMin="-10" xMax="653" yMax="847">
      <component glyphName="C" x="0" y="0" flags="0x204"/>
      <component glyphName="dotaccent.cap" x="154" y="0" flags="0x4"/>
    </TTGlyph>
    <TTGlyph name="D" xMin="72" yMin="0" xMax="671" yMax="663">
      <contour>
        <pt x="671" y="332" on="1"/>
        <pt x="671" y="249" on="0"/>
        <pt x="622" y="127" on="0"/>
        <pt x="577" y="86" on="1"/>
        <pt x="526" y="40" on="0"/>
        <pt x="379" y="0" on="0"/>
        <pt x="279" y="0" on="1"/>
        <pt x="72" y="0" on="1"/>
        <pt x="72" y="663" on="1"/>
        <pt x="278" y="663" on="1"/>
        <pt x="378" y="663" on="0"/>
        <pt x="526" y="623" on="0"/>
        <pt x="577" y="577" on="1"/>
        <pt x="622" y="536" on="0"/>
        <pt x="671" y="415" on="0"/>
      </contour>
      <contour>
        <pt x="271" y="105" on="1"/>
        <pt x="346" y="105" on="0"/>
        <pt x="450" y="127" on="0"/>
        <pt x="485" y="157" on="1"/>
        <pt x="515" y="183" on="0"/>
        <pt x="547" y="269" on="0"/>
        <pt x="547" y="332" on="1"/>
        <pt x="547" y="395" on="0"/>
        <pt x="515" y="480" on="0"/>
        <pt x="485" y="506" on="1"/>
        <pt x="450" y="536" on="0"/>
        <pt x="346" y="558" on="0"/>
        <pt x="271" y="558" on="1"/>
        <pt x="192" y="558" on="1"/>
        <pt x="192" y="105" on="1"/>
      </contour>
    </TTGlyph>
    <TTGlyph name="Dcaron" xMin="72" yMin="0" xMax="671" yMax="914">
      <component glyphName="D" x="0" y="0" flags="0x204"/>
      <component glyphName="caron.cap" x="157" y="0" flags="0x4"/>
    </TTGlyph>
    <TTGlyph name="Dcroat" xMin="8" yMin="0" xMax="695" yMax="663">
      <contour>
        <pt x="695" y="332" on="1"/>
        <pt x="695" y="249" on="0"/>
        <pt x="646" y="127" on="0"/>
        <pt x="601" y="86" on="1"/>
        <pt x="550" y="40" on="0"/>
        <pt x="403" y="0" on="0"/>
        <pt x="303" y="0" on="1"/>
        <pt x="96" y="0" on="1"/>
        <pt x="96" y="293" on="1"/>
        <pt x="8" y="293" on="1"/>
        <pt x="8" y="385" on="1"/>
        <pt x="96" y="385" on="1"/>
        <pt x="96" y="663" on="1"/>
        <pt x="302" y="663" on="1"/>
        <pt x="402" y="663" on="0"/>
        <pt x="550" y="623" on="0"/>
        <pt x="601" y="577" on="1"/>
        <pt x="646" y="536" on="0"/>
        <pt x="695" y="415" on="0"/>
      </contour>
      <contour>
        <pt x="295" y="105" on="1"/>
        <pt x="370" y="105" on="0"/>
        <pt x="474" y="127" on="0"/>
        <pt x="509" y="157" on="1"/>
        <pt x="539" y="183" on="0"/>
        <pt x="571" y="269" on="0"/>
        <pt x="571" y="332" on="1"/>
        <pt x="571" y="395" on="0"/>
        <pt x="539" y="480" on="0"/>
        <pt x="509" y="506" on="1"/>
        <pt x="474" y="536" on="0"/>
        <pt x="370" y="558" on="0"/>
        <pt x="295" y="558" on="1"/>
        <pt x="216" y="558" on="1"/>
        <pt x="216" y="385" on="1"/>
        <pt x="354" y="385" on="1"/>
        <pt x="354" y="293" on="1"/>
        <pt x="216" y="293" on="1"/>
        <pt x="216" y="105" on="1"/>
      </contour>
    </TTGlyph>
    <TTGlyph name="Delta" xMin="43" yMin="0" xMax="643" yMax="663">
      <contour>
        <pt x="43" y="63" on="1"/>
        <pt x="43" y="79" on="0"/>
        <pt x="53" y="108" on="0"/>
        <pt x="64" y="138" on="1"/>
        <pt x="269" y="663" on="1"/>
        <pt x="389" y="663" on="1"/>
        <pt x="397" y="663" on="0"/>
        <pt x="404" y="659" on="0"/>
        <pt x="407" y="651" on="1"/>
        <pt x="622" y="138" on="1"/>
        <pt x="635" y="108" on="0"/>
        <pt x="643" y="79" on="0"/>
        <pt x="643" y="63" on="1"/>
        <pt x="643" y="0" on="1"/>
        <pt x="43" y="0" on="1"/>
      </contour>
      <contour>
        <pt x="436" y="104" on="1"/>
        <pt x="452" y="104" on="0"/>
        <pt x="498" y="103" on="0"/>
        <pt x="517" y="101" on="1"/>
        <pt x="508" y="119" on="0"/>
        <pt x="481" y="181" on="0"/>
        <pt x="467" y="216" on="1"/>
        <pt x="398" y="383" on="1"/>
        <pt x="377" y="433" on="0"/>
        <pt x="346" y="516" on="0"/>
        <pt x="335" y="548" on="1"/>
        <pt x="318" y="487" on="0"/>
        <pt x="278" y="385" on="1"/>
        <pt x="214" y="216" on="1"/>
        <pt x="200" y="181" on="0"/>
        <pt x="173" y="119" on="0"/>
        <pt x="164" y="101" on="1"/>
        <pt x="183" y="103" on="0"/>
        <pt x="229" y="104" on="0"/>
        <pt x="245" y="104" on="1"/>
      </contour>
    </TTGlyph>
    <TTGlyph name="E" xMin="72" yMin="0" xMax="545" yMax="663">
      <contour>
        <pt x="534" y="663" on="1"/>
        <pt x="534" y="561" on="1"/>
        <pt x="192" y="561" on="1"/>
        <pt x="192" y="391" on="1"/>
        <pt x="498" y="391" on="1"/>
        <pt x="498" y="290" on="1"/>
        <pt x="192" y="290" on="1"/>
        <pt x="192" y="102" on="1"/>
        <pt x="545" y="102" on="1"/>
        <pt x="545" y="0" on="1"/>
        <pt x="72" y="0" on="1"/>
        <pt x="72" y="663" on="1"/>
      </contour>
    </TTGlyph>
    <TTGlyph name="Eacute" xMin="72" yMin="0" xMax="545" yMax="923">
      <component glyphName="E" x="0" y="0" flags="0x204"/>
      <component glyphName="acute.cap" x="113" y="0" flags="0x4"/>
    </TTGlyph>
    <TTGlyph name="Ebreve" xMin="72" yMin="0" xMax="545" yMax="889">
      <component glyphName="E" x="0" y="0" flags="0x204"/>
      <component glyphName="breve.cap" x="95" y="0" flags="0x4"/>
    </TTGlyph>
    <TTGlyph name="Ecaron" xMin="72" yMin="0" xMax="545" yMax="914">
      <component glyphName="E" x="0" y="0" flags="0x204"/>
      <component glyphName="caron.cap" x="106" y="0" flags="0x4"/>
    </TTGlyph>
    <TTGlyph name="Ecircumflex" xMin="72" yMin="0" xMax="545" yMax="904">
      <component glyphName="E" x="0" y="0" flags="0x204"/>
      <component glyphName="circumflex.cap" x="101" y="0" flags="0x4"/>
    </TTGlyph>
    <TTGlyph name="Edieresis" xMin="72" yMin="0" xMax="545" yMax="863">
      <component glyphName="E" x="0" y="0" flags="0x204"/>
      <component glyphName="dieresis.cap" x="101" y="0" flags="0x4"/>
    </TTGlyph>
    <TTGlyph name="Edotaccent" xMin="72" yMin="0" xMax="545" yMax="847">
      <component glyphName="E" x="0" y="0" flags="0x204"/>
      <component glyphName="dotaccent.cap" x="97" y="0" flags="0x4"/>
    </TTGlyph>
    <TTGlyph name="Egrave" xMin="72" yMin="0" xMax="545" yMax="923">
      <component glyphName="E" x="0" y="0" flags="0x204"/>
      <component glyphName="grave.cap" x="113" y="0" flags="0x4"/>
    </TTGlyph>
    <TTGlyph name="Emacron" xMin="72" yMin="0" xMax="545" yMax="854">
      <component glyphName="E" x="0" y="0" flags="0x204"/>
      <component glyphName="macron.cap" x="97" y="0" flags="0x4"/>
    </TTGlyph>
    <TTGlyph name="Eng" xMin="72" yMin="-238" xMax="662" yMax="663">
      <contour>
        <pt x="296" y="332" on="1"/>
        <pt x="279" y="353" on="0"/>
        <pt x="246" y="396" on="0"/>
        <pt x="217" y="435" on="0"/>
        <pt x="193" y="467" on="0"/>
        <pt x="186" y="478" on="1"/>
        <pt x="185" y="478" on="1"/>
        <pt x="185" y="0" on="1"/>
        <pt x="72" y="0" on="1"/>
        <pt x="72" y="663" on="1"/>
        <pt x="158" y="663" on="1"/>
        <pt x="166" y="663" on="0"/>
        <pt x="175" y="660" on="0"/>
        <pt x="181" y="652" on="1"/>
        <pt x="438" y="331" on="1"/>
        <pt x="454" y="311" on="0"/>
        <pt x="487" y="269" on="0"/>
        <pt x="517" y="229" on="0"/>
        <pt x="541" y="196" on="0"/>
        <pt x="548" y="185" on="1"/>
        <pt x="549" y="185" on="1"/>
        <pt x="549" y="663" on="1"/>
        <pt x="662" y="663" on="1"/>
        <pt x="662" y="-31" on="1"/>
        <pt x="662" y="-131" on="0"/>
        <pt x="616" y="-183" on="1"/>
        <pt x="593" y="-209" on="0"/>
        <pt x="521" y="-238" on="0"/>
        <pt x="471" y="-238" on="1"/>
        <pt x="457" y="-238" on="0"/>
        <pt x="424" y="-233" on="0"/>
        <pt x="391" y="-223" on="0"/>
        <pt x="360" y="-211" on="0"/>
        <pt x="348" y="-203" on="1"/>
        <pt x="366" y="-128" on="1"/>
        <pt x="375" y="-130" on="0"/>
        <pt x="401" y="-133" on="0"/>
        <pt x="427" y="-135" on="0"/>
        <pt x="450" y="-137" on="0"/>
        <pt x="457" y="-137" on="1"/>
        <pt x="507" y="-137" on="0"/>
        <pt x="529" y="-114" on="1"/>
        <pt x="539" y="-103" on="0"/>
        <pt x="548" y="-66" on="0"/>
        <pt x="548" y="-42" on="1"/>
        <pt x="548" y="17" on="1"/>
      </contour>
    </TTGlyph>
    <TTGlyph name="Eogonek" xMin="72" yMin="-218" xMax="545" yMax="663">
      <contour>
        <pt x="534" y="663" on="1"/>
        <pt x="534" y="561" on="1"/>
        <pt x="192" y="561" on="1"/>
        <pt x="192" y="391" on="1"/>
        <pt x="498" y="391" on="1"/>
        <pt x="498" y="290" on="1"/>
        <pt x="192" y="290" on="1"/>
        <pt x="192" y="102" on="1"/>
        <pt x="545" y="102" on="1"/>
        <pt x="545" y="0" on="1"/>
        <pt x="472" y="0" on="1"/>
        <pt x="464" y="0" on="0"/>
        <pt x="454" y="-6" on="0"/>
        <pt x="449" y="-11" on="1"/>
        <pt x="431" y="-29" on="0"/>
        <pt x="405" y="-73" on="0"/>
        <pt x="405" y="-95" on="1"/>
        <pt x="405" y="-116" on="0"/>
        <pt x="434" y="-139" on="0"/>
        <pt x="458" y="-140" on="1"/>
        <pt x="466" y="-140" on="0"/>
        <pt x="491" y="-138" on="0"/>
        <pt x="501" y="-136" on="1"/>
        <pt x="526" y="-132" on="1"/>
        <pt x="545" y="-192" on="1"/>
        <pt x="490" y="-218" on="0"/>
        <pt x="441" y="-218" on="1"/>
        <pt x="412" y="-218" on="0"/>
        <pt x="364" y="-202" on="0"/>
        <pt x="330" y="-175" on="0"/>
        <pt x="310" y="-138" on="0"/>
        <pt x="310" y="-116" on="1"/>
        <pt x="310" y="-85" on="0"/>
        <pt x="344" y="-26" on="0"/>
        <pt x="373" y="0" on="1"/>
        <pt x="72" y="0" on="1"/>
        <pt x="72" y="663" on="1"/>
      </contour>
    </TTGlyph>
    <TTGlyph name="Eth" xMin="8" yMin="0" xMax="695" yMax="663">
      <contour>
        <pt x="695" y="332" on="1"/>
        <pt x="695" y="249" on="0"/>
        <pt x="646" y="127" on="0"/>
        <pt x="601" y="86" on="1"/>
        <pt x="550" y="40" on="0"/>
        <pt x="403" y="0" on="0"/>
        <pt x="303" y="0" on="1"/>
        <pt x="96" y="0" on="1"/>
        <pt x="96" y="293" on="1"/>
        <pt x="8" y="293" on="1"/>
        <pt x="8" y="385" on="1"/>
        <pt x="96" y="385" on="1"/>
        <pt x="96" y="663" on="1"/>
        <pt x="302" y="663" on="1"/>
        <pt x="402" y="663" on="0"/>
        <pt x="550" y="623" on="0"/>
        <pt x="601" y="577" on="1"/>
        <pt x="646" y="536" on="0"/>
        <pt x="695" y="415" on="0"/>
      </contour>
      <contour>
        <pt x="295" y="105" on="1"/>
        <pt x="370" y="105" on="0"/>
        <pt x="474" y="127" on="0"/>
        <pt x="509" y="157" on="1"/>
        <pt x="539" y="183" on="0"/>
        <pt x="571" y="269" on="0"/>
        <pt x="571" y="332" on="1"/>
        <pt x="571" y="395" on="0"/>
        <pt x="539" y="480" on="0"/>
        <pt x="509" y="506" on="1"/>
        <pt x="474" y="536" on="0"/>
        <pt x="370" y="558" on="0"/>
        <pt x="295" y="558" on="1"/>
        <pt x="216" y="558" on="1"/>
        <pt x="216" y="385" on="1"/>
        <pt x="354" y="385" on="1"/>
        <pt x="354" y="293" on="1"/>
        <pt x="216" y="293" on="1"/>
        <pt x="216" y="105" on="1"/>
      </contour>
    </TTGlyph>
    <TTGlyph name="Euro" xMin="35" yMin="-10" xMax="608" yMax="673">
      <contour>
        <pt x="103" y="423" on="1"/>
        <pt x="113" y="483" on="0"/>
        <pt x="164" y="576" on="0"/>
        <pt x="235" y="640" on="0"/>
        <pt x="321" y="673" on="0"/>
        <pt x="367" y="673" on="1"/>
        <pt x="452" y="673" on="0"/>
        <pt x="570" y="585" on="0"/>
        <pt x="605" y="512" on="1"/>
        <pt x="532" y="466" on="1"/>
        <pt x="488" y="508" on="1"/>
        <pt x="472" y="523" on="0"/>
        <pt x="445" y="545" on="0"/>
        <pt x="418" y="560" on="0"/>
        <pt x="390" y="567" on="0"/>
        <pt x="372" y="567" on="1"/>
        <pt x="315" y="567" on="0"/>
        <pt x="232" y="496" on="0"/>
        <pt x="221" y="423" on="1"/>
        <pt x="426" y="423" on="1"/>
        <pt x="426" y="355" on="1"/>
        <pt x="213" y="355" on="1"/>
        <pt x="212" y="347" on="0"/>
        <pt x="212" y="334" on="0"/>
        <pt x="212" y="329" on="1"/>
        <pt x="212" y="320" on="0"/>
        <pt x="213" y="305" on="0"/>
        <pt x="214" y="298" on="1"/>
        <pt x="426" y="298" on="1"/>
        <pt x="426" y="229" on="1"/>
        <pt x="225" y="229" on="1"/>
        <pt x="229" y="198" on="0"/>
        <pt x="257" y="150" on="0"/>
        <pt x="299" y="116" on="0"/>
        <pt x="351" y="98" on="0"/>
        <pt x="380" y="98" on="1"/>
        <pt x="412" y="98" on="0"/>
        <pt x="475" y="117" on="0"/>
        <pt x="502" y="133" on="1"/>
        <pt x="563" y="168" on="1"/>
        <pt x="608" y="114" on="1"/>
        <pt x="588" y="86" on="0"/>
        <pt x="533" y="40" on="0"/>
        <pt x="469" y="8" on="0"/>
        <pt x="401" y="-10" on="0"/>
        <pt x="370" y="-10" on="1"/>
        <pt x="319" y="-10" on="0"/>
        <pt x="229" y="24" on="0"/>
        <pt x="159" y="87" on="0"/>
        <pt x="112" y="176" on="0"/>
        <pt x="104" y="230" on="1"/>
        <pt x="35" y="230" on="1"/>
        <pt x="35" y="288" on="1"/>
        <pt x="95" y="298" on="1"/>
        <pt x="94" y="307" on="0"/>
        <pt x="94" y="323" on="0"/>
        <pt x="94" y="333" on="1"/>
        <pt x="94" y="355" on="1"/>
        <pt x="35" y="355" on="1"/>
        <pt x="35" y="413" on="1"/>
      </contour>
    </TTGlyph>
    <TTGlyph name="Euro.lprop" xMin="38" yMin="-10" xMax="611" yMax="673">
      <component glyphName="Euro" x="3" y="0" flags="0x4"/>
    </TTGlyph>
    <TTGlyph name="Euro.oprop" xMin="39" yMin="-8" xMax="566" yMax="496">
      <contour>
        <pt x="39" y="218" on="1"/>
        <pt x="107" y="227" on="1"/>
        <pt x="107" y="257" on="1"/>
        <pt x="39" y="257" on="1"/>
        <pt x="39" y="300" on="1"/>
        <pt x="114" y="309" on="1"/>
        <pt x="123" y="352" on="0"/>
        <pt x="166" y="421" on="0"/>
        <pt x="226" y="470" on="0"/>
        <pt x="301" y="496" on="0"/>
        <pt x="343" y="496" on="1"/>
        <pt x="382" y="496" on="0"/>
        <pt x="451" y="472" on="0"/>
        <pt x="506" y="429" on="0"/>
        <pt x="547" y="371" on="0"/>
        <pt x="558" y="338" on="1"/>
        <pt x="486" y="304" on="1"/>
        <pt x="448" y="342" on="1"/>
        <pt x="415" y="375" on="0"/>
        <pt x="369" y="398" on="0"/>
        <pt x="339" y="398" on="1"/>
        <pt x="302" y="398" on="0"/>
        <pt x="241" y="355" on="0"/>
        <pt x="227" y="310" on="1"/>
        <pt x="381" y="310" on="1"/>
        <pt x="381" y="257" on="1"/>
        <pt x="219" y="257" on="1"/>
        <pt x="219" y="248" on="1"/>
        <pt x="219" y="243" on="0"/>
        <pt x="219" y="233" on="0"/>
        <pt x="220" y="228" on="1"/>
        <pt x="381" y="228" on="1"/>
        <pt x="381" y="174" on="1"/>
        <pt x="229" y="174" on="1"/>
        <pt x="257" y="92" on="0"/>
        <pt x="361" y="92" on="1"/>
        <pt x="385" y="92" on="0"/>
        <pt x="441" y="106" on="0"/>
        <pt x="474" y="120" on="1"/>
        <pt x="529" y="143" on="1"/>
        <pt x="566" y="84" on="1"/>
        <pt x="545" y="64" on="0"/>
        <pt x="492" y="31" on="0"/>
        <pt x="435" y="6" on="0"/>
        <pt x="377" y="-8" on="0"/>
        <pt x="349" y="-8" on="1"/>
        <pt x="347" y="-8" on="1"/>
        <pt x="255" y="-8" on="0"/>
        <pt x="134" y="90" on="0"/>
        <pt x="115" y="174" on="1"/>
        <pt x="39" y="174" on="1"/>
      </contour>
    </TTGlyph>
    <TTGlyph name="Euro.otab" xMin="39" yMin="-8" xMax="566" yMax="496">
      <contour>
        <pt x="39" y="218" on="1"/>
        <pt x="107" y="227" on="1"/>
        <pt x="107" y="257" on="1"/>
        <pt x="39" y="257" on="1"/>
        <pt x="39" y="300" on="1"/>
        <pt x="114" y="309" on="1"/>
        <pt x="123" y="352" on="0"/>
        <pt x="166" y="421" on="0"/>
        <pt x="226" y="470" on="0"/>
        <pt x="301" y="496" on="0"/>
        <pt x="343" y="496" on="1"/>
        <pt x="382" y="496" on="0"/>
        <pt x="451" y="472" on="0"/>
        <pt x="506" y="429" on="0"/>
        <pt x="547" y="371" on="0"/>
        <pt x="558" y="338" on="1"/>
        <pt x="486" y="304" on="1"/>
        <pt x="448" y="342" on="1"/>
        <pt x="415" y="375" on="0"/>
        <pt x="369" y="398" on="0"/>
        <pt x="339" y="398" on="1"/>
        <pt x="302" y="398" on="0"/>
        <pt x="241" y="355" on="0"/>
        <pt x="227" y="310" on="1"/>
        <pt x="381" y="310" on="1"/>
        <pt x="381" y="257" on="1"/>
        <pt x="219" y="257" on="1"/>
        <pt x="219" y="248" on="1"/>
        <pt x="219" y="243" on="0"/>
        <pt x="219" y="233" on="0"/>
        <pt x="220" y="228" on="1"/>
        <pt x="381" y="228" on="1"/>
        <pt x="381" y="174" on="1"/>
        <pt x="229" y="174" on="1"/>
        <pt x="257" y="92" on="0"/>
        <pt x="361" y="92" on="1"/>
        <pt x="385" y="92" on="0"/>
        <pt x="441" y="106" on="0"/>
        <pt x="474" y="120" on="1"/>
        <pt x="529" y="143" on="1"/>
        <pt x="566" y="84" on="1"/>
        <pt x="545" y="64" on="0"/>
        <pt x="492" y="31" on="0"/>
        <pt x="435" y="6" on="0"/>
        <pt x="377" y="-8" on="0"/>
        <pt x="349" y="-8" on="1"/>
        <pt x="347" y="-8" on="1"/>
        <pt x="255" y="-8" on="0"/>
        <pt x="134" y="90" on="0"/>
        <pt x="115" y="174" on="1"/>
        <pt x="39" y="174" on="1"/>
      </contour>
    </TTGlyph>
    <TTGlyph name="F" xMin="72" yMin="0" xMax="524" yMax="663">
      <contour>
        <pt x="192" y="391" on="1"/>
        <pt x="486" y="391" on="1"/>
        <pt x="486" y="290" on="1"/>
        <pt x="192" y="290" on="1"/>
        <pt x="192" y="0" on="1"/>
        <pt x="72" y="0" on="1"/>
        <pt x="72" y="663" on="1"/>
        <pt x="524" y="663" on="1"/>
        <pt x="524" y="561" on="1"/>
        <pt x="192" y="561" on="1"/>
      </contour>
    </TTGlyph>
    <TTGlyph name="G" xMin="39" yMin="-10" xMax="671" yMax="673">
      <contour>
        <pt x="496" y="504" on="1"/>
        <pt x="460" y="533" on="0"/>
        <pt x="398" y="558" on="0"/>
        <pt x="355" y="558" on="1"/>
        <pt x="313" y="558" on="0"/>
        <pt x="243" y="528" on="0"/>
        <pt x="192" y="470" on="0"/>
        <pt x="164" y="385" on="0"/>
        <pt x="164" y="331" on="1"/>
        <pt x="164" y="226" on="0"/>
        <pt x="269" y="105" on="0"/>
        <pt x="366" y="105" on="1"/>
        <pt x="410" y="105" on="0"/>
        <pt x="500" y="123" on="0"/>
        <pt x="543" y="143" on="1"/>
        <pt x="553" y="148" on="0"/>
        <pt x="556" y="157" on="0"/>
        <pt x="556" y="167" on="1"/>
        <pt x="556" y="251" on="1"/>
        <pt x="438" y="251" on="1"/>
        <pt x="438" y="346" on="1"/>
        <pt x="654" y="346" on="1"/>
        <pt x="662" y="346" on="0"/>
        <pt x="671" y="343" on="0"/>
        <pt x="671" y="333" on="1"/>
        <pt x="671" y="0" on="1"/>
        <pt x="582" y="0" on="1"/>
        <pt x="565" y="62" on="1"/>
        <pt x="512" y="33" on="1"/>
        <pt x="471" y="10" on="0"/>
        <pt x="396" y="-10" on="0"/>
        <pt x="352" y="-10" on="1"/>
        <pt x="282" y="-10" on="0"/>
        <pt x="167" y="41" on="0"/>
        <pt x="84" y="132" on="0"/>
        <pt x="39" y="257" on="0"/>
        <pt x="39" y="332" on="1"/>
        <pt x="39" y="411" on="0"/>
        <pt x="92" y="537" on="0"/>
        <pt x="182" y="626" on="0"/>
        <pt x="299" y="673" on="0"/>
        <pt x="363" y="673" on="1"/>
        <pt x="460" y="673" on="0"/>
        <pt x="606" y="585" on="0"/>
        <pt x="646" y="499" on="1"/>
        <pt x="568" y="446" on="1"/>
      </contour>
    </TTGlyph>
    <TTGlyph name="Gbreve" xMin="39" yMin="-10" xMax="671" yMax="889">
      <component glyphName="G" x="0" y="0" flags="0x204"/>
      <component glyphName="breve.cap" x="169" y="0" flags="0x4"/>
    </TTGlyph>
    <TTGlyph name="Gcircumflex" xMin="39" yMin="-10" xMax="671" yMax="903">
      <component glyphName="G" x="0" y="0" flags="0x204"/>
      <component glyphName="circumflex.cap" x="168" y="-1" flags="0x4"/>
    </TTGlyph>
    <TTGlyph name="Gcommaaccent" xMin="39" yMin="-282" xMax="671" yMax="673">
      <component glyphName="G" x="0" y="0" flags="0x204"/>
      <component glyphName="commaaccent" x="167" y="0" flags="0x4"/>
    </TTGlyph>
    <TTGlyph name="Gdotaccent" xMin="39" yMin="-10" xMax="671" yMax="847">
      <component glyphName="G" x="0" y="0" flags="0x204"/>
      <component glyphName="dotaccent.cap" x="161" y="0" flags="0x4"/>
    </TTGlyph>
    <TTGlyph name="H" xMin="72" yMin="0" xMax="645" yMax="663">
      <contour>
        <pt x="525" y="289" on="1"/>
        <pt x="192" y="289" on="1"/>
        <pt x="192" y="0" on="1"/>
        <pt x="72" y="0" on="1"/>
        <pt x="72" y="663" on="1"/>
        <pt x="192" y="663" on="1"/>
        <pt x="192" y="395" on="1"/>
        <pt x="525" y="395" on="1"/>
        <pt x="525" y="663" on="1"/>
        <pt x="645" y="663" on="1"/>
        <pt x="645" y="0" on="1"/>
        <pt x="525" y="0" on="1"/>
      </contour>
    </TTGlyph>
    <TTGlyph name="Hbar" xMin="14" yMin="0" xMax="739" yMax="663">
      <contour>
        <pt x="543" y="289" on="1"/>
        <pt x="210" y="289" on="1"/>
        <pt x="210" y="0" on="1"/>
        <pt x="90" y="0" on="1"/>
        <pt x="90" y="492" on="1"/>
        <pt x="14" y="492" on="1"/>
        <pt x="14" y="578" on="1"/>
        <pt x="90" y="578" on="1"/>
        <pt x="90" y="663" on="1"/>
        <pt x="210" y="663" on="1"/>
        <pt x="210" y="578" on="1"/>
        <pt x="543" y="578" on="1"/>
        <pt x="543" y="663" on="1"/>
        <pt x="663" y="663" on="1"/>
        <pt x="663" y="578" on="1"/>
        <pt x="739" y="578" on="1"/>
        <pt x="739" y="492" on="1"/>
        <pt x="663" y="492" on="1"/>
        <pt x="663" y="0" on="1"/>
        <pt x="543" y="0" on="1"/>
      </contour>
      <contour>
        <pt x="543" y="395" on="1"/>
        <pt x="543" y="492" on="1"/>
        <pt x="210" y="492" on="1"/>
        <pt x="210" y="395" on="1"/>
      </contour>
    </TTGlyph>
    <TTGlyph name="Hcircumflex" xMin="60" yMin="0" xMax="633" yMax="904">
      <component glyphName="H" x="-12" y="0" flags="0x204"/>
      <component glyphName="circumflex.cap" x="149" y="0" flags="0x4"/>
    </TTGlyph>
    <TTGlyph name="I" xMin="75" yMin="0" xMax="195" yMax="663">
      <contour>
        <pt x="75" y="663" on="1"/>
        <pt x="195" y="663" on="1"/>
        <pt x="195" y="0" on="1"/>
        <pt x="75" y="0" on="1"/>
      </contour>
    </TTGlyph>
    <TTGlyph name="IJ" xMin="77" yMin="-10" xMax="705" yMax="663">
      <component glyphName="I" x="2" y="0" flags="0x4"/>
      <component glyphName="J" x="268" y="0" flags="0x4"/>
    </TTGlyph>
    <TTGlyph name="Iacute" xMin="12" yMin="0" xMax="271" yMax="923">
      <component glyphName="I" x="0" y="0" flags="0x204"/>
      <component glyphName="acute.cap" x="-63" y="0" flags="0x4"/>
    </TTGlyph>
    <TTGlyph name="Ibreve" xMin="-28" yMin="0" xMax="298" yMax="889">
      <component glyphName="I" x="0" y="0" flags="0x204"/>
      <component glyphName="breve.cap" x="-70" y="0" flags="0x4"/>
    </TTGlyph>
    <TTGlyph name="Icircumflex" xMin="-40" yMin="0" xMax="311" yMax="904">
      <component glyphName="I" x="0" y="0" flags="0x204"/>
      <component glyphName="circumflex.cap" x="-69" y="0" flags="0x4"/>
    </TTGlyph>
    <TTGlyph name="Idieresis" xMin="-22" yMin="0" xMax="292" yMax="863">
      <component glyphName="I" x="0" y="0" flags="0x204"/>
      <component glyphName="dieresis.cap" x="-70" y="0" flags="0x4"/>
    </TTGlyph>
    <TTGlyph name="Idotaccent" xMin="75" yMin="0" xMax="196" yMax="847">
      <component glyphName="I" x="0" y="0" flags="0x204"/>
      <component glyphName="dotaccent.cap" x="-69" y="0" flags="0x4"/>
    </TTGlyph>
    <TTGlyph name="Igrave" xMin="-6" yMin="0" xMax="253" yMax="923">
      <component glyphName="I" x="0" y="0" flags="0x204"/>
      <component glyphName="grave.cap" x="-81" y="0" flags="0x4"/>
    </TTGlyph>
    <TTGlyph name="Imacron" xMin="-20" yMin="0" xMax="290" yMax="854">
      <component glyphName="I" x="0" y="0" flags="0x204"/>
      <component glyphName="macron.cap" x="-70" y="0" flags="0x4"/>
    </TTGlyph>
    <TTGlyph name="Iogonek" xMin="12" yMin="-218" xMax="247" yMax="663">
      <contour>
        <pt x="170" y="0" on="1"/>
        <pt x="162" y="0" on="0"/>
        <pt x="154" y="-4" on="0"/>
        <pt x="149" y="-9" on="1"/>
        <pt x="131" y="-27" on="0"/>
        <pt x="107" y="-74" on="0"/>
        <pt x="107" y="-95" on="1"/>
        <pt x="107" y="-116" on="0"/>
        <pt x="136" y="-139" on="0"/>
        <pt x="160" y="-140" on="1"/>
        <pt x="168" y="-140" on="0"/>
        <pt x="193" y="-138" on="0"/>
        <pt x="203" y="-136" on="1"/>
        <pt x="228" y="-132" on="1"/>
        <pt x="247" y="-192" on="1"/>
        <pt x="192" y="-218" on="0"/>
        <pt x="143" y="-218" on="1"/>
        <pt x="114" y="-218" on="0"/>
        <pt x="66" y="-202" on="0"/>
        <pt x="32" y="-175" on="0"/>
        <pt x="12" y="-138" on="0"/>
        <pt x="12" y="-116" on="1"/>
        <pt x="12" y="-85" on="0"/>
        <pt x="46" y="-22" on="0"/>
        <pt x="75" y="4" on="1"/>
        <pt x="75" y="663" on="1"/>
        <pt x="195" y="663" on="1"/>
        <pt x="195" y="0" on="1"/>
      </contour>
    </TTGlyph>
    <TTGlyph name="Itilde" xMin="-42" yMin="0" xMax="312" yMax="871">
      <component glyphName="I" x="0" y="0" flags="0x204"/>
      <component glyphName="tilde.cap" x="-70" y="0" flags="0x4"/>
    </TTGlyph>
    <TTGlyph name="J" xMin="27" yMin="-10" xMax="437" yMax="663">
      <contour>
        <pt x="55" y="126" on="1"/>
        <pt x="104" y="114" on="1"/>
        <pt x="175" y="97" on="0"/>
        <pt x="222" y="97" on="1"/>
        <pt x="274" y="97" on="0"/>
        <pt x="296" y="122" on="1"/>
        <pt x="317" y="147" on="0"/>
        <pt x="317" y="201" on="1"/>
        <pt x="317" y="663" on="1"/>
        <pt x="437" y="663" on="1"/>
        <pt x="437" y="206" on="1"/>
        <pt x="437" y="152" on="0"/>
        <pt x="410" y="74" on="0"/>
        <pt x="383" y="47" on="1"/>
        <pt x="356" y="20" on="0"/>
        <pt x="280" y="-10" on="0"/>
        <pt x="236" y="-10" on="1"/>
        <pt x="183" y="-10" on="0"/>
        <pt x="69" y="24" on="0"/>
        <pt x="27" y="53" on="1"/>
      </contour>
    </TTGlyph>
    <TTGlyph name="Jcircumflex" xMin="27" yMin="-10" xMax="549" yMax="904">
      <component glyphName="J" x="0" y="0" flags="0x4"/>
      <component glyphName="circumflex.cap" x="169" y="0" flags="0x4"/>
    </TTGlyph>
    <TTGlyph name="K" xMin="72" yMin="0" xMax="644" yMax="670">
      <contour>
        <pt x="280" y="317" on="1"/>
        <pt x="261" y="300" on="0"/>
        <pt x="212" y="264" on="0"/>
        <pt x="192" y="253" on="1"/>
        <pt x="192" y="0" on="1"/>
        <pt x="72" y="0" on="1"/>
        <pt x="72" y="663" on="1"/>
        <pt x="192" y="663" on="1"/>
        <pt x="192" y="365" on="1"/>
        <pt x="552" y="670" on="1"/>
        <pt x="618" y="597" on="1"/>
        <pt x="366" y="388" on="1"/>
        <pt x="644" y="0" on="1"/>
        <pt x="519" y="0" on="1"/>
        <pt x="505" y="0" on="0"/>
        <pt x="497" y="11" on="1"/>
      </contour>
    </TTGlyph>
    <TTGlyph name="Kcommaaccent" xMin="72" yMin="-282" xMax="644" yMax="670">
      <component glyphName="K" x="0" y="0" flags="0x204"/>
      <component glyphName="commaaccent" x="99" y="0" flags="0x4"/>
    </TTGlyph>
    <TTGlyph name="L" xMin="72" yMin="0" xMax="520" yMax="663">
      <contour>
        <pt x="192" y="102" on="1"/>
        <pt x="520" y="102" on="1"/>
        <pt x="520" y="0" on="1"/>
        <pt x="72" y="0" on="1"/>
        <pt x="72" y="663" on="1"/>
        <pt x="192" y="663" on="1"/>
      </contour>
    </TTGlyph>
    <TTGlyph name="Lacute" xMin="28" yMin="0" xMax="515" yMax="923">
      <component glyphName="L" x="-5" y="0" flags="0x4"/>
      <component glyphName="acute.cap" x="-47" y="0" flags="0x4"/>
    </TTGlyph>
    <TTGlyph name="Lcaron" xMin="72" yMin="0" xMax="520" yMax="663">
      <component glyphName="L" x="0" y="0" flags="0x204"/>
      <component glyphName="commaaccent" x="149" y="721" flags="0x4"/>
    </TTGlyph>
    <TTGlyph name="Lcommaaccent" xMin="72" yMin="-282" xMax="520" yMax="663">
      <component glyphName="L" x="0" y="0" flags="0x204"/>
      <component glyphName="commaaccent" x="82" y="0" flags="0x4"/>
    </TTGlyph>
    <TTGlyph name="Ldot" xMin="72" yMin="0" xMax="520" yMax="663">
      <component glyphName="L" x="0" y="0" flags="0x204"/>
      <component glyphName="dotaccent" x="181" y="-249" flags="0x4"/>
    </TTGlyph>
    <TTGlyph name="Lslash" xMin="0" yMin="0" xMax="582" yMax="663">
      <contour>
        <pt x="56" y="198" on="1"/>
        <pt x="0" y="280" on="1"/>
        <pt x="134" y="367" on="1"/>
        <pt x="134" y="663" on="1"/>
        <pt x="254" y="663" on="1"/>
        <pt x="254" y="431" on="1"/>
        <pt x="400" y="527" on="1"/>
        <pt x="456" y="445" on="1"/>
        <pt x="254" y="312" on="1"/>
        <pt x="254" y="102" on="1"/>
        <pt x="582" y="102" on="1"/>
        <pt x="582" y="0" on="1"/>
        <pt x="134" y="0" on="1"/>
        <pt x="134" y="249" on="1"/>
      </contour>
      <contour>
        <pt x="254" y="102" on="1"/>
        <pt x="582" y="102" on="1"/>
        <pt x="582" y="0" on="1"/>
        <pt x="134" y="0" on="1"/>
        <pt x="134" y="663" on="1"/>
        <pt x="254" y="663" on="1"/>
      </contour>
    </TTGlyph>
    <TTGlyph name="M" xMin="72" yMin="0" xMax="772" yMax="663">
      <contour>
        <pt x="772" y="663" on="1"/>
        <pt x="772" y="0" on="1"/>
        <pt x="657" y="0" on="1"/>
        <pt x="657" y="472" on="1"/>
        <pt x="655" y="472" on="1"/>
        <pt x="468" y="236" on="1"/>
        <pt x="392" y="236" on="1"/>
        <pt x="384" y="236" on="0"/>
        <pt x="376" y="241" on="0"/>
        <pt x="371" y="246" on="1"/>
        <pt x="188" y="472" on="1"/>
        <pt x="186" y="472" on="1"/>
        <pt x="186" y="0" on="1"/>
        <pt x="72" y="0" on="1"/>
        <pt x="72" y="663" on="1"/>
        <pt x="162" y="663" on="1"/>
        <pt x="171" y="663" on="0"/>
        <pt x="179" y="658" on="0"/>
        <pt x="185" y="650" on="1"/>
        <pt x="420" y="360" on="1"/>
        <pt x="426" y="360" on="1"/>
        <pt x="656" y="650" on="1"/>
        <pt x="662" y="658" on="0"/>
        <pt x="670" y="663" on="0"/>
        <pt x="679" y="663" on="1"/>
      </contour>
    </TTGlyph>
    <TTGlyph name="N" xMin="72" yMin="0" xMax="662" yMax="663">
      <contour>
        <pt x="549" y="663" on="1"/>
        <pt x="662" y="663" on="1"/>
        <pt x="662" y="0" on="1"/>
        <pt x="576" y="0" on="1"/>
        <pt x="568" y="0" on="0"/>
        <pt x="559" y="4" on="0"/>
        <pt x="553" y="11" on="1"/>
        <pt x="296" y="332" on="1"/>
        <pt x="279" y="353" on="0"/>
        <pt x="246" y="396" on="0"/>
        <pt x="217" y="435" on="0"/>
        <pt x="193" y="467" on="0"/>
        <pt x="186" y="478" on="1"/>
        <pt x="185" y="478" on="1"/>
        <pt x="185" y="0" on="1"/>
        <pt x="72" y="0" on="1"/>
        <pt x="72" y="663" on="1"/>
        <pt x="158" y="663" on="1"/>
        <pt x="166" y="663" on="0"/>
        <pt x="175" y="660" on="0"/>
        <pt x="181" y="652" on="1"/>
        <pt x="438" y="331" on="1"/>
        <pt x="454" y="311" on="0"/>
        <pt x="487" y="269" on="0"/>
        <pt x="517" y="229" on="0"/>
        <pt x="541" y="196" on="0"/>
        <pt x="548" y="185" on="1"/>
        <pt x="549" y="185" on="1"/>
      </contour>
    </TTGlyph>
    <TTGlyph name="Nacute" xMin="8" yMin="0" xMax="598" yMax="923">
      <component glyphName="N" x="-64" y="0" flags="0x204"/>
      <component glyphName="acute.cap" x="177" y="0" flags="0x4"/>
    </TTGlyph>
    <TTGlyph name="Ncaron" xMin="8" yMin="0" xMax="598" yMax="914">
      <component glyphName="N" x="-64" y="0" flags="0x204"/>
      <component glyphName="caron.cap" x="162" y="0" flags="0x4"/>
    </TTGlyph>
    <TTGlyph name="Ncommaaccent" xMin="8" yMin="-282" xMax="598" yMax="663">
      <component glyphName="N" x="-64" y="0" flags="0x204"/>
      <component glyphName="commaaccent" x="157" y="0" flags="0x4"/>
    </TTGlyph>
    <TTGlyph name="Ntilde" xMin="8" yMin="0" xMax="598" yMax="871">
      <component glyphName="N" x="-64" y="0" flags="0x204"/>
      <component glyphName="tilde.cap" x="165" y="0" flags="0x4"/>
    </TTGlyph>
    <TTGlyph name="O" xMin="39" yMin="-10" xMax="700" yMax="673">
      <contour>
        <pt x="164" y="332" on="1"/>
        <pt x="164" y="280" on="0"/>
        <pt x="192" y="197" on="0"/>
        <pt x="245" y="138" on="0"/>
        <pt x="321" y="106" on="0"/>
        <pt x="368" y="106" on="1"/>
        <pt x="371" y="106" on="1"/>
        <pt x="466" y="106" on="0"/>
        <pt x="575" y="226" on="0"/>
        <pt x="575" y="332" on="1"/>
        <pt x="575" y="437" on="0"/>
        <pt x="466" y="557" on="0"/>
        <pt x="371" y="557" on="1"/>
        <pt x="368" y="557" on="1"/>
        <pt x="273" y="557" on="0"/>
        <pt x="164" y="438" on="0"/>
      </contour>
      <contour>
        <pt x="368" y="-10" on="1"/>
        <pt x="304" y="-10" on="0"/>
        <pt x="185" y="38" on="0"/>
        <pt x="94" y="127" on="0"/>
        <pt x="39" y="253" on="0"/>
        <pt x="39" y="332" on="1"/>
        <pt x="39" y="411" on="0"/>
        <pt x="94" y="537" on="0"/>
        <pt x="185" y="625" on="0"/>
        <pt x="304" y="673" on="0"/>
        <pt x="368" y="673" on="1"/>
        <pt x="371" y="673" on="1"/>
        <pt x="435" y="673" on="0"/>
        <pt x="554" y="625" on="0"/>
        <pt x="645" y="537" on="0"/>
        <pt x="700" y="411" on="0"/>
        <pt x="700" y="332" on="1"/>
        <pt x="700" y="253" on="0"/>
        <pt x="645" y="127" on="0"/>
        <pt x="554" y="38" on="0"/>
        <pt x="435" y="-10" on="0"/>
        <pt x="371" y="-10" on="1"/>
      </contour>
    </TTGlyph>
    <TTGlyph name="OE" xMin="39" yMin="-10" xMax="1043" yMax="673">
      <contour>
        <pt x="1032" y="663" on="1"/>
        <pt x="1032" y="561" on="1"/>
        <pt x="690" y="561" on="1"/>
        <pt x="690" y="391" on="1"/>
        <pt x="996" y="391" on="1"/>
        <pt x="996" y="290" on="1"/>
        <pt x="690" y="290" on="1"/>
        <pt x="690" y="102" on="1"/>
        <pt x="1043" y="102" on="1"/>
        <pt x="1043" y="0" on="1"/>
        <pt x="570" y="0" on="1"/>
        <pt x="570" y="87" on="1"/>
        <pt x="541" y="48" on="0"/>
        <pt x="435" y="-10" on="0"/>
        <pt x="365" y="-10" on="1"/>
        <pt x="299" y="-10" on="0"/>
        <pt x="180" y="38" on="0"/>
        <pt x="91" y="128" on="0"/>
        <pt x="39" y="254" on="0"/>
        <pt x="39" y="332" on="1"/>
        <pt x="39" y="410" on="0"/>
        <pt x="91" y="536" on="0"/>
        <pt x="180" y="625" on="0"/>
        <pt x="299" y="673" on="0"/>
        <pt x="365" y="673" on="1"/>
        <pt x="435" y="673" on="0"/>
        <pt x="541" y="615" on="0"/>
        <pt x="570" y="576" on="1"/>
        <pt x="570" y="663" on="1"/>
      </contour>
      <contour>
        <pt x="164" y="332" on="1"/>
        <pt x="164" y="280" on="0"/>
        <pt x="192" y="197" on="0"/>
        <pt x="245" y="138" on="0"/>
        <pt x="321" y="106" on="0"/>
        <pt x="368" y="106" on="1"/>
        <pt x="371" y="106" on="1"/>
        <pt x="466" y="106" on="0"/>
        <pt x="575" y="226" on="0"/>
        <pt x="575" y="332" on="1"/>
        <pt x="575" y="437" on="0"/>
        <pt x="466" y="557" on="0"/>
        <pt x="371" y="557" on="1"/>
        <pt x="368" y="557" on="1"/>
        <pt x="273" y="557" on="0"/>
        <pt x="164" y="438" on="0"/>
      </contour>
    </TTGlyph>
    <TTGlyph name="Oacute" xMin="39" yMin="-10" xMax="700" yMax="923">
      <component glyphName="O" x="0" y="0" flags="0x204"/>
      <component glyphName="acute.cap" x="174" y="0" flags="0x4"/>
    </TTGlyph>
    <TTGlyph name="Obreve" xMin="39" yMin="-10" xMax="700" yMax="889">
      <component glyphName="O" x="0" y="0" flags="0x204"/>
      <component glyphName="breve.cap" x="164" y="0" flags="0x4"/>
    </TTGlyph>
    <TTGlyph name="Ocircumflex" xMin="39" yMin="-10" xMax="700" yMax="904">
      <component glyphName="O" x="0" y="0" flags="0x204"/>
      <component glyphName="circumflex.cap" x="165" y="0" flags="0x4"/>
    </TTGlyph>
    <TTGlyph name="Odieresis" xMin="39" yMin="-10" xMax="700" yMax="863">
      <component glyphName="O" x="0" y="0" flags="0x204"/>
      <component glyphName="dieresis.cap" x="164" y="0" flags="0x4"/>
    </TTGlyph>
    <TTGlyph name="Ograve" xMin="39" yMin="-10" xMax="700" yMax="923">
      <component glyphName="O" x="0" y="0" flags="0x204"/>
      <component glyphName="grave.cap" x="166" y="0" flags="0x4"/>
    </TTGlyph>
    <TTGlyph name="Ohungarumlaut" xMin="39" yMin="-10" xMax="700" yMax="957">
      <component glyphName="O" x="0" y="0" flags="0x204"/>
      <component glyphName="hungarumlaut.cap" x="184" y="0" flags="0x4"/>
    </TTGlyph>
    <TTGlyph name="Omacron" xMin="39" yMin="-10" xMax="700" yMax="854">
      <component glyphName="O" x="0" y="0" flags="0x204"/>
      <component glyphName="macron.cap" x="164" y="0" flags="0x4"/>
    </TTGlyph>
    <TTGlyph name="Omega" xMin="49" yMin="0" xMax="689" yMax="673">
      <contour>
        <pt x="326" y="0" on="1"/>
        <pt x="71" y="0" on="1"/>
        <pt x="71" y="98" on="1"/>
        <pt x="195" y="98" on="1"/>
        <pt x="175" y="121" on="1"/>
        <pt x="141" y="160" on="0"/>
        <pt x="93" y="231" on="0"/>
        <pt x="63" y="297" on="0"/>
        <pt x="49" y="362" on="0"/>
        <pt x="49" y="396" on="1"/>
        <pt x="49" y="459" on="0"/>
        <pt x="100" y="561" on="0"/>
        <pt x="188" y="634" on="0"/>
        <pt x="304" y="673" on="0"/>
        <pt x="369" y="673" on="1"/>
        <pt x="434" y="673" on="0"/>
        <pt x="550" y="634" on="0"/>
        <pt x="638" y="561" on="0"/>
        <pt x="689" y="459" on="0"/>
        <pt x="689" y="396" on="1"/>
        <pt x="689" y="362" on="0"/>
        <pt x="675" y="297" on="0"/>
        <pt x="645" y="231" on="0"/>
        <pt x="597" y="160" on="0"/>
        <pt x="563" y="121" on="1"/>
        <pt x="543" y="98" on="1"/>
        <pt x="667" y="98" on="1"/>
        <pt x="667" y="0" on="1"/>
        <pt x="412" y="0" on="1"/>
        <pt x="412" y="49" on="1"/>
        <pt x="412" y="58" on="0"/>
        <pt x="417" y="71" on="0"/>
        <pt x="424" y="82" on="1"/>
        <pt x="487" y="181" on="1"/>
        <pt x="522" y="235" on="0"/>
        <pt x="564" y="337" on="0"/>
        <pt x="564" y="391" on="1"/>
        <pt x="564" y="434" on="0"/>
        <pt x="533" y="498" on="0"/>
        <pt x="480" y="539" on="0"/>
        <pt x="409" y="559" on="0"/>
        <pt x="369" y="559" on="1"/>
        <pt x="329" y="559" on="0"/>
        <pt x="258" y="539" on="0"/>
        <pt x="205" y="497" on="0"/>
        <pt x="174" y="434" on="0"/>
        <pt x="174" y="391" on="1"/>
        <pt x="174" y="337" on="0"/>
        <pt x="216" y="235" on="0"/>
        <pt x="251" y="181" on="1"/>
        <pt x="314" y="82" on="1"/>
        <pt x="321" y="71" on="0"/>
        <pt x="326" y="58" on="0"/>
        <pt x="326" y="49" on="1"/>
      </contour>
    </TTGlyph>
    <TTGlyph name="Oslash" xMin="39" yMin="-46" xMax="700" yMax="714">
      <contour>
        <pt x="368" y="-10" on="1"/>
        <pt x="320" y="-10" on="0"/>
        <pt x="229" y="17" on="0"/>
        <pt x="189" y="43" on="1"/>
        <pt x="121" y="-46" on="1"/>
        <pt x="51" y="2" on="1"/>
        <pt x="124" y="98" on="1"/>
        <pt x="85" y="142" on="0"/>
        <pt x="39" y="260" on="0"/>
        <pt x="39" y="332" on="1"/>
        <pt x="39" y="411" on="0"/>
        <pt x="94" y="537" on="0"/>
        <pt x="185" y="625" on="0"/>
        <pt x="304" y="673" on="0"/>
        <pt x="368" y="673" on="1"/>
        <pt x="371" y="673" on="1"/>
        <pt x="413" y="673" on="0"/>
        <pt x="495" y="652" on="0"/>
        <pt x="531" y="632" on="1"/>
        <pt x="594" y="714" on="1"/>
        <pt x="664" y="666" on="1"/>
        <pt x="599" y="581" on="1"/>
        <pt x="645" y="536" on="0"/>
        <pt x="700" y="411" on="0"/>
        <pt x="700" y="332" on="1"/>
        <pt x="700" y="253" on="0"/>
        <pt x="645" y="127" on="0"/>
        <pt x="554" y="38" on="0"/>
        <pt x="435" y="-10" on="0"/>
        <pt x="371" y="-10" on="1"/>
      </contour>
      <contour>
        <pt x="575" y="332" on="1"/>
        <pt x="575" y="379" on="0"/>
        <pt x="551" y="459" on="0"/>
        <pt x="528" y="488" on="1"/>
        <pt x="258" y="135" on="1"/>
        <pt x="280" y="121" on="0"/>
        <pt x="336" y="106" on="0"/>
        <pt x="368" y="106" on="1"/>
        <pt x="371" y="106" on="1"/>
        <pt x="466" y="106" on="0"/>
        <pt x="575" y="226" on="0"/>
      </contour>
      <contour>
        <pt x="164" y="332" on="1"/>
        <pt x="164" y="289" on="0"/>
        <pt x="182" y="222" on="0"/>
        <pt x="198" y="195" on="1"/>
        <pt x="461" y="540" on="1"/>
        <pt x="422" y="557" on="0"/>
        <pt x="371" y="557" on="1"/>
        <pt x="368" y="557" on="1"/>
        <pt x="273" y="557" on="0"/>
        <pt x="164" y="438" on="0"/>
      </contour>
    </TTGlyph>
    <TTGlyph name="Oslashacute" xMin="39" yMin="-46" xMax="700" yMax="923">
      <component glyphName="Oslash" x="0" y="0" flags="0x204"/>
      <component glyphName="acute.cap" x="176" y="0" flags="0x4"/>
    </TTGlyph>
    <TTGlyph name="Otilde" xMin="39" yMin="-10" xMax="700" yMax="871">
      <component glyphName="O" x="0" y="0" flags="0x204"/>
      <component glyphName="tilde.cap" x="164" y="0" flags="0x4"/>
    </TTGlyph>
    <TTGlyph name="P" xMin="72" yMin="0" xMax="593" yMax="663">
      <contour>
        <pt x="192" y="0" on="1"/>
        <pt x="72" y="0" on="1"/>
        <pt x="72" y="663" on="1"/>
        <pt x="322" y="663" on="1"/>
        <pt x="400" y="663" on="0"/>
        <pt x="503" y="631" on="0"/>
        <pt x="538" y="596" on="1"/>
        <pt x="564" y="569" on="0"/>
        <pt x="593" y="490" on="0"/>
        <pt x="593" y="442" on="1"/>
        <pt x="593" y="389" on="0"/>
        <pt x="559" y="302" on="0"/>
        <pt x="526" y="272" on="1"/>
        <pt x="497" y="246" on="0"/>
        <pt x="422" y="218" on="0"/>
        <pt x="362" y="218" on="1"/>
        <pt x="192" y="218" on="1"/>
      </contour>
      <contour>
        <pt x="392" y="319" on="1"/>
        <pt x="412" y="319" on="0"/>
        <pt x="432" y="330" on="0"/>
        <pt x="441" y="341" on="1"/>
        <pt x="454" y="357" on="0"/>
        <pt x="470" y="412" on="0"/>
        <pt x="470" y="441" on="1"/>
        <pt x="470" y="472" on="0"/>
        <pt x="452" y="518" on="0"/>
        <pt x="438" y="532" on="1"/>
        <pt x="421" y="549" on="0"/>
        <pt x="367" y="560" on="0"/>
        <pt x="332" y="560" on="1"/>
        <pt x="192" y="560" on="1"/>
        <pt x="192" y="319" on="1"/>
      </contour>
    </TTGlyph>
    <TTGlyph name="Q" xMin="39" yMin="-178" xMax="700" yMax="673">
      <contour>
        <pt x="368" y="-10" on="1"/>
        <pt x="304" y="-10" on="0"/>
        <pt x="185" y="38" on="0"/>
        <pt x="94" y="127" on="0"/>
        <pt x="39" y="253" on="0"/>
        <pt x="39" y="332" on="1"/>
        <pt x="39" y="411" on="0"/>
        <pt x="94" y="537" on="0"/>
        <pt x="185" y="625" on="0"/>
        <pt x="304" y="673" on="0"/>
        <pt x="368" y="673" on="1"/>
        <pt x="371" y="673" on="1"/>
        <pt x="435" y="673" on="0"/>
        <pt x="554" y="625" on="0"/>
        <pt x="645" y="537" on="0"/>
        <pt x="700" y="411" on="0"/>
        <pt x="700" y="332" on="1"/>
        <pt x="700" y="280" on="0"/>
        <pt x="676" y="190" on="0"/>
        <pt x="633" y="115" on="0"/>
        <pt x="573" y="56" on="0"/>
        <pt x="538" y="35" on="1"/>
        <pt x="637" y="-135" on="1"/>
        <pt x="522" y="-178" on="1"/>
        <pt x="434" y="-4" on="1"/>
        <pt x="402" y="-10" on="0"/>
        <pt x="371" y="-10" on="1"/>
      </contour>
      <contour>
        <pt x="164" y="332" on="1"/>
        <pt x="164" y="280" on="0"/>
        <pt x="192" y="197" on="0"/>
        <pt x="245" y="138" on="0"/>
        <pt x="321" y="106" on="0"/>
        <pt x="368" y="106" on="1"/>
        <pt x="371" y="106" on="1"/>
        <pt x="466" y="106" on="0"/>
        <pt x="575" y="226" on="0"/>
        <pt x="575" y="332" on="1"/>
        <pt x="575" y="437" on="0"/>
        <pt x="466" y="557" on="0"/>
        <pt x="371" y="557" on="1"/>
        <pt x="368" y="557" on="1"/>
        <pt x="273" y="557" on="0"/>
        <pt x="164" y="438" on="0"/>
      </contour>
    </TTGlyph>
    <TTGlyph name="R" xMin="72" yMin="0" xMax="635" yMax="663">
      <contour>
        <pt x="376" y="218" on="1"/>
        <pt x="371" y="228" on="0"/>
        <pt x="362" y="231" on="0"/>
        <pt x="351" y="231" on="1"/>
        <pt x="192" y="231" on="1"/>
        <pt x="192" y="0" on="1"/>
        <pt x="72" y="0" on="1"/>
        <pt x="72" y="663" on="1"/>
        <pt x="321" y="663" on="1"/>
        <pt x="396" y="663" on="0"/>
        <pt x="501" y="636" on="0"/>
        <pt x="539" y="599" on="1"/>
        <pt x="564" y="574" on="0"/>
        <pt x="595" y="500" on="0"/>
        <pt x="595" y="449" on="1"/>
        <pt x="595" y="383" on="0"/>
        <pt x="534" y="285" on="0"/>
        <pt x="484" y="254" on="1"/>
        <pt x="635" y="0" on="1"/>
        <pt x="517" y="0" on="1"/>
        <pt x="508" y="0" on="0"/>
        <pt x="500" y="5" on="0"/>
        <pt x="495" y="13" on="1"/>
      </contour>
      <contour>
        <pt x="192" y="332" on="1"/>
        <pt x="392" y="332" on="1"/>
        <pt x="411" y="332" on="0"/>
        <pt x="433" y="340" on="0"/>
        <pt x="442" y="352" on="1"/>
        <pt x="472" y="392" on="0"/>
        <pt x="472" y="449" on="1"/>
        <pt x="472" y="478" on="0"/>
        <pt x="455" y="520" on="0"/>
        <pt x="441" y="533" on="1"/>
        <pt x="422" y="550" on="0"/>
        <pt x="368" y="560" on="0"/>
        <pt x="329" y="560" on="1"/>
        <pt x="192" y="560" on="1"/>
      </contour>
    </TTGlyph>
    <TTGlyph name="Racute" xMin="72" yMin="0" xMax="635" yMax="923">
      <component glyphName="R" x="0" y="0" flags="0x204"/>
      <component glyphName="acute.cap" x="137" y="0" flags="0x4"/>
    </TTGlyph>
    <TTGlyph name="Rcaron" xMin="72" yMin="0" xMax="635" yMax="914">
      <component glyphName="R" x="0" y="0" flags="0x204"/>
      <component glyphName="caron.cap" x="127" y="0" flags="0x4"/>
    </TTGlyph>
    <TTGlyph name="Rcommaaccent" xMin="72" yMin="-282" xMax="635" yMax="663">
      <component glyphName="R" x="0" y="0" flags="0x204"/>
      <component glyphName="commaaccent" x="104" y="0" flags="0x4"/>
    </TTGlyph>
    <TTGlyph name="S" xMin="35" yMin="-10" xMax="535" yMax="673">
      <contour>
        <pt x="63" y="128" on="1"/>
        <pt x="118" y="116" on="1"/>
        <pt x="170" y="105" on="0"/>
        <pt x="254" y="93" on="0"/>
        <pt x="289" y="93" on="1"/>
        <pt x="355" y="93" on="0"/>
        <pt x="424" y="144" on="0"/>
        <pt x="424" y="193" on="1"/>
        <pt x="424" y="212" on="0"/>
        <pt x="412" y="240" on="0"/>
        <pt x="386" y="261" on="0"/>
        <pt x="344" y="279" on="0"/>
        <pt x="314" y="288" on="1"/>
        <pt x="241" y="310" on="1"/>
        <pt x="147" y="339" on="0"/>
        <pt x="49" y="424" on="0"/>
        <pt x="49" y="496" on="1"/>
        <pt x="49" y="538" on="0"/>
        <pt x="85" y="604" on="0"/>
        <pt x="150" y="649" on="0"/>
        <pt x="240" y="673" on="0"/>
        <pt x="293" y="673" on="1"/>
        <pt x="343" y="673" on="0"/>
        <pt x="455" y="652" on="0"/>
        <pt x="507" y="632" on="1"/>
        <pt x="489" y="554" on="1"/>
        <pt x="445" y="559" on="1"/>
        <pt x="401" y="564" on="0"/>
        <pt x="324" y="570" on="0"/>
        <pt x="301" y="570" on="1"/>
        <pt x="231" y="570" on="0"/>
        <pt x="158" y="537" on="0"/>
        <pt x="158" y="498" on="1"/>
        <pt x="158" y="466" on="0"/>
        <pt x="213" y="430" on="0"/>
        <pt x="267" y="414" on="1"/>
        <pt x="325" y="397" on="1"/>
        <pt x="372" y="383" on="0"/>
        <pt x="449" y="350" on="0"/>
        <pt x="505" y="304" on="0"/>
        <pt x="535" y="239" on="0"/>
        <pt x="535" y="194" on="1"/>
        <pt x="535" y="151" on="0"/>
        <pt x="504" y="76" on="0"/>
        <pt x="443" y="21" on="0"/>
        <pt x="350" y="-10" on="0"/>
        <pt x="289" y="-10" on="1"/>
        <pt x="256" y="-10" on="0"/>
        <pt x="186" y="0" on="0"/>
        <pt x="119" y="18" on="0"/>
        <pt x="58" y="41" on="0"/>
        <pt x="35" y="54" on="1"/>
      </contour>
    </TTGlyph>
    <TTGlyph name="Sacute" xMin="35" yMin="-10" xMax="535" yMax="923">
      <component glyphName="S" x="0" y="0" flags="0x204"/>
      <component glyphName="acute.cap" x="95" y="0" flags="0x4"/>
    </TTGlyph>
    <TTGlyph name="Scaron" xMin="35" yMin="-10" xMax="535" yMax="914">
      <component glyphName="S" x="0" y="0" flags="0x204"/>
      <component glyphName="caron.cap" x="96" y="0" flags="0x4"/>
    </TTGlyph>
    <TTGlyph name="Scedilla" xMin="35" yMin="-240" xMax="535" yMax="673">
      <contour>
        <pt x="63" y="128" on="1"/>
        <pt x="118" y="116" on="1"/>
        <pt x="170" y="105" on="0"/>
        <pt x="254" y="93" on="0"/>
        <pt x="289" y="93" on="1"/>
        <pt x="355" y="93" on="0"/>
        <pt x="424" y="144" on="0"/>
        <pt x="424" y="193" on="1"/>
        <pt x="424" y="212" on="0"/>
        <pt x="412" y="240" on="0"/>
        <pt x="386" y="261" on="0"/>
        <pt x="344" y="279" on="0"/>
        <pt x="314" y="288" on="1"/>
        <pt x="241" y="310" on="1"/>
        <pt x="147" y="339" on="0"/>
        <pt x="49" y="424" on="0"/>
        <pt x="49" y="496" on="1"/>
        <pt x="49" y="538" on="0"/>
        <pt x="85" y="604" on="0"/>
        <pt x="150" y="649" on="0"/>
        <pt x="240" y="673" on="0"/>
        <pt x="293" y="673" on="1"/>
        <pt x="343" y="673" on="0"/>
        <pt x="455" y="652" on="0"/>
        <pt x="507" y="632" on="1"/>
        <pt x="489" y="554" on="1"/>
        <pt x="445" y="559" on="1"/>
        <pt x="401" y="564" on="0"/>
        <pt x="324" y="570" on="0"/>
        <pt x="301" y="570" on="1"/>
        <pt x="231" y="570" on="0"/>
        <pt x="158" y="537" on="0"/>
        <pt x="158" y="498" on="1"/>
        <pt x="158" y="466" on="0"/>
        <pt x="213" y="430" on="0"/>
        <pt x="267" y="414" on="1"/>
        <pt x="325" y="397" on="1"/>
        <pt x="372" y="383" on="0"/>
        <pt x="449" y="350" on="0"/>
        <pt x="505" y="304" on="0"/>
        <pt x="535" y="239" on="0"/>
        <pt x="535" y="194" on="1"/>
        <pt x="535" y="153" on="0"/>
        <pt x="507" y="81" on="0"/>
        <pt x="451" y="27" on="0"/>
        <pt x="367" y="-6" on="0"/>
        <pt x="311" y="-9" on="1"/>
        <pt x="305" y="-18" on="0"/>
        <pt x="298" y="-33" on="0"/>
        <pt x="298" y="-41" on="1"/>
        <pt x="298" y="-51" on="0"/>
        <pt x="332" y="-62" on="0"/>
        <pt x="374" y="-79" on="0"/>
        <pt x="408" y="-108" on="0"/>
        <pt x="408" y="-136" on="1"/>
        <pt x="408" y="-182" on="0"/>
        <pt x="317" y="-240" on="0"/>
        <pt x="226" y="-240" on="1"/>
        <pt x="214" y="-178" on="1"/>
        <pt x="273" y="-167" on="1"/>
        <pt x="295" y="-162" on="0"/>
        <pt x="310" y="-150" on="0"/>
        <pt x="310" y="-143" on="1"/>
        <pt x="310" y="-134" on="0"/>
        <pt x="279" y="-123" on="0"/>
        <pt x="241" y="-109" on="0"/>
        <pt x="210" y="-88" on="0"/>
        <pt x="210" y="-68" on="1"/>
        <pt x="210" y="-54" on="0"/>
        <pt x="229" y="-23" on="0"/>
        <pt x="243" y="-7" on="1"/>
        <pt x="186" y="-2" on="0"/>
        <pt x="73" y="32" on="0"/>
        <pt x="35" y="54" on="1"/>
      </contour>
    </TTGlyph>
    <TTGlyph name="Scircumflex" xMin="35" yMin="-10" xMax="535" yMax="904">
      <component glyphName="S" x="0" y="0" flags="0x204"/>
      <component glyphName="circumflex.cap" x="97" y="0" flags="0x4"/>
    </TTGlyph>
    <TTGlyph name="Scommaaccent" xMin="35" yMin="-282" xMax="535" yMax="673">
      <component glyphName="S" x="0" y="0" flags="0x204"/>
      <component glyphName="commaaccent" x="82" y="0" flags="0x4"/>
    </TTGlyph>
    <TTGlyph name="T" xMin="18" yMin="0" xMax="580" yMax="663">
      <contour>
        <pt x="359" y="0" on="1"/>
        <pt x="239" y="0" on="1"/>
        <pt x="239" y="561" on="1"/>
        <pt x="18" y="561" on="1"/>
        <pt x="18" y="663" on="1"/>
        <pt x="580" y="663" on="1"/>
        <pt x="580" y="561" on="1"/>
        <pt x="359" y="561" on="1"/>
      </contour>
    </TTGlyph>
    <TTGlyph name="Tbar" xMin="18" yMin="0" xMax="580" yMax="663">
      <contour>
        <pt x="99" y="288" on="1"/>
        <pt x="99" y="377" on="1"/>
        <pt x="239" y="377" on="1"/>
        <pt x="239" y="561" on="1"/>
        <pt x="18" y="561" on="1"/>
        <pt x="18" y="663" on="1"/>
        <pt x="580" y="663" on="1"/>
        <pt x="580" y="561" on="1"/>
        <pt x="359" y="561" on="1"/>
        <pt x="359" y="377" on="1"/>
        <pt x="499" y="377" on="1"/>
        <pt x="499" y="288" on="1"/>
        <pt x="359" y="288" on="1"/>
        <pt x="359" y="0" on="1"/>
        <pt x="239" y="0" on="1"/>
        <pt x="239" y="288" on="1"/>
      </contour>
    </TTGlyph>
    <TTGlyph name="Tcaron" xMin="18" yMin="0" xMax="580" yMax="914">
      <component glyphName="T" x="0" y="0" flags="0x204"/>
      <component glyphName="caron.cap" x="96" y="0" flags="0x4"/>
    </TTGlyph>
    <TTGlyph name="Tcommaaccent" xMin="18" yMin="-282" xMax="580" yMax="663">
      <component glyphName="T" x="0" y="0" flags="0x204"/>
      <component glyphName="commaaccent" x="88" y="0" flags="0x4"/>
    </TTGlyph>
    <TTGlyph name="Thorn" xMin="72" yMin="0" xMax="589" yMax="663">
      <contour>
        <pt x="589" y="336" on="1"/>
        <pt x="589" y="283" on="0"/>
        <pt x="555" y="196" on="0"/>
        <pt x="522" y="166" on="1"/>
        <pt x="493" y="140" on="0"/>
        <pt x="417" y="112" on="0"/>
        <pt x="356" y="112" on="1"/>
        <pt x="192" y="112" on="1"/>
        <pt x="192" y="0" on="1"/>
        <pt x="72" y="0" on="1"/>
        <pt x="72" y="663" on="1"/>
        <pt x="192" y="663" on="1"/>
        <pt x="192" y="557" on="1"/>
        <pt x="318" y="557" on="1"/>
        <pt x="396" y="557" on="0"/>
        <pt x="499" y="525" on="0"/>
        <pt x="534" y="490" on="1"/>
        <pt x="560" y="463" on="0"/>
        <pt x="589" y="384" on="0"/>
      </contour>
      <contour>
        <pt x="388" y="214" on="1"/>
        <pt x="408" y="214" on="0"/>
        <pt x="428" y="225" on="0"/>
        <pt x="437" y="236" on="1"/>
        <pt x="450" y="252" on="0"/>
        <pt x="466" y="306" on="0"/>
        <pt x="466" y="335" on="1"/>
        <pt x="466" y="366" on="0"/>
        <pt x="448" y="412" on="0"/>
        <pt x="434" y="426" on="1"/>
        <pt x="417" y="443" on="0"/>
        <pt x="363" y="454" on="0"/>
        <pt x="328" y="454" on="1"/>
        <pt x="192" y="454" on="1"/>
        <pt x="192" y="214" on="1"/>
      </contour>
    </TTGlyph>
    <TTGlyph name="U" xMin="66" yMin="-10" xMax="637" yMax="663">
      <contour>
        <pt x="637" y="271" on="1"/>
        <pt x="637" y="201" on="0"/>
        <pt x="605" y="107" on="0"/>
        <pt x="571" y="72" on="1"/>
        <pt x="533" y="32" on="0"/>
        <pt x="417" y="-10" on="0"/>
        <pt x="351" y="-10" on="1"/>
        <pt x="285" y="-10" on="0"/>
        <pt x="170" y="32" on="0"/>
        <pt x="132" y="72" on="1"/>
        <pt x="98" y="107" on="0"/>
        <pt x="66" y="201" on="0"/>
        <pt x="66" y="271" on="1"/>
        <pt x="66" y="663" on="1"/>
        <pt x="186" y="663" on="1"/>
        <pt x="186" y="284" on="1"/>
        <pt x="186" y="231" on="0"/>
        <pt x="200" y="167" on="0"/>
        <pt x="224" y="144" on="1"/>
        <pt x="234" y="134" on="0"/>
        <pt x="263" y="119" on="0"/>
        <pt x="298" y="108" on="0"/>
        <pt x="335" y="103" on="0"/>
        <pt x="353" y="103" on="1"/>
        <pt x="371" y="103" on="0"/>
        <pt x="408" y="108" on="0"/>
        <pt x="443" y="119" on="0"/>
        <pt x="472" y="134" on="0"/>
        <pt x="482" y="144" on="1"/>
        <pt x="506" y="167" on="0"/>
        <pt x="520" y="231" on="0"/>
        <pt x="520" y="284" on="1"/>
        <pt x="520" y="663" on="1"/>
        <pt x="637" y="663" on="1"/>
      </contour>
    </TTGlyph>
    <TTGlyph name="Uacute" xMin="66" yMin="-10" xMax="637" yMax="923">
      <component glyphName="U" x="0" y="0" flags="0x204"/>
      <component glyphName="acute.cap" x="185" y="0" flags="0x4"/>
    </TTGlyph>
    <TTGlyph name="Ubreve" xMin="66" yMin="-10" xMax="637" yMax="877">
      <component glyphName="U" x="0" y="0" flags="0x204"/>
      <component glyphName="breve.cap" x="146" y="-12" flags="0x4"/>
    </TTGlyph>
    <TTGlyph name="Ucircumflex" xMin="66" yMin="-10" xMax="637" yMax="904">
      <component glyphName="U" x="0" y="0" flags="0x204"/>
      <component glyphName="circumflex.cap" x="149" y="0" flags="0x4"/>
    </TTGlyph>
    <TTGlyph name="Udieresis" xMin="66" yMin="-10" xMax="637" yMax="863">
      <component glyphName="U" x="0" y="0" flags="0x204"/>
      <component glyphName="dieresis.cap" x="146" y="0" flags="0x4"/>
    </TTGlyph>
    <TTGlyph name="Ugrave" xMin="66" yMin="-10" xMax="637" yMax="923">
      <component glyphName="U" x="0" y="0" flags="0x204"/>
      <component glyphName="grave.cap" x="127" y="0" flags="0x4"/>
    </TTGlyph>
    <TTGlyph name="Uhungarumlaut" xMin="66" yMin="-10" xMax="637" yMax="957">
      <component glyphName="U" x="0" y="0" flags="0x204"/>
      <component glyphName="hungarumlaut.cap" x="191" y="0" flags="0x4"/>
    </TTGlyph>
    <TTGlyph name="Umacron" xMin="66" yMin="-10" xMax="637" yMax="854">
      <component glyphName="U" x="0" y="0" flags="0x204"/>
      <component glyphName="macron.cap" x="146" y="0" flags="0x4"/>
    </TTGlyph>
    <TTGlyph name="Uogonek" xMin="66" yMin="-218" xMax="637" yMax="663">
      <contour>
        <pt x="520" y="663" on="1"/>
        <pt x="637" y="663" on="1"/>
        <pt x="637" y="269" on="1"/>
        <pt x="637" y="224" on="0"/>
        <pt x="622" y="149" on="0"/>
        <pt x="588" y="87" on="0"/>
        <pt x="530" y="37" on="0"/>
        <pt x="488" y="17" on="1"/>
        <pt x="450" y="-1" on="1"/>
        <pt x="412" y="-19" on="0"/>
        <pt x="368" y="-63" on="0"/>
        <pt x="368" y="-92" on="1"/>
        <pt x="368" y="-115" on="0"/>
        <pt x="399" y="-140" on="0"/>
        <pt x="422" y="-140" on="1"/>
        <pt x="430" y="-140" on="0"/>
        <pt x="454" y="-138" on="0"/>
        <pt x="464" y="-136" on="1"/>
        <pt x="489" y="-132" on="1"/>
        <pt x="508" y="-192" on="1"/>
        <pt x="453" y="-218" on="0"/>
        <pt x="404" y="-218" on="1"/>
        <pt x="375" y="-218" on="0"/>
        <pt x="327" y="-202" on="0"/>
        <pt x="293" y="-175" on="0"/>
        <pt x="273" y="-138" on="0"/>
        <pt x="273" y="-116" on="1"/>
        <pt x="273" y="-84" on="0"/>
        <pt x="305" y="-31" on="0"/>
        <pt x="333" y="-9" on="1"/>
        <pt x="273" y="-7" on="0"/>
        <pt x="167" y="34" on="0"/>
        <pt x="132" y="72" on="1"/>
        <pt x="98" y="107" on="0"/>
        <pt x="66" y="201" on="0"/>
        <pt x="66" y="271" on="1"/>
        <pt x="66" y="663" on="1"/>
        <pt x="186" y="663" on="1"/>
        <pt x="186" y="284" on="1"/>
        <pt x="186" y="231" on="0"/>
        <pt x="200" y="167" on="0"/>
        <pt x="224" y="144" on="1"/>
        <pt x="234" y="134" on="0"/>
        <pt x="263" y="119" on="0"/>
        <pt x="298" y="108" on="0"/>
        <pt x="335" y="103" on="0"/>
        <pt x="353" y="103" on="1"/>
        <pt x="371" y="103" on="0"/>
        <pt x="408" y="108" on="0"/>
        <pt x="443" y="119" on="0"/>
        <pt x="472" y="134" on="0"/>
        <pt x="482" y="144" on="1"/>
        <pt x="506" y="167" on="0"/>
        <pt x="520" y="231" on="0"/>
        <pt x="520" y="284" on="1"/>
      </contour>
    </TTGlyph>
    <TTGlyph name="Uring" xMin="66" yMin="-10" xMax="637" yMax="950">
      <component glyphName="U" x="0" y="0" flags="0x204"/>
      <component glyphName="ring.cap" x="146" y="-12" flags="0x4"/>
    </TTGlyph>
    <TTGlyph name="Utilde" xMin="66" yMin="-10" xMax="637" yMax="871">
      <component glyphName="U" x="0" y="0" flags="0x204"/>
      <component glyphName="tilde.cap" x="150" y="0" flags="0x4"/>
    </TTGlyph>
    <TTGlyph name="V" xMin="14" yMin="0" xMax="656" yMax="663">
      <contour>
        <pt x="656" y="663" on="1"/>
        <pt x="410" y="0" on="1"/>
        <pt x="283" y="0" on="1"/>
        <pt x="269" y="0" on="0"/>
        <pt x="263" y="14" on="1"/>
        <pt x="14" y="663" on="1"/>
        <pt x="130" y="663" on="1"/>
        <pt x="135" y="663" on="0"/>
        <pt x="141" y="660" on="0"/>
        <pt x="143" y="654" on="1"/>
        <pt x="261" y="347" on="1"/>
        <pt x="272" y="318" on="0"/>
        <pt x="295" y="250" on="0"/>
        <pt x="316" y="183" on="0"/>
        <pt x="334" y="125" on="0"/>
        <pt x="339" y="106" on="1"/>
        <pt x="341" y="106" on="1"/>
        <pt x="346" y="124" on="0"/>
        <pt x="363" y="182" on="0"/>
        <pt x="383" y="248" on="0"/>
        <pt x="405" y="315" on="0"/>
        <pt x="415" y="342" on="1"/>
        <pt x="529" y="654" on="1"/>
        <pt x="531" y="660" on="0"/>
        <pt x="537" y="663" on="0"/>
        <pt x="542" y="663" on="1"/>
      </contour>
    </TTGlyph>
    <TTGlyph name="W" xMin="13" yMin="0" xMax="998" yMax="663">
      <contour>
        <pt x="664" y="0" on="1"/>
        <pt x="648" y="0" on="0"/>
        <pt x="644" y="14" on="1"/>
        <pt x="571" y="244" on="1"/>
        <pt x="561" y="275" on="0"/>
        <pt x="540" y="346" on="0"/>
        <pt x="521" y="414" on="0"/>
        <pt x="506" y="471" on="0"/>
        <pt x="502" y="489" on="1"/>
        <pt x="501" y="489" on="1"/>
        <pt x="498" y="471" on="0"/>
        <pt x="484" y="413" on="0"/>
        <pt x="466" y="346" on="0"/>
        <pt x="446" y="275" on="0"/>
        <pt x="437" y="245" on="1"/>
        <pt x="365" y="0" on="1"/>
        <pt x="241" y="0" on="1"/>
        <pt x="225" y="0" on="0"/>
        <pt x="221" y="14" on="1"/>
        <pt x="13" y="663" on="1"/>
        <pt x="126" y="663" on="1"/>
        <pt x="137" y="663" on="0"/>
        <pt x="140" y="654" on="1"/>
        <pt x="229" y="372" on="1"/>
        <pt x="238" y="341" on="0"/>
        <pt x="257" y="275" on="0"/>
        <pt x="275" y="209" on="0"/>
        <pt x="292" y="148" on="0"/>
        <pt x="298" y="123" on="1"/>
        <pt x="299" y="123" on="1"/>
        <pt x="303" y="145" on="0"/>
        <pt x="316" y="205" on="0"/>
        <pt x="332" y="271" on="0"/>
        <pt x="350" y="339" on="0"/>
        <pt x="359" y="371" on="1"/>
        <pt x="446" y="663" on="1"/>
        <pt x="550" y="663" on="1"/>
        <pt x="557" y="663" on="0"/>
        <pt x="561" y="659" on="0"/>
        <pt x="563" y="654" on="1"/>
        <pt x="652" y="370" on="1"/>
        <pt x="662" y="339" on="0"/>
        <pt x="681" y="272" on="0"/>
        <pt x="699" y="207" on="0"/>
        <pt x="714" y="147" on="0"/>
        <pt x="720" y="123" on="1"/>
        <pt x="721" y="123" on="1"/>
        <pt x="731" y="172" on="0"/>
        <pt x="765" y="303" on="0"/>
        <pt x="785" y="369" on="1"/>
        <pt x="877" y="654" on="1"/>
        <pt x="879" y="660" on="0"/>
        <pt x="885" y="663" on="0"/>
        <pt x="890" y="663" on="1"/>
        <pt x="998" y="663" on="1"/>
        <pt x="787" y="0" on="1"/>
      </contour>
    </TTGlyph>
    <TTGlyph name="Wacute" xMin="13" yMin="0" xMax="998" yMax="923">
      <component glyphName="W" x="0" y="0" flags="0x204"/>
      <component glyphName="acute.cap" x="310" y="0" flags="0x4"/>
    </TTGlyph>
    <TTGlyph name="Wcircumflex" xMin="13" yMin="0" xMax="998" yMax="904">
      <component glyphName="W" x="0" y="0" flags="0x204"/>
      <component glyphName="circumflex.cap" x="301" y="0" flags="0x4"/>
    </TTGlyph>
    <TTGlyph name="Wdieresis" xMin="13" yMin="0" xMax="998" yMax="863">
      <component glyphName="W" x="0" y="0" flags="0x204"/>
      <component glyphName="dieresis.cap" x="300" y="0" flags="0x4"/>
    </TTGlyph>
    <TTGlyph name="Wgrave" xMin="13" yMin="0" xMax="998" yMax="923">
      <component glyphName="W" x="0" y="0" flags="0x204"/>
      <component glyphName="grave.cap" x="302" y="0" flags="0x4"/>
    </TTGlyph>
    <TTGlyph name="X" xMin="6" yMin="0" xMax="653" yMax="663">
      <contour>
        <pt x="394" y="346" on="1"/>
        <pt x="653" y="0" on="1"/>
        <pt x="527" y="0" on="1"/>
        <pt x="520" y="0" on="0"/>
        <pt x="513" y="3" on="0"/>
        <pt x="508" y="9" on="1"/>
        <pt x="321" y="264" on="1"/>
        <pt x="142" y="9" on="1"/>
        <pt x="136" y="0" on="0"/>
        <pt x="122" y="0" on="1"/>
        <pt x="6" y="0" on="1"/>
        <pt x="250" y="345" on="1"/>
        <pt x="10" y="663" on="1"/>
        <pt x="134" y="663" on="1"/>
        <pt x="142" y="663" on="0"/>
        <pt x="150" y="660" on="0"/>
        <pt x="155" y="654" on="1"/>
        <pt x="324" y="427" on="1"/>
        <pt x="486" y="654" on="1"/>
        <pt x="492" y="663" on="0"/>
        <pt x="505" y="663" on="1"/>
        <pt x="620" y="663" on="1"/>
      </contour>
    </TTGlyph>
    <TTGlyph name="Y" xMin="4" yMin="0" xMax="647" yMax="663">
      <contour>
        <pt x="387" y="216" on="1"/>
        <pt x="387" y="0" on="1"/>
        <pt x="267" y="0" on="1"/>
        <pt x="267" y="216" on="1"/>
        <pt x="4" y="663" on="1"/>
        <pt x="124" y="663" on="1"/>
        <pt x="135" y="663" on="0"/>
        <pt x="140" y="654" on="1"/>
        <pt x="237" y="485" on="1"/>
        <pt x="248" y="466" on="0"/>
        <pt x="272" y="421" on="0"/>
        <pt x="296" y="376" on="0"/>
        <pt x="318" y="332" on="0"/>
        <pt x="327" y="313" on="1"/>
        <pt x="329" y="313" on="1"/>
        <pt x="337" y="331" on="0"/>
        <pt x="360" y="374" on="0"/>
        <pt x="384" y="420" on="0"/>
        <pt x="410" y="466" on="0"/>
        <pt x="421" y="486" on="1"/>
        <pt x="517" y="654" on="1"/>
        <pt x="522" y="663" on="0"/>
        <pt x="533" y="663" on="1"/>
        <pt x="647" y="663" on="1"/>
      </contour>
    </TTGlyph>
    <TTGlyph name="Yacute" xMin="4" yMin="0" xMax="647" yMax="923">
      <component glyphName="Y" x="0" y="0" flags="0x204"/>
      <component glyphName="acute.cap" x="159" y="0" flags="0x4"/>
    </TTGlyph>
    <TTGlyph name="Ycircumflex" xMin="4" yMin="0" xMax="647" yMax="904">
      <component glyphName="Y" x="0" y="0" flags="0x204"/>
      <component glyphName="circumflex.cap" x="121" y="0" flags="0x4"/>
    </TTGlyph>
    <TTGlyph name="Ydieresis" xMin="4" yMin="0" xMax="647" yMax="863">
      <component glyphName="Y" x="0" y="0" flags="0x204"/>
      <component glyphName="dieresis.cap" x="120" y="0" flags="0x4"/>
    </TTGlyph>
    <TTGlyph name="Ygrave" xMin="4" yMin="0" xMax="647" yMax="923">
      <component glyphName="Y" x="0" y="0" flags="0x204"/>
      <component glyphName="grave.cap" x="84" y="0" flags="0x4"/>
    </TTGlyph>
    <TTGlyph name="Z" xMin="49" yMin="0" xMax="553" yMax="663">
      <contour>
        <pt x="49" y="561" on="1"/>
        <pt x="49" y="663" on="1"/>
        <pt x="549" y="663" on="1"/>
        <pt x="549" y="598" on="1"/>
        <pt x="549" y="589" on="0"/>
        <pt x="543" y="575" on="0"/>
        <pt x="537" y="566" on="1"/>
        <pt x="306" y="251" on="1"/>
        <pt x="280" y="216" on="0"/>
        <pt x="222" y="136" on="0"/>
        <pt x="196" y="102" on="1"/>
        <pt x="553" y="102" on="1"/>
        <pt x="553" y="0" on="1"/>
        <pt x="54" y="0" on="1"/>
        <pt x="54" y="64" on="1"/>
        <pt x="54" y="73" on="0"/>
        <pt x="59" y="86" on="0"/>
        <pt x="66" y="97" on="1"/>
        <pt x="297" y="412" on="1"/>
        <pt x="332" y="460" on="0"/>
        <pt x="389" y="535" on="0"/>
        <pt x="409" y="561" on="1"/>
      </contour>
    </TTGlyph>
    <TTGlyph name="Zacute" xMin="49" yMin="0" xMax="553" yMax="923">
      <component glyphName="Z" x="0" y="0" flags="0x204"/>
      <component glyphName="acute.cap" x="108" y="0" flags="0x4"/>
    </TTGlyph>
    <TTGlyph name="Zcaron" xMin="49" yMin="0" xMax="553" yMax="914">
      <component glyphName="Z" x="0" y="0" flags="0x204"/>
      <component glyphName="caron.cap" x="102" y="0" flags="0x4"/>
    </TTGlyph>
    <TTGlyph name="Zdotaccent" xMin="49" yMin="0" xMax="553" yMax="847">
      <component glyphName="Z" x="0" y="0" flags="0x204"/>
      <component glyphName="dotaccent.cap" x="99" y="0" flags="0x4"/>
    </TTGlyph>
    <TTGlyph name="a" xMin="34" yMin="-8" xMax="530" yMax="496">
      <contour>
        <pt x="353" y="317" on="1"/>
        <pt x="353" y="354" on="0"/>
        <pt x="335" y="372" on="1"/>
        <pt x="313" y="394" on="0"/>
        <pt x="263" y="394" on="1"/>
        <pt x="236" y="394" on="0"/>
        <pt x="176" y="383" on="0"/>
        <pt x="145" y="373" on="1"/>
        <pt x="95" y="357" on="1"/>
        <pt x="61" y="419" on="1"/>
        <pt x="107" y="454" on="0"/>
        <pt x="216" y="496" on="0"/>
        <pt x="271" y="496" on="1"/>
        <pt x="320" y="496" on="0"/>
        <pt x="398" y="467" on="0"/>
        <pt x="424" y="438" on="1"/>
        <pt x="444" y="416" on="0"/>
        <pt x="466" y="357" on="0"/>
        <pt x="466" y="313" on="1"/>
        <pt x="466" y="91" on="1"/>
        <pt x="530" y="79" on="1"/>
        <pt x="530" y="18" on="1"/>
        <pt x="513" y="10" on="0"/>
        <pt x="465" y="-2" on="0"/>
        <pt x="446" y="-2" on="1"/>
        <pt x="419" y="-2" on="0"/>
        <pt x="380" y="22" on="0"/>
        <pt x="365" y="42" on="1"/>
        <pt x="341" y="29" on="1"/>
        <pt x="305" y="9" on="0"/>
        <pt x="240" y="-8" on="0"/>
        <pt x="211" y="-8" on="1"/>
        <pt x="172" y="-8" on="0"/>
        <pt x="107" y="18" on="0"/>
        <pt x="60" y="63" on="0"/>
        <pt x="34" y="123" on="0"/>
        <pt x="34" y="157" on="1"/>
        <pt x="34" y="220" on="0"/>
        <pt x="123" y="293" on="0"/>
        <pt x="206" y="293" on="1"/>
        <pt x="213" y="293" on="1"/>
        <pt x="228" y="293" on="0"/>
        <pt x="265" y="291" on="0"/>
        <pt x="302" y="287" on="0"/>
        <pt x="338" y="282" on="0"/>
        <pt x="353" y="279" on="1"/>
      </contour>
      <contour>
        <pt x="353" y="197" on="1"/>
        <pt x="353" y="203" on="0"/>
        <pt x="348" y="207" on="0"/>
        <pt x="340" y="207" on="1"/>
        <pt x="188" y="207" on="1"/>
        <pt x="164" y="207" on="0"/>
        <pt x="154" y="195" on="1"/>
        <pt x="144" y="184" on="0"/>
        <pt x="144" y="161" on="1"/>
        <pt x="144" y="130" on="0"/>
        <pt x="187" y="89" on="0"/>
        <pt x="231" y="89" on="1"/>
        <pt x="254" y="89" on="0"/>
        <pt x="314" y="101" on="0"/>
        <pt x="341" y="112" on="1"/>
        <pt x="349" y="116" on="0"/>
        <pt x="353" y="123" on="0"/>
        <pt x="353" y="128" on="1"/>
      </contour>
    </TTGlyph>
    <TTGlyph name="aacute" xMin="34" yMin="-8" xMax="530" yMax="743">
      <component glyphName="a" x="0" y="0" flags="0x204"/>
      <component glyphName="acute" x="75" y="0" flags="0x4"/>
    </TTGlyph>
    <TTGlyph name="abreve" xMin="34" yMin="-8" xMax="530" yMax="709">
      <component glyphName="a" x="0" y="0" flags="0x204"/>
      <component glyphName="breve" x="70" y="0" flags="0x4"/>
    </TTGlyph>
    <TTGlyph name="acaron" xMin="34" yMin="-8" xMax="530" yMax="734">
      <component glyphName="a" x="0" y="0" flags="0x204"/>
      <component glyphName="caron" x="68" y="0" flags="0x4"/>
    </TTGlyph>
    <TTGlyph name="acircumflex" xMin="34" yMin="-8" xMax="530" yMax="724">
      <component glyphName="a" x="0" y="0" flags="0x204"/>
      <component glyphName="circumflex" x="68" y="0" flags="0x4"/>
    </TTGlyph>
    <TTGlyph name="acute" xMin="75" yMin="540" xMax="334" yMax="743">
      <contour>
        <pt x="114" y="540" on="1"/>
        <pt x="75" y="593" on="1"/>
        <pt x="260" y="731" on="1"/>
        <pt x="277" y="743" on="0"/>
        <pt x="287" y="727" on="1"/>
        <pt x="334" y="658" on="1"/>
      </contour>
    </TTGlyph>
    <TTGlyph name="acute.cap" xMin="75" yMin="720" xMax="334" yMax="923">
      <contour>
        <pt x="114" y="720" on="1"/>
        <pt x="75" y="773" on="1"/>
        <pt x="260" y="911" on="1"/>
        <pt x="277" y="923" on="0"/>
        <pt x="287" y="907" on="1"/>
        <pt x="334" y="838" on="1"/>
      </contour>
    </TTGlyph>
    <TTGlyph name="adieresis" xMin="34" yMin="-8" xMax="530" yMax="683">
      <component glyphName="a" x="0" y="0" flags="0x204"/>
      <component glyphName="dieresis" x="68" y="0" flags="0x4"/>
    </TTGlyph>
    <TTGlyph name="ae" xMin="36" yMin="-8" xMax="824" yMax="496">
      <contour>
        <pt x="246" y="89" on="1"/>
        <pt x="275" y="89" on="0"/>
        <pt x="347" y="107" on="0"/>
        <pt x="375" y="124" on="1"/>
        <pt x="356" y="165" on="0"/>
        <pt x="352" y="209" on="1"/>
        <pt x="198" y="209" on="1"/>
        <pt x="181" y="209" on="0"/>
        <pt x="162" y="201" on="0"/>
        <pt x="156" y="193" on="1"/>
        <pt x="147" y="181" on="0"/>
        <pt x="147" y="161" on="1"/>
        <pt x="147" y="131" on="0"/>
        <pt x="198" y="89" on="0"/>
      </contour>
      <contour>
        <pt x="710" y="291" on="1"/>
        <pt x="706" y="335" on="0"/>
        <pt x="647" y="397" on="0"/>
        <pt x="589" y="397" on="1"/>
        <pt x="588" y="397" on="1"/>
        <pt x="530" y="397" on="0"/>
        <pt x="472" y="336" on="0"/>
        <pt x="467" y="291" on="1"/>
      </contour>
      <contour>
        <pt x="271" y="496" on="1"/>
        <pt x="316" y="496" on="0"/>
        <pt x="397" y="466" on="0"/>
        <pt x="426" y="431" on="1"/>
        <pt x="458" y="462" on="0"/>
        <pt x="541" y="496" on="0"/>
        <pt x="587" y="496" on="1"/>
        <pt x="589" y="496" on="1"/>
        <pt x="640" y="496" on="0"/>
        <pt x="727" y="459" on="0"/>
        <pt x="789" y="396" on="0"/>
        <pt x="824" y="311" on="0"/>
        <pt x="824" y="262" on="1"/>
        <pt x="824" y="254" on="0"/>
        <pt x="822" y="230" on="0"/>
        <pt x="820" y="221" on="1"/>
        <pt x="818" y="213" on="0"/>
        <pt x="810" y="209" on="0"/>
        <pt x="802" y="209" on="1"/>
        <pt x="466" y="209" on="1"/>
        <pt x="471" y="159" on="0"/>
        <pt x="535" y="92" on="0"/>
        <pt x="600" y="92" on="1"/>
        <pt x="630" y="92" on="0"/>
        <pt x="689" y="106" on="0"/>
        <pt x="721" y="118" on="1"/>
        <pt x="775" y="139" on="1"/>
        <pt x="812" y="76" on="1"/>
        <pt x="767" y="39" on="0"/>
        <pt x="655" y="-8" on="0"/>
        <pt x="597" y="-8" on="1"/>
        <pt x="594" y="-8" on="1"/>
        <pt x="540" y="-8" on="0"/>
        <pt x="453" y="26" on="0"/>
        <pt x="422" y="58" on="1"/>
        <pt x="389" y="38" on="1"/>
        <pt x="354" y="16" on="0"/>
        <pt x="269" y="-8" on="0"/>
        <pt x="227" y="-8" on="1"/>
        <pt x="190" y="-8" on="0"/>
        <pt x="121" y="15" on="0"/>
        <pt x="68" y="58" on="0"/>
        <pt x="36" y="120" on="0"/>
        <pt x="36" y="158" on="1"/>
        <pt x="36" y="191" on="0"/>
        <pt x="62" y="242" on="0"/>
        <pt x="107" y="278" on="0"/>
        <pt x="170" y="296" on="0"/>
        <pt x="208" y="296" on="1"/>
        <pt x="215" y="296" on="1"/>
        <pt x="246" y="296" on="0"/>
        <pt x="324" y="288" on="0"/>
        <pt x="353" y="282" on="1"/>
        <pt x="353" y="317" on="1"/>
        <pt x="353" y="354" on="0"/>
        <pt x="335" y="372" on="1"/>
        <pt x="313" y="394" on="0"/>
        <pt x="263" y="394" on="1"/>
        <pt x="236" y="394" on="0"/>
        <pt x="176" y="383" on="0"/>
        <pt x="145" y="373" on="1"/>
        <pt x="95" y="357" on="1"/>
        <pt x="61" y="419" on="1"/>
        <pt x="107" y="454" on="0"/>
        <pt x="216" y="496" on="0"/>
      </contour>
    </TTGlyph>
    <TTGlyph name="aeacute" xMin="36" yMin="-8" xMax="824" yMax="743">
      <component glyphName="ae" x="0" y="0" flags="0x204"/>
      <component glyphName="acute" x="294" y="0" flags="0x4"/>
    </TTGlyph>
    <TTGlyph name="agrave" xMin="34" yMin="-8" xMax="530" yMax="743">
      <component glyphName="a" x="0" y="0" flags="0x204"/>
      <component glyphName="grave" x="67" y="0" flags="0x4"/>
    </TTGlyph>
    <TTGlyph name="amacron" xMin="34" yMin="-8" xMax="530" yMax="674">
      <component glyphName="a" x="0" y="0" flags="0x204"/>
      <component glyphName="macron" x="68" y="0" flags="0x4"/>
    </TTGlyph>
    <TTGlyph name="ampersand" xMin="43" yMin="-10" xMax="715" yMax="673">
      <contour>
        <pt x="715" y="21" on="1"/>
        <pt x="700" y="12" on="0"/>
        <pt x="653" y="-3" on="0"/>
        <pt x="632" y="-3" on="1"/>
        <pt x="619" y="-3" on="0"/>
        <pt x="598" y="1" on="0"/>
        <pt x="577" y="11" on="0"/>
        <pt x="553" y="29" on="0"/>
        <pt x="538" y="43" on="1"/>
        <pt x="511" y="68" on="1"/>
        <pt x="466" y="30" on="0"/>
        <pt x="363" y="-10" on="0"/>
        <pt x="306" y="-10" on="1"/>
        <pt x="254" y="-10" on="0"/>
        <pt x="159" y="24" on="0"/>
        <pt x="86" y="85" on="0"/>
        <pt x="43" y="168" on="0"/>
        <pt x="43" y="216" on="1"/>
        <pt x="43" y="251" on="0"/>
        <pt x="65" y="308" on="0"/>
        <pt x="103" y="353" on="0"/>
        <pt x="150" y="387" on="0"/>
        <pt x="176" y="400" on="1"/>
        <pt x="160" y="424" on="0"/>
        <pt x="144" y="472" on="0"/>
        <pt x="144" y="499" on="1"/>
        <pt x="144" y="539" on="0"/>
        <pt x="174" y="603" on="0"/>
        <pt x="226" y="648" on="0"/>
        <pt x="296" y="673" on="0"/>
        <pt x="335" y="673" on="1"/>
        <pt x="371" y="673" on="0"/>
        <pt x="438" y="648" on="0"/>
        <pt x="489" y="604" on="0"/>
        <pt x="520" y="544" on="0"/>
        <pt x="520" y="508" on="1"/>
        <pt x="520" y="459" on="0"/>
        <pt x="458" y="366" on="0"/>
        <pt x="389" y="324" on="1"/>
        <pt x="512" y="209" on="1"/>
        <pt x="537" y="242" on="0"/>
        <pt x="599" y="347" on="0"/>
        <pt x="633" y="413" on="1"/>
        <pt x="708" y="382" on="1"/>
        <pt x="686" y="314" on="0"/>
        <pt x="622" y="191" on="0"/>
        <pt x="583" y="141" on="1"/>
        <pt x="633" y="94" on="1"/>
        <pt x="715" y="81" on="1"/>
      </contour>
      <contour>
        <pt x="225" y="340" on="1"/>
        <pt x="202" y="317" on="1"/>
        <pt x="181" y="296" on="0"/>
        <pt x="158" y="255" on="0"/>
        <pt x="158" y="227" on="1"/>
        <pt x="158" y="204" on="0"/>
        <pt x="179" y="157" on="0"/>
        <pt x="221" y="119" on="0"/>
        <pt x="282" y="96" on="0"/>
        <pt x="322" y="96" on="1"/>
        <pt x="355" y="96" on="0"/>
        <pt x="413" y="118" on="0"/>
        <pt x="439" y="136" on="1"/>
      </contour>
      <contour>
        <pt x="369" y="410" on="1"/>
        <pt x="399" y="441" on="0"/>
        <pt x="418" y="485" on="0"/>
        <pt x="418" y="507" on="1"/>
        <pt x="418" y="537" on="0"/>
        <pt x="370" y="580" on="0"/>
        <pt x="334" y="580" on="1"/>
        <pt x="296" y="580" on="0"/>
        <pt x="249" y="538" on="0"/>
        <pt x="249" y="505" on="1"/>
        <pt x="249" y="473" on="0"/>
        <pt x="293" y="413" on="0"/>
        <pt x="335" y="375" on="1"/>
      </contour>
    </TTGlyph>
    <TTGlyph name="aogonek" xMin="34" yMin="-218" xMax="532" yMax="496">
      <contour>
        <pt x="353" y="197" on="1"/>
        <pt x="353" y="203" on="0"/>
        <pt x="348" y="207" on="0"/>
        <pt x="340" y="207" on="1"/>
        <pt x="188" y="207" on="1"/>
        <pt x="164" y="207" on="0"/>
        <pt x="154" y="195" on="1"/>
        <pt x="144" y="184" on="0"/>
        <pt x="144" y="161" on="1"/>
        <pt x="144" y="130" on="0"/>
        <pt x="187" y="89" on="0"/>
        <pt x="231" y="89" on="1"/>
        <pt x="254" y="89" on="0"/>
        <pt x="314" y="101" on="0"/>
        <pt x="341" y="112" on="1"/>
        <pt x="349" y="116" on="0"/>
        <pt x="353" y="123" on="0"/>
        <pt x="353" y="128" on="1"/>
      </contour>
      <contour>
        <pt x="341" y="29" on="1"/>
        <pt x="305" y="9" on="0"/>
        <pt x="240" y="-8" on="0"/>
        <pt x="211" y="-8" on="1"/>
        <pt x="172" y="-8" on="0"/>
        <pt x="107" y="18" on="0"/>
        <pt x="60" y="63" on="0"/>
        <pt x="34" y="123" on="0"/>
        <pt x="34" y="157" on="1"/>
        <pt x="34" y="220" on="0"/>
        <pt x="123" y="293" on="0"/>
        <pt x="206" y="293" on="1"/>
        <pt x="213" y="293" on="1"/>
        <pt x="228" y="293" on="0"/>
        <pt x="265" y="291" on="0"/>
        <pt x="302" y="287" on="0"/>
        <pt x="338" y="282" on="0"/>
        <pt x="353" y="279" on="1"/>
        <pt x="353" y="317" on="1"/>
        <pt x="353" y="354" on="0"/>
        <pt x="335" y="372" on="1"/>
        <pt x="313" y="394" on="0"/>
        <pt x="263" y="394" on="1"/>
        <pt x="236" y="394" on="0"/>
        <pt x="176" y="383" on="0"/>
        <pt x="145" y="373" on="1"/>
        <pt x="95" y="357" on="1"/>
        <pt x="61" y="419" on="1"/>
        <pt x="107" y="454" on="0"/>
        <pt x="216" y="496" on="0"/>
        <pt x="271" y="496" on="1"/>
        <pt x="320" y="496" on="0"/>
        <pt x="398" y="467" on="0"/>
        <pt x="424" y="438" on="1"/>
        <pt x="444" y="416" on="0"/>
        <pt x="466" y="357" on="0"/>
        <pt x="466" y="313" on="1"/>
        <pt x="466" y="91" on="1"/>
        <pt x="530" y="79" on="1"/>
        <pt x="530" y="18" on="1"/>
        <pt x="503" y="8" on="0"/>
        <pt x="453" y="-16" on="0"/>
        <pt x="415" y="-43" on="0"/>
        <pt x="392" y="-74" on="0"/>
        <pt x="392" y="-92" on="1"/>
        <pt x="392" y="-113" on="0"/>
        <pt x="423" y="-140" on="0"/>
        <pt x="455" y="-140" on="1"/>
        <pt x="463" y="-140" on="0"/>
        <pt x="491" y="-137" on="0"/>
        <pt x="513" y="-132" on="1"/>
        <pt x="532" y="-192" on="1"/>
        <pt x="477" y="-218" on="0"/>
        <pt x="428" y="-218" on="1"/>
        <pt x="368" y="-218" on="0"/>
        <pt x="298" y="-155" on="0"/>
        <pt x="298" y="-109" on="1"/>
        <pt x="298" y="-88" on="0"/>
        <pt x="316" y="-51" on="0"/>
        <pt x="345" y="-21" on="0"/>
        <pt x="383" y="2" on="0"/>
        <pt x="404" y="11" on="1"/>
        <pt x="391" y="14" on="0"/>
        <pt x="370" y="34" on="0"/>
        <pt x="365" y="42" on="1"/>
      </contour>
    </TTGlyph>
    <TTGlyph name="apple" xMin="78" yMin="0" xMax="466" yMax="650">
      <contour>
        <pt x="208" y="357" on="1"/>
        <pt x="208" y="370" on="0"/>
        <pt x="227" y="388" on="0"/>
        <pt x="239" y="388" on="1"/>
        <pt x="252" y="388" on="0"/>
        <pt x="269" y="370" on="0"/>
        <pt x="269" y="357" on="1"/>
        <pt x="269" y="344" on="0"/>
        <pt x="252" y="327" on="0"/>
        <pt x="239" y="327" on="1"/>
        <pt x="227" y="327" on="0"/>
        <pt x="208" y="344" on="0"/>
      </contour>
      <contour>
        <pt x="405" y="357" on="1"/>
        <pt x="405" y="370" on="0"/>
        <pt x="424" y="388" on="0"/>
        <pt x="436" y="388" on="1"/>
        <pt x="449" y="388" on="0"/>
        <pt x="466" y="370" on="0"/>
        <pt x="466" y="357" on="1"/>
        <pt x="466" y="344" on="0"/>
        <pt x="449" y="327" on="0"/>
        <pt x="436" y="327" on="1"/>
        <pt x="424" y="327" on="0"/>
        <pt x="405" y="344" on="0"/>
      </contour>
      <contour>
        <pt x="78" y="161" on="1"/>
        <pt x="78" y="174" on="0"/>
        <pt x="95" y="191" on="0"/>
        <pt x="108" y="191" on="1"/>
        <pt x="120" y="191" on="0"/>
        <pt x="139" y="174" on="0"/>
        <pt x="139" y="161" on="1"/>
        <pt x="139" y="148" on="0"/>
        <pt x="120" y="130" on="0"/>
        <pt x="108" y="130" on="1"/>
        <pt x="95" y="130" on="0"/>
        <pt x="78" y="148" on="0"/>
      </contour>
      <contour>
        <pt x="78" y="357" on="1"/>
        <pt x="78" y="370" on="0"/>
        <pt x="95" y="388" on="0"/>
        <pt x="108" y="388" on="1"/>
        <pt x="120" y="388" on="0"/>
        <pt x="139" y="370" on="0"/>
        <pt x="139" y="357" on="1"/>
        <pt x="139" y="344" on="0"/>
        <pt x="120" y="327" on="0"/>
        <pt x="108" y="327" on="1"/>
        <pt x="95" y="327" on="0"/>
        <pt x="78" y="344" on="0"/>
      </contour>
      <contour>
        <pt x="275" y="357" on="1"/>
        <pt x="275" y="370" on="0"/>
        <pt x="292" y="388" on="0"/>
        <pt x="305" y="388" on="1"/>
        <pt x="317" y="388" on="0"/>
        <pt x="336" y="370" on="0"/>
        <pt x="336" y="357" on="1"/>
        <pt x="336" y="344" on="0"/>
        <pt x="317" y="327" on="0"/>
        <pt x="305" y="327" on="1"/>
        <pt x="292" y="327" on="0"/>
        <pt x="275" y="344" on="0"/>
      </contour>
      <contour>
        <pt x="340" y="620" on="1"/>
        <pt x="340" y="632" on="0"/>
        <pt x="357" y="650" on="0"/>
        <pt x="371" y="650" on="1"/>
        <pt x="382" y="650" on="0"/>
        <pt x="401" y="632" on="0"/>
        <pt x="401" y="620" on="1"/>
        <pt x="401" y="606" on="0"/>
        <pt x="382" y="589" on="0"/>
        <pt x="371" y="589" on="1"/>
        <pt x="357" y="589" on="0"/>
        <pt x="340" y="606" on="0"/>
      </contour>
      <contour>
        <pt x="78" y="620" on="1"/>
        <pt x="78" y="632" on="0"/>
        <pt x="95" y="650" on="0"/>
        <pt x="108" y="650" on="1"/>
        <pt x="120" y="650" on="0"/>
        <pt x="139" y="632" on="0"/>
        <pt x="139" y="620" on="1"/>
        <pt x="139" y="606" on="0"/>
        <pt x="120" y="589" on="0"/>
        <pt x="108" y="589" on="1"/>
        <pt x="95" y="589" on="0"/>
        <pt x="78" y="606" on="0"/>
      </contour>
      <contour>
        <pt x="275" y="620" on="1"/>
        <pt x="275" y="632" on="0"/>
        <pt x="292" y="650" on="0"/>
        <pt x="305" y="650" on="1"/>
        <pt x="317" y="650" on="0"/>
        <pt x="336" y="632" on="0"/>
        <pt x="336" y="620" on="1"/>
        <pt x="336" y="606" on="0"/>
        <pt x="317" y="589" on="0"/>
        <pt x="305" y="589" on="1"/>
        <pt x="292" y="589" on="0"/>
        <pt x="275" y="606" on="0"/>
      </contour>
      <contour>
        <pt x="405" y="620" on="1"/>
        <pt x="405" y="632" on="0"/>
        <pt x="424" y="650" on="0"/>
        <pt x="436" y="650" on="1"/>
        <pt x="449" y="650" on="0"/>
        <pt x="466" y="632" on="0"/>
        <pt x="466" y="620" on="1"/>
        <pt x="466" y="606" on="0"/>
        <pt x="449" y="589" on="0"/>
        <pt x="436" y="589" on="1"/>
        <pt x="424" y="589" on="0"/>
        <pt x="405" y="606" on="0"/>
      </contour>
      <contour>
        <pt x="208" y="620" on="1"/>
        <pt x="208" y="632" on="0"/>
        <pt x="227" y="650" on="0"/>
        <pt x="239" y="650" on="1"/>
        <pt x="252" y="650" on="0"/>
        <pt x="269" y="632" on="0"/>
        <pt x="269" y="620" on="1"/>
        <pt x="269" y="606" on="0"/>
        <pt x="252" y="589" on="0"/>
        <pt x="239" y="589" on="1"/>
        <pt x="227" y="589" on="0"/>
        <pt x="208" y="606" on="0"/>
      </contour>
      <contour>
        <pt x="340" y="357" on="1"/>
        <pt x="340" y="370" on="0"/>
        <pt x="357" y="388" on="0"/>
        <pt x="371" y="388" on="1"/>
        <pt x="382" y="388" on="0"/>
        <pt x="401" y="370" on="0"/>
        <pt x="401" y="357" on="1"/>
        <pt x="401" y="344" on="0"/>
        <pt x="382" y="327" on="0"/>
        <pt x="371" y="327" on="1"/>
        <pt x="357" y="327" on="0"/>
        <pt x="340" y="344" on="0"/>
      </contour>
      <contour>
        <pt x="208" y="30" on="1"/>
        <pt x="208" y="42" on="0"/>
        <pt x="227" y="61" on="0"/>
        <pt x="239" y="61" on="1"/>
        <pt x="252" y="61" on="0"/>
        <pt x="269" y="42" on="0"/>
        <pt x="269" y="30" on="1"/>
        <pt x="269" y="17" on="0"/>
        <pt x="252" y="0" on="0"/>
        <pt x="239" y="0" on="1"/>
        <pt x="227" y="0" on="0"/>
        <pt x="208" y="17" on="0"/>
      </contour>
      <contour>
        <pt x="78" y="30" on="1"/>
        <pt x="78" y="42" on="0"/>
        <pt x="95" y="61" on="0"/>
        <pt x="108" y="61" on="1"/>
        <pt x="120" y="61" on="0"/>
        <pt x="139" y="42" on="0"/>
        <pt x="139" y="30" on="1"/>
        <pt x="139" y="17" on="0"/>
        <pt x="120" y="0" on="0"/>
        <pt x="108" y="0" on="1"/>
        <pt x="95" y="0" on="0"/>
        <pt x="78" y="17" on="0"/>
      </contour>
      <contour>
        <pt x="208" y="95" on="1"/>
        <pt x="208" y="109" on="0"/>
        <pt x="227" y="125" on="0"/>
        <pt x="239" y="125" on="1"/>
        <pt x="252" y="125" on="0"/>
        <pt x="269" y="109" on="0"/>
        <pt x="269" y="95" on="1"/>
        <pt x="269" y="82" on="0"/>
        <pt x="252" y="65" on="0"/>
        <pt x="239" y="65" on="1"/>
        <pt x="227" y="65" on="0"/>
        <pt x="208" y="82" on="0"/>
      </contour>
      <contour>
        <pt x="78" y="95" on="1"/>
        <pt x="78" y="109" on="0"/>
        <pt x="95" y="125" on="0"/>
        <pt x="108" y="125" on="1"/>
        <pt x="120" y="125" on="0"/>
        <pt x="139" y="109" on="0"/>
        <pt x="139" y="95" on="1"/>
        <pt x="139" y="82" on="0"/>
        <pt x="120" y="65" on="0"/>
        <pt x="108" y="65" on="1"/>
        <pt x="95" y="65" on="0"/>
        <pt x="78" y="82" on="0"/>
      </contour>
      <contour>
        <pt x="144" y="620" on="1"/>
        <pt x="144" y="632" on="0"/>
        <pt x="162" y="650" on="0"/>
        <pt x="174" y="650" on="1"/>
        <pt x="187" y="650" on="0"/>
        <pt x="204" y="632" on="0"/>
        <pt x="204" y="620" on="1"/>
        <pt x="204" y="606" on="0"/>
        <pt x="187" y="589" on="0"/>
        <pt x="174" y="589" on="1"/>
        <pt x="162" y="589" on="0"/>
        <pt x="144" y="606" on="0"/>
      </contour>
      <contour>
        <pt x="78" y="489" on="1"/>
        <pt x="78" y="501" on="0"/>
        <pt x="95" y="518" on="0"/>
        <pt x="108" y="518" on="1"/>
        <pt x="120" y="518" on="0"/>
        <pt x="139" y="501" on="0"/>
        <pt x="139" y="489" on="1"/>
        <pt x="139" y="476" on="0"/>
        <pt x="120" y="458" on="0"/>
        <pt x="108" y="458" on="1"/>
        <pt x="95" y="458" on="0"/>
        <pt x="78" y="476" on="0"/>
      </contour>
      <contour>
        <pt x="275" y="489" on="1"/>
        <pt x="275" y="501" on="0"/>
        <pt x="292" y="518" on="0"/>
        <pt x="305" y="518" on="1"/>
        <pt x="317" y="518" on="0"/>
        <pt x="336" y="501" on="0"/>
        <pt x="336" y="489" on="1"/>
        <pt x="336" y="476" on="0"/>
        <pt x="317" y="458" on="0"/>
        <pt x="305" y="458" on="1"/>
        <pt x="292" y="458" on="0"/>
        <pt x="275" y="476" on="0"/>
      </contour>
      <contour>
        <pt x="208" y="489" on="1"/>
        <pt x="208" y="501" on="0"/>
        <pt x="227" y="518" on="0"/>
        <pt x="239" y="518" on="1"/>
        <pt x="252" y="518" on="0"/>
        <pt x="269" y="501" on="0"/>
        <pt x="269" y="489" on="1"/>
        <pt x="269" y="476" on="0"/>
        <pt x="252" y="458" on="0"/>
        <pt x="239" y="458" on="1"/>
        <pt x="227" y="458" on="0"/>
        <pt x="208" y="476" on="0"/>
      </contour>
      <contour>
        <pt x="405" y="489" on="1"/>
        <pt x="405" y="501" on="0"/>
        <pt x="424" y="518" on="0"/>
        <pt x="436" y="518" on="1"/>
        <pt x="449" y="518" on="0"/>
        <pt x="466" y="501" on="0"/>
        <pt x="466" y="489" on="1"/>
        <pt x="466" y="476" on="0"/>
        <pt x="449" y="458" on="0"/>
        <pt x="436" y="458" on="1"/>
        <pt x="424" y="458" on="0"/>
        <pt x="405" y="476" on="0"/>
      </contour>
      <contour>
        <pt x="340" y="489" on="1"/>
        <pt x="340" y="501" on="0"/>
        <pt x="357" y="518" on="0"/>
        <pt x="371" y="518" on="1"/>
        <pt x="382" y="518" on="0"/>
        <pt x="401" y="501" on="0"/>
        <pt x="401" y="489" on="1"/>
        <pt x="401" y="476" on="0"/>
        <pt x="382" y="458" on="0"/>
        <pt x="371" y="458" on="1"/>
        <pt x="357" y="458" on="0"/>
        <pt x="340" y="476" on="0"/>
      </contour>
      <contour>
        <pt x="144" y="30" on="1"/>
        <pt x="144" y="42" on="0"/>
        <pt x="162" y="61" on="0"/>
        <pt x="174" y="61" on="1"/>
        <pt x="187" y="61" on="0"/>
        <pt x="204" y="42" on="0"/>
        <pt x="204" y="30" on="1"/>
        <pt x="204" y="17" on="0"/>
        <pt x="187" y="0" on="0"/>
        <pt x="174" y="0" on="1"/>
        <pt x="162" y="0" on="0"/>
        <pt x="144" y="17" on="0"/>
      </contour>
      <contour>
        <pt x="78" y="292" on="1"/>
        <pt x="78" y="304" on="0"/>
        <pt x="95" y="322" on="0"/>
        <pt x="108" y="322" on="1"/>
        <pt x="120" y="322" on="0"/>
        <pt x="139" y="304" on="0"/>
        <pt x="139" y="292" on="1"/>
        <pt x="139" y="279" on="0"/>
        <pt x="120" y="262" on="0"/>
        <pt x="108" y="262" on="1"/>
        <pt x="95" y="262" on="0"/>
        <pt x="78" y="279" on="0"/>
      </contour>
      <contour>
        <pt x="78" y="554" on="1"/>
        <pt x="78" y="566" on="0"/>
        <pt x="95" y="584" on="0"/>
        <pt x="108" y="584" on="1"/>
        <pt x="120" y="584" on="0"/>
        <pt x="139" y="566" on="0"/>
        <pt x="139" y="554" on="1"/>
        <pt x="139" y="541" on="0"/>
        <pt x="120" y="524" on="0"/>
        <pt x="108" y="524" on="1"/>
        <pt x="95" y="524" on="0"/>
        <pt x="78" y="541" on="0"/>
      </contour>
      <contour>
        <pt x="405" y="292" on="1"/>
        <pt x="405" y="304" on="0"/>
        <pt x="424" y="322" on="0"/>
        <pt x="436" y="322" on="1"/>
        <pt x="449" y="322" on="0"/>
        <pt x="466" y="304" on="0"/>
        <pt x="466" y="292" on="1"/>
        <pt x="466" y="279" on="0"/>
        <pt x="449" y="262" on="0"/>
        <pt x="436" y="262" on="1"/>
        <pt x="424" y="262" on="0"/>
        <pt x="405" y="279" on="0"/>
      </contour>
      <contour>
        <pt x="78" y="423" on="1"/>
        <pt x="78" y="436" on="0"/>
        <pt x="95" y="453" on="0"/>
        <pt x="108" y="453" on="1"/>
        <pt x="120" y="453" on="0"/>
        <pt x="139" y="436" on="0"/>
        <pt x="139" y="423" on="1"/>
        <pt x="139" y="410" on="0"/>
        <pt x="120" y="394" on="0"/>
        <pt x="108" y="394" on="1"/>
        <pt x="95" y="394" on="0"/>
        <pt x="78" y="410" on="0"/>
      </contour>
      <contour>
        <pt x="208" y="423" on="1"/>
        <pt x="208" y="436" on="0"/>
        <pt x="227" y="453" on="0"/>
        <pt x="239" y="453" on="1"/>
        <pt x="252" y="453" on="0"/>
        <pt x="269" y="436" on="0"/>
        <pt x="269" y="423" on="1"/>
        <pt x="269" y="410" on="0"/>
        <pt x="252" y="394" on="0"/>
        <pt x="239" y="394" on="1"/>
        <pt x="227" y="394" on="0"/>
        <pt x="208" y="410" on="0"/>
      </contour>
      <contour>
        <pt x="208" y="227" on="1"/>
        <pt x="208" y="239" on="0"/>
        <pt x="227" y="256" on="0"/>
        <pt x="239" y="256" on="1"/>
        <pt x="252" y="256" on="0"/>
        <pt x="269" y="239" on="0"/>
        <pt x="269" y="227" on="1"/>
        <pt x="269" y="214" on="0"/>
        <pt x="252" y="197" on="0"/>
        <pt x="239" y="197" on="1"/>
        <pt x="227" y="197" on="0"/>
        <pt x="208" y="214" on="0"/>
      </contour>
      <contour>
        <pt x="405" y="227" on="1"/>
        <pt x="405" y="239" on="0"/>
        <pt x="424" y="256" on="0"/>
        <pt x="436" y="256" on="1"/>
        <pt x="449" y="256" on="0"/>
        <pt x="466" y="239" on="0"/>
        <pt x="466" y="227" on="1"/>
        <pt x="466" y="214" on="0"/>
        <pt x="449" y="197" on="0"/>
        <pt x="436" y="197" on="1"/>
        <pt x="424" y="197" on="0"/>
        <pt x="405" y="214" on="0"/>
      </contour>
      <contour>
        <pt x="78" y="227" on="1"/>
        <pt x="78" y="239" on="0"/>
        <pt x="95" y="256" on="0"/>
        <pt x="108" y="256" on="1"/>
        <pt x="120" y="256" on="0"/>
        <pt x="139" y="239" on="0"/>
        <pt x="139" y="227" on="1"/>
        <pt x="139" y="214" on="0"/>
        <pt x="120" y="197" on="0"/>
        <pt x="108" y="197" on="1"/>
        <pt x="95" y="197" on="0"/>
        <pt x="78" y="214" on="0"/>
      </contour>
      <contour>
        <pt x="275" y="227" on="1"/>
        <pt x="275" y="239" on="0"/>
        <pt x="292" y="256" on="0"/>
        <pt x="305" y="256" on="1"/>
        <pt x="317" y="256" on="0"/>
        <pt x="336" y="239" on="0"/>
        <pt x="336" y="227" on="1"/>
        <pt x="336" y="214" on="0"/>
        <pt x="317" y="197" on="0"/>
        <pt x="305" y="197" on="1"/>
        <pt x="292" y="197" on="0"/>
        <pt x="275" y="214" on="0"/>
      </contour>
      <contour>
        <pt x="340" y="227" on="1"/>
        <pt x="340" y="239" on="0"/>
        <pt x="357" y="256" on="0"/>
        <pt x="371" y="256" on="1"/>
        <pt x="382" y="256" on="0"/>
        <pt x="401" y="239" on="0"/>
        <pt x="401" y="227" on="1"/>
        <pt x="401" y="214" on="0"/>
        <pt x="382" y="197" on="0"/>
        <pt x="371" y="197" on="1"/>
        <pt x="357" y="197" on="0"/>
        <pt x="340" y="214" on="0"/>
      </contour>
    </TTGlyph>
    <TTGlyph name="approxequal" xMin="60" yMin="66" xMax="488" yMax="424">
      <contour>
        <pt x="488" y="401" on="1"/>
        <pt x="483" y="375" on="0"/>
        <pt x="458" y="331" on="0"/>
        <pt x="421" y="298" on="0"/>
        <pt x="376" y="279" on="0"/>
        <pt x="351" y="279" on="1"/>
        <pt x="328" y="279" on="0"/>
        <pt x="286" y="293" on="0"/>
        <pt x="247" y="310" on="0"/>
        <pt x="210" y="324" on="0"/>
        <pt x="194" y="324" on="1"/>
        <pt x="171" y="324" on="0"/>
        <pt x="140" y="301" on="0"/>
        <pt x="125" y="276" on="1"/>
        <pt x="60" y="299" on="1"/>
        <pt x="64" y="324" on="0"/>
        <pt x="90" y="369" on="0"/>
        <pt x="127" y="402" on="0"/>
        <pt x="172" y="421" on="0"/>
        <pt x="197" y="421" on="1"/>
        <pt x="220" y="421" on="0"/>
        <pt x="262" y="407" on="0"/>
        <pt x="301" y="390" on="0"/>
        <pt x="337" y="376" on="0"/>
        <pt x="354" y="376" on="1"/>
        <pt x="377" y="376" on="0"/>
        <pt x="408" y="399" on="0"/>
        <pt x="423" y="424" on="1"/>
      </contour>
      <contour>
        <pt x="488" y="191" on="1"/>
        <pt x="483" y="165" on="0"/>
        <pt x="458" y="121" on="0"/>
        <pt x="421" y="88" on="0"/>
        <pt x="376" y="69" on="0"/>
        <pt x="351" y="69" on="1"/>
        <pt x="328" y="69" on="0"/>
        <pt x="286" y="83" on="0"/>
        <pt x="247" y="100" on="0"/>
        <pt x="210" y="114" on="0"/>
        <pt x="194" y="114" on="1"/>
        <pt x="171" y="114" on="0"/>
        <pt x="140" y="91" on="0"/>
        <pt x="125" y="66" on="1"/>
        <pt x="60" y="89" on="1"/>
        <pt x="64" y="114" on="0"/>
        <pt x="90" y="159" on="0"/>
        <pt x="127" y="192" on="0"/>
        <pt x="172" y="211" on="0"/>
        <pt x="197" y="211" on="1"/>
        <pt x="220" y="211" on="0"/>
        <pt x="262" y="197" on="0"/>
        <pt x="301" y="180" on="0"/>
        <pt x="337" y="166" on="0"/>
        <pt x="354" y="166" on="1"/>
        <pt x="377" y="166" on="0"/>
        <pt x="408" y="189" on="0"/>
        <pt x="423" y="214" on="1"/>
      </contour>
    </TTGlyph>
    <TTGlyph name="aring" xMin="34" yMin="-8" xMax="530" yMax="782">
      <component glyphName="a" x="0" y="0" flags="0x204"/>
      <component glyphName="ring" x="66" y="0" flags="0x4"/>
    </TTGlyph>
    <TTGlyph name="aringacute" xMin="34" yMin="-8" xMax="530" yMax="985">
      <component glyphName="a" x="0" y="0" flags="0x204"/>
      <component glyphName="ring" x="68" y="-18" flags="0x4"/>
      <component glyphName="acute" x="67" y="242" flags="0x4"/>
    </TTGlyph>
    <TTGlyph name="arrowdown" xMin="158" yMin="-89" xMax="628" yMax="577">
      <contour>
        <pt x="354" y="-81" on="1"/>
        <pt x="158" y="117" on="1"/>
        <pt x="206" y="165" on="1"/>
        <pt x="343" y="44" on="1"/>
        <pt x="343" y="577" on="1"/>
        <pt x="439" y="577" on="1"/>
        <pt x="439" y="43" on="1"/>
        <pt x="580" y="165" on="1"/>
        <pt x="628" y="117" on="1"/>
        <pt x="423" y="-89" on="1"/>
        <pt x="376" y="-89" on="1"/>
        <pt x="369" y="-89" on="0"/>
        <pt x="360" y="-86" on="0"/>
      </contour>
    </TTGlyph>
    <TTGlyph name="arrowdown.cap" xMin="158" yMin="-3" xMax="628" yMax="663">
      <contour>
        <pt x="354" y="5" on="1"/>
        <pt x="158" y="203" on="1"/>
        <pt x="206" y="251" on="1"/>
        <pt x="343" y="130" on="1"/>
        <pt x="343" y="663" on="1"/>
        <pt x="439" y="663" on="1"/>
        <pt x="439" y="129" on="1"/>
        <pt x="580" y="251" on="1"/>
        <pt x="628" y="203" on="1"/>
        <pt x="423" y="-3" on="1"/>
        <pt x="376" y="-3" on="1"/>
        <pt x="369" y="-3" on="0"/>
        <pt x="360" y="0" on="0"/>
      </contour>
    </TTGlyph>
    <TTGlyph name="arrowleft" xMin="60" yMin="7" xMax="725" yMax="478">
      <contour>
        <pt x="266" y="478" on="1"/>
        <pt x="314" y="429" on="1"/>
        <pt x="193" y="290" on="1"/>
        <pt x="725" y="290" on="1"/>
        <pt x="725" y="199" on="1"/>
        <pt x="191" y="199" on="1"/>
        <pt x="314" y="56" on="1"/>
        <pt x="266" y="7" on="1"/>
        <pt x="60" y="213" on="1"/>
        <pt x="60" y="259" on="1"/>
        <pt x="60" y="267" on="0"/>
        <pt x="63" y="276" on="0"/>
        <pt x="68" y="281" on="1"/>
      </contour>
    </TTGlyph>
    <TTGlyph name="arrowleft.cap" xMin="60" yMin="93" xMax="725" yMax="564">
      <contour>
        <pt x="266" y="564" on="1"/>
        <pt x="314" y="515" on="1"/>
        <pt x="193" y="376" on="1"/>
        <pt x="725" y="376" on="1"/>
        <pt x="725" y="285" on="1"/>
        <pt x="191" y="285" on="1"/>
        <pt x="314" y="142" on="1"/>
        <pt x="266" y="93" on="1"/>
        <pt x="60" y="299" on="1"/>
        <pt x="60" y="345" on="1"/>
        <pt x="60" y="353" on="0"/>
        <pt x="63" y="362" on="0"/>
        <pt x="68" y="367" on="1"/>
      </contour>
    </TTGlyph>
    <TTGlyph name="arrowright" xMin="60" yMin="11" xMax="725" yMax="482">
      <contour>
        <pt x="717" y="208" on="1"/>
        <pt x="519" y="11" on="1"/>
        <pt x="471" y="60" on="1"/>
        <pt x="592" y="199" on="1"/>
        <pt x="60" y="199" on="1"/>
        <pt x="60" y="290" on="1"/>
        <pt x="594" y="290" on="1"/>
        <pt x="471" y="433" on="1"/>
        <pt x="519" y="482" on="1"/>
        <pt x="725" y="276" on="1"/>
        <pt x="725" y="230" on="1"/>
        <pt x="725" y="222" on="0"/>
        <pt x="722" y="213" on="0"/>
      </contour>
    </TTGlyph>
    <TTGlyph name="arrowright.cap" xMin="60" yMin="97" xMax="725" yMax="568">
      <contour>
        <pt x="717" y="294" on="1"/>
        <pt x="519" y="97" on="1"/>
        <pt x="471" y="146" on="1"/>
        <pt x="592" y="285" on="1"/>
        <pt x="60" y="285" on="1"/>
        <pt x="60" y="376" on="1"/>
        <pt x="594" y="376" on="1"/>
        <pt x="471" y="519" on="1"/>
        <pt x="519" y="568" on="1"/>
        <pt x="725" y="362" on="1"/>
        <pt x="725" y="316" on="1"/>
        <pt x="725" y="308" on="0"/>
        <pt x="722" y="299" on="0"/>
      </contour>
    </TTGlyph>
    <TTGlyph name="arrowup" xMin="158" yMin="-89" xMax="628" yMax="577">
      <contour>
        <pt x="431" y="568" on="1"/>
        <pt x="628" y="371" on="1"/>
        <pt x="580" y="322" on="1"/>
        <pt x="443" y="443" on="1"/>
        <pt x="443" y="-89" on="1"/>
        <pt x="347" y="-89" on="1"/>
        <pt x="347" y="445" on="1"/>
        <pt x="206" y="322" on="1"/>
        <pt x="158" y="370" on="1"/>
        <pt x="363" y="577" on="1"/>
        <pt x="410" y="577" on="1"/>
        <pt x="418" y="577" on="0"/>
        <pt x="426" y="573" on="0"/>
      </contour>
    </TTGlyph>
    <TTGlyph name="arrowup.cap" xMin="158" yMin="-3" xMax="628" yMax="663">
      <contour>
        <pt x="431" y="654" on="1"/>
        <pt x="628" y="457" on="1"/>
        <pt x="580" y="408" on="1"/>
        <pt x="443" y="529" on="1"/>
        <pt x="443" y="-3" on="1"/>
        <pt x="347" y="-3" on="1"/>
        <pt x="347" y="531" on="1"/>
        <pt x="206" y="408" on="1"/>
        <pt x="158" y="456" on="1"/>
        <pt x="363" y="663" on="1"/>
        <pt x="410" y="663" on="1"/>
        <pt x="418" y="663" on="0"/>
        <pt x="426" y="659" on="0"/>
      </contour>
    </TTGlyph>
    <TTGlyph name="asciicircum" xMin="62" yMin="394" xMax="486" yMax="673">
      <contour>
        <pt x="315" y="673" on="1"/>
        <pt x="486" y="449" on="1"/>
        <pt x="405" y="394" on="1"/>
        <pt x="275" y="562" on="1"/>
        <pt x="273" y="562" on="1"/>
        <pt x="143" y="394" on="1"/>
        <pt x="62" y="449" on="1"/>
        <pt x="233" y="673" on="1"/>
      </contour>
    </TTGlyph>
    <TTGlyph name="asciitilde" xMin="60" yMin="276" xMax="488" yMax="424">
      <contour>
        <pt x="488" y="401" on="1"/>
        <pt x="483" y="375" on="0"/>
        <pt x="458" y="331" on="0"/>
        <pt x="421" y="298" on="0"/>
        <pt x="376" y="279" on="0"/>
        <pt x="351" y="279" on="1"/>
        <pt x="328" y="279" on="0"/>
        <pt x="286" y="293" on="0"/>
        <pt x="247" y="310" on="0"/>
        <pt x="210" y="324" on="0"/>
        <pt x="194" y="324" on="1"/>
        <pt x="171" y="324" on="0"/>
        <pt x="140" y="301" on="0"/>
        <pt x="125" y="276" on="1"/>
        <pt x="60" y="299" on="1"/>
        <pt x="64" y="324" on="0"/>
        <pt x="90" y="369" on="0"/>
        <pt x="127" y="402" on="0"/>
        <pt x="172" y="421" on="0"/>
        <pt x="197" y="421" on="1"/>
        <pt x="220" y="421" on="0"/>
        <pt x="262" y="407" on="0"/>
        <pt x="301" y="390" on="0"/>
        <pt x="337" y="376" on="0"/>
        <pt x="354" y="376" on="1"/>
        <pt x="377" y="376" on="0"/>
        <pt x="408" y="399" on="0"/>
        <pt x="423" y="424" on="1"/>
      </contour>
    </TTGlyph>
    <TTGlyph name="asterisk" xMin="43" yMin="298" xMax="414" yMax="663">
      <contour>
        <pt x="320" y="306" on="1"/>
        <pt x="308" y="298" on="0"/>
        <pt x="299" y="311" on="1"/>
        <pt x="229" y="429" on="1"/>
        <pt x="150" y="298" on="1"/>
        <pt x="83" y="342" on="1"/>
        <pt x="70" y="351" on="0"/>
        <pt x="84" y="366" on="1"/>
        <pt x="181" y="470" on="1"/>
        <pt x="43" y="504" on="1"/>
        <pt x="68" y="567" on="1"/>
        <pt x="75" y="586" on="0"/>
        <pt x="94" y="576" on="1"/>
        <pt x="199" y="519" on="1"/>
        <pt x="180" y="663" on="1"/>
        <pt x="263" y="663" on="1"/>
        <pt x="277" y="663" on="0"/>
        <pt x="276" y="649" on="1"/>
        <pt x="259" y="519" on="1"/>
        <pt x="382" y="585" on="1"/>
        <pt x="409" y="519" on="1"/>
        <pt x="414" y="503" on="0"/>
        <pt x="396" y="499" on="1"/>
        <pt x="277" y="470" on="1"/>
        <pt x="387" y="350" on="1"/>
      </contour>
    </TTGlyph>
    <TTGlyph name="at" xMin="47" yMin="-100" xMax="729" yMax="584">
      <contour>
        <pt x="699" y="1" on="1"/>
        <pt x="674" y="-19" on="0"/>
        <pt x="608" y="-55" on="0"/>
        <pt x="530" y="-83" on="0"/>
        <pt x="444" y="-100" on="0"/>
        <pt x="399" y="-100" on="1"/>
        <pt x="319" y="-100" on="0"/>
        <pt x="190" y="-47" on="0"/>
        <pt x="97" y="46" on="0"/>
        <pt x="47" y="171" on="0"/>
        <pt x="47" y="243" on="1"/>
        <pt x="47" y="323" on="0"/>
        <pt x="106" y="449" on="0"/>
        <pt x="205" y="537" on="0"/>
        <pt x="332" y="584" on="0"/>
        <pt x="401" y="584" on="1"/>
        <pt x="473" y="584" on="0"/>
        <pt x="593" y="535" on="0"/>
        <pt x="680" y="450" on="0"/>
        <pt x="729" y="337" on="0"/>
        <pt x="729" y="274" on="1"/>
        <pt x="729" y="226" on="0"/>
        <pt x="702" y="151" on="0"/>
        <pt x="657" y="100" on="0"/>
        <pt x="597" y="74" on="0"/>
        <pt x="563" y="74" on="1"/>
        <pt x="529" y="74" on="0"/>
        <pt x="484" y="98" on="0"/>
        <pt x="472" y="114" on="1"/>
        <pt x="447" y="100" on="1"/>
        <pt x="428" y="89" on="0"/>
        <pt x="385" y="75" on="0"/>
        <pt x="362" y="75" on="1"/>
        <pt x="336" y="75" on="0"/>
        <pt x="292" y="92" on="0"/>
        <pt x="259" y="121" on="0"/>
        <pt x="241" y="162" on="0"/>
        <pt x="241" y="186" on="1"/>
        <pt x="241" y="230" on="0"/>
        <pt x="304" y="277" on="0"/>
        <pt x="361" y="277" on="1"/>
        <pt x="363" y="277" on="1"/>
        <pt x="382" y="277" on="0"/>
        <pt x="429" y="273" on="0"/>
        <pt x="447" y="269" on="1"/>
        <pt x="447" y="295" on="1"/>
        <pt x="447" y="321" on="0"/>
        <pt x="421" y="342" on="0"/>
        <pt x="395" y="342" on="1"/>
        <pt x="381" y="342" on="0"/>
        <pt x="344" y="334" on="0"/>
        <pt x="323" y="327" on="1"/>
        <pt x="289" y="316" on="1"/>
        <pt x="262" y="362" on="1"/>
        <pt x="294" y="386" on="0"/>
        <pt x="366" y="416" on="0"/>
        <pt x="402" y="416" on="1"/>
        <pt x="461" y="416" on="0"/>
        <pt x="498" y="381" on="1"/>
        <pt x="515" y="364" on="0"/>
        <pt x="534" y="316" on="0"/>
        <pt x="534" y="285" on="1"/>
        <pt x="534" y="190" on="1"/>
        <pt x="534" y="167" on="0"/>
        <pt x="544" y="156" on="1"/>
        <pt x="554" y="146" on="0"/>
        <pt x="573" y="146" on="1"/>
        <pt x="588" y="146" on="0"/>
        <pt x="616" y="159" on="0"/>
        <pt x="637" y="188" on="0"/>
        <pt x="650" y="236" on="0"/>
        <pt x="650" y="271" on="1"/>
        <pt x="650" y="320" on="0"/>
        <pt x="614" y="405" on="0"/>
        <pt x="549" y="467" on="0"/>
        <pt x="457" y="502" on="0"/>
        <pt x="400" y="502" on="1"/>
        <pt x="346" y="502" on="0"/>
        <pt x="251" y="468" on="0"/>
        <pt x="180" y="404" on="0"/>
        <pt x="139" y="310" on="0"/>
        <pt x="139" y="249" on="1"/>
        <pt x="139" y="185" on="0"/>
        <pt x="179" y="86" on="0"/>
        <pt x="251" y="18" on="0"/>
        <pt x="349" y="-18" on="0"/>
        <pt x="408" y="-18" on="1"/>
        <pt x="453" y="-18" on="0"/>
        <pt x="559" y="5" on="0"/>
        <pt x="608" y="27" on="1"/>
        <pt x="668" y="54" on="1"/>
      </contour>
      <contour>
        <pt x="350" y="217" on="1"/>
        <pt x="325" y="217" on="0"/>
        <pt x="325" y="188" on="1"/>
        <pt x="325" y="171" on="0"/>
        <pt x="350" y="145" on="0"/>
        <pt x="376" y="145" on="1"/>
        <pt x="390" y="145" on="0"/>
        <pt x="430" y="154" on="0"/>
        <pt x="445" y="161" on="1"/>
        <pt x="450" y="163" on="0"/>
        <pt x="449" y="168" on="1"/>
        <pt x="448" y="173" on="0"/>
        <pt x="447" y="190" on="0"/>
        <pt x="447" y="197" on="1"/>
        <pt x="447" y="211" on="1"/>
        <pt x="447" y="217" on="0"/>
        <pt x="441" y="217" on="1"/>
      </contour>
    </TTGlyph>
    <TTGlyph name="at.cap" xMin="47" yMin="-11" xMax="729" yMax="673">
      <contour>
        <pt x="699" y="90" on="1"/>
        <pt x="674" y="70" on="0"/>
        <pt x="608" y="34" on="0"/>
        <pt x="530" y="6" on="0"/>
        <pt x="444" y="-11" on="0"/>
        <pt x="399" y="-11" on="1"/>
        <pt x="319" y="-11" on="0"/>
        <pt x="190" y="42" on="0"/>
        <pt x="97" y="135" on="0"/>
        <pt x="47" y="260" on="0"/>
        <pt x="47" y="332" on="1"/>
        <pt x="47" y="412" on="0"/>
        <pt x="106" y="538" on="0"/>
        <pt x="205" y="626" on="0"/>
        <pt x="332" y="673" on="0"/>
        <pt x="401" y="673" on="1"/>
        <pt x="473" y="673" on="0"/>
        <pt x="593" y="624" on="0"/>
        <pt x="680" y="539" on="0"/>
        <pt x="729" y="426" on="0"/>
        <pt x="729" y="363" on="1"/>
        <pt x="729" y="315" on="0"/>
        <pt x="702" y="240" on="0"/>
        <pt x="657" y="189" on="0"/>
        <pt x="597" y="163" on="0"/>
        <pt x="563" y="163" on="1"/>
        <pt x="529" y="163" on="0"/>
        <pt x="484" y="187" on="0"/>
        <pt x="472" y="203" on="1"/>
        <pt x="447" y="189" on="1"/>
        <pt x="428" y="178" on="0"/>
        <pt x="385" y="164" on="0"/>
        <pt x="362" y="164" on="1"/>
        <pt x="336" y="164" on="0"/>
        <pt x="292" y="181" on="0"/>
        <pt x="259" y="210" on="0"/>
        <pt x="241" y="251" on="0"/>
        <pt x="241" y="275" on="1"/>
        <pt x="241" y="319" on="0"/>
        <pt x="304" y="366" on="0"/>
        <pt x="361" y="366" on="1"/>
        <pt x="363" y="366" on="1"/>
        <pt x="382" y="366" on="0"/>
        <pt x="429" y="362" on="0"/>
        <pt x="447" y="358" on="1"/>
        <pt x="447" y="384" on="1"/>
        <pt x="447" y="410" on="0"/>
        <pt x="421" y="431" on="0"/>
        <pt x="395" y="431" on="1"/>
        <pt x="381" y="431" on="0"/>
        <pt x="344" y="423" on="0"/>
        <pt x="323" y="416" on="1"/>
        <pt x="289" y="405" on="1"/>
        <pt x="262" y="451" on="1"/>
        <pt x="294" y="475" on="0"/>
        <pt x="366" y="505" on="0"/>
        <pt x="402" y="505" on="1"/>
        <pt x="461" y="505" on="0"/>
        <pt x="498" y="470" on="1"/>
        <pt x="515" y="453" on="0"/>
        <pt x="534" y="405" on="0"/>
        <pt x="534" y="374" on="1"/>
        <pt x="534" y="279" on="1"/>
        <pt x="534" y="256" on="0"/>
        <pt x="544" y="245" on="1"/>
        <pt x="554" y="235" on="0"/>
        <pt x="573" y="235" on="1"/>
        <pt x="588" y="235" on="0"/>
        <pt x="616" y="248" on="0"/>
        <pt x="637" y="277" on="0"/>
        <pt x="650" y="325" on="0"/>
        <pt x="650" y="360" on="1"/>
        <pt x="650" y="409" on="0"/>
        <pt x="614" y="494" on="0"/>
        <pt x="549" y="556" on="0"/>
        <pt x="457" y="591" on="0"/>
        <pt x="400" y="591" on="1"/>
        <pt x="346" y="591" on="0"/>
        <pt x="251" y="557" on="0"/>
        <pt x="180" y="493" on="0"/>
        <pt x="139" y="399" on="0"/>
        <pt x="139" y="338" on="1"/>
        <pt x="139" y="274" on="0"/>
        <pt x="179" y="175" on="0"/>
        <pt x="251" y="107" on="0"/>
        <pt x="349" y="71" on="0"/>
        <pt x="408" y="71" on="1"/>
        <pt x="453" y="71" on="0"/>
        <pt x="559" y="94" on="0"/>
        <pt x="608" y="116" on="1"/>
        <pt x="668" y="143" on="1"/>
      </contour>
      <contour>
        <pt x="350" y="306" on="1"/>
        <pt x="325" y="306" on="0"/>
        <pt x="325" y="277" on="1"/>
        <pt x="325" y="260" on="0"/>
        <pt x="350" y="234" on="0"/>
        <pt x="376" y="234" on="1"/>
        <pt x="390" y="234" on="0"/>
        <pt x="430" y="243" on="0"/>
        <pt x="445" y="250" on="1"/>
        <pt x="450" y="252" on="0"/>
        <pt x="449" y="257" on="1"/>
        <pt x="448" y="262" on="0"/>
        <pt x="447" y="279" on="0"/>
        <pt x="447" y="286" on="1"/>
        <pt x="447" y="300" on="1"/>
        <pt x="447" y="306" on="0"/>
        <pt x="441" y="306" on="1"/>
      </contour>
    </TTGlyph>
    <TTGlyph name="atilde" xMin="34" yMin="-8" xMax="530" yMax="691">
      <component glyphName="a" x="0" y="0" flags="0x204"/>
      <component glyphName="tilde" x="68" y="0" flags="0x4"/>
    </TTGlyph>
    <TTGlyph name="b" xMin="62" yMin="-8" xMax="538" yMax="709">
      <contour>
        <pt x="164" y="44" on="1"/>
        <pt x="147" y="0" on="1"/>
        <pt x="62" y="0" on="1"/>
        <pt x="62" y="709" on="1"/>
        <pt x="175" y="709" on="1"/>
        <pt x="175" y="448" on="1"/>
        <pt x="210" y="466" on="1"/>
        <pt x="238" y="480" on="0"/>
        <pt x="292" y="496" on="0"/>
        <pt x="321" y="496" on="1"/>
        <pt x="367" y="496" on="0"/>
        <pt x="447" y="459" on="0"/>
        <pt x="505" y="393" on="0"/>
        <pt x="538" y="300" on="0"/>
        <pt x="538" y="244" on="1"/>
        <pt x="538" y="187" on="0"/>
        <pt x="506" y="94" on="0"/>
        <pt x="449" y="28" on="0"/>
        <pt x="370" y="-8" on="0"/>
        <pt x="322" y="-8" on="1"/>
        <pt x="294" y="-8" on="0"/>
        <pt x="234" y="10" on="0"/>
        <pt x="205" y="24" on="1"/>
      </contour>
      <contour>
        <pt x="175" y="139" on="1"/>
        <pt x="175" y="128" on="0"/>
        <pt x="186" y="123" on="1"/>
        <pt x="209" y="112" on="0"/>
        <pt x="269" y="97" on="0"/>
        <pt x="295" y="97" on="1"/>
        <pt x="297" y="97" on="1"/>
        <pt x="326" y="97" on="0"/>
        <pt x="371" y="110" on="0"/>
        <pt x="387" y="127" on="1"/>
        <pt x="404" y="144" on="0"/>
        <pt x="422" y="202" on="0"/>
        <pt x="422" y="244" on="1"/>
        <pt x="422" y="286" on="0"/>
        <pt x="404" y="342" on="0"/>
        <pt x="387" y="359" on="1"/>
        <pt x="371" y="376" on="0"/>
        <pt x="325" y="389" on="0"/>
        <pt x="296" y="389" on="1"/>
        <pt x="294" y="389" on="1"/>
        <pt x="268" y="389" on="0"/>
        <pt x="209" y="374" on="0"/>
        <pt x="186" y="362" on="1"/>
        <pt x="179" y="358" on="0"/>
        <pt x="175" y="352" on="0"/>
        <pt x="175" y="346" on="1"/>
      </contour>
    </TTGlyph>
    <TTGlyph name="backslash" xMin="6" yMin="0" xMax="459" yMax="663">
      <contour>
        <pt x="341" y="0" on="1"/>
        <pt x="6" y="663" on="1"/>
        <pt x="124" y="663" on="1"/>
        <pt x="459" y="0" on="1"/>
      </contour>
    </TTGlyph>
    <TTGlyph name="bar" xMin="79" yMin="-229" xMax="185" yMax="709">
      <contour>
        <pt x="79" y="709" on="1"/>
        <pt x="185" y="709" on="1"/>
        <pt x="185" y="-229" on="1"/>
        <pt x="79" y="-229" on="1"/>
      </contour>
    </TTGlyph>
    <TTGlyph name="braceleft" xMin="40" yMin="-239" xMax="356" yMax="673">
      <contour>
        <pt x="40" y="256" on="1"/>
        <pt x="95" y="270" on="0"/>
        <pt x="145" y="312" on="0"/>
        <pt x="145" y="349" on="1"/>
        <pt x="145" y="371" on="0"/>
        <pt x="137" y="423" on="0"/>
        <pt x="128" y="476" on="0"/>
        <pt x="121" y="528" on="0"/>
        <pt x="121" y="550" on="1"/>
        <pt x="121" y="611" on="0"/>
        <pt x="198" y="673" on="0"/>
        <pt x="259" y="673" on="1"/>
        <pt x="279" y="673" on="0"/>
        <pt x="332" y="664" on="0"/>
        <pt x="356" y="658" on="1"/>
        <pt x="356" y="591" on="1"/>
        <pt x="253" y="571" on="1"/>
        <pt x="242" y="569" on="0"/>
        <pt x="231" y="558" on="0"/>
        <pt x="231" y="545" on="1"/>
        <pt x="231" y="532" on="0"/>
        <pt x="238" y="485" on="0"/>
        <pt x="247" y="429" on="0"/>
        <pt x="255" y="372" on="0"/>
        <pt x="255" y="350" on="1"/>
        <pt x="255" y="305" on="0"/>
        <pt x="208" y="241" on="0"/>
        <pt x="139" y="217" on="1"/>
        <pt x="208" y="193" on="0"/>
        <pt x="255" y="129" on="0"/>
        <pt x="255" y="84" on="1"/>
        <pt x="255" y="61" on="0"/>
        <pt x="247" y="4" on="0"/>
        <pt x="238" y="-51" on="0"/>
        <pt x="231" y="-98" on="0"/>
        <pt x="231" y="-111" on="1"/>
        <pt x="231" y="-124" on="0"/>
        <pt x="242" y="-135" on="0"/>
        <pt x="253" y="-137" on="1"/>
        <pt x="356" y="-157" on="1"/>
        <pt x="356" y="-224" on="1"/>
        <pt x="332" y="-230" on="0"/>
        <pt x="279" y="-239" on="0"/>
        <pt x="259" y="-239" on="1"/>
        <pt x="198" y="-239" on="0"/>
        <pt x="121" y="-177" on="0"/>
        <pt x="121" y="-116" on="1"/>
        <pt x="121" y="-94" on="0"/>
        <pt x="128" y="-42" on="0"/>
        <pt x="137" y="11" on="0"/>
        <pt x="145" y="62" on="0"/>
        <pt x="145" y="85" on="1"/>
        <pt x="145" y="122" on="0"/>
        <pt x="95" y="164" on="0"/>
        <pt x="40" y="178" on="1"/>
      </contour>
    </TTGlyph>
    <TTGlyph name="braceleft.cap" xMin="40" yMin="-124" xMax="356" yMax="788">
      <component glyphName="braceleft" x="0" y="115" flags="0x204"/>
    </TTGlyph>
    <TTGlyph name="braceright" xMin="10" yMin="-239" xMax="326" yMax="673">
      <contour>
        <pt x="326" y="178" on="1"/>
        <pt x="271" y="164" on="0"/>
        <pt x="221" y="122" on="0"/>
        <pt x="221" y="85" on="1"/>
        <pt x="221" y="62" on="0"/>
        <pt x="228" y="11" on="0"/>
        <pt x="237" y="-42" on="0"/>
        <pt x="245" y="-94" on="0"/>
        <pt x="245" y="-116" on="1"/>
        <pt x="245" y="-177" on="0"/>
        <pt x="168" y="-239" on="0"/>
        <pt x="107" y="-239" on="1"/>
        <pt x="87" y="-239" on="0"/>
        <pt x="34" y="-230" on="0"/>
        <pt x="10" y="-224" on="1"/>
        <pt x="10" y="-157" on="1"/>
        <pt x="113" y="-137" on="1"/>
        <pt x="124" y="-135" on="0"/>
        <pt x="135" y="-124" on="0"/>
        <pt x="135" y="-111" on="1"/>
        <pt x="135" y="-98" on="0"/>
        <pt x="127" y="-51" on="0"/>
        <pt x="118" y="4" on="0"/>
        <pt x="111" y="61" on="0"/>
        <pt x="111" y="84" on="1"/>
        <pt x="111" y="129" on="0"/>
        <pt x="158" y="193" on="0"/>
        <pt x="227" y="217" on="1"/>
        <pt x="158" y="241" on="0"/>
        <pt x="111" y="305" on="0"/>
        <pt x="111" y="350" on="1"/>
        <pt x="111" y="372" on="0"/>
        <pt x="118" y="429" on="0"/>
        <pt x="127" y="485" on="0"/>
        <pt x="135" y="532" on="0"/>
        <pt x="135" y="545" on="1"/>
        <pt x="135" y="558" on="0"/>
        <pt x="124" y="569" on="0"/>
        <pt x="113" y="571" on="1"/>
        <pt x="10" y="591" on="1"/>
        <pt x="10" y="658" on="1"/>
        <pt x="34" y="664" on="0"/>
        <pt x="87" y="673" on="0"/>
        <pt x="107" y="673" on="1"/>
        <pt x="168" y="673" on="0"/>
        <pt x="245" y="611" on="0"/>
        <pt x="245" y="550" on="1"/>
        <pt x="245" y="528" on="0"/>
        <pt x="237" y="476" on="0"/>
        <pt x="228" y="423" on="0"/>
        <pt x="221" y="371" on="0"/>
        <pt x="221" y="349" on="1"/>
        <pt x="221" y="312" on="0"/>
        <pt x="271" y="270" on="0"/>
        <pt x="326" y="256" on="1"/>
      </contour>
    </TTGlyph>
    <TTGlyph name="braceright.cap" xMin="10" yMin="-124" xMax="326" yMax="788">
      <component glyphName="braceright" x="0" y="115" flags="0x204"/>
    </TTGlyph>
    <TTGlyph name="bracketleft" xMin="75" yMin="-229" xMax="318" yMax="663">
      <contour>
        <pt x="75" y="663" on="1"/>
        <pt x="318" y="663" on="1"/>
        <pt x="318" y="561" on="1"/>
        <pt x="186" y="561" on="1"/>
        <pt x="186" y="-127" on="1"/>
        <pt x="318" y="-127" on="1"/>
        <pt x="318" y="-229" on="1"/>
        <pt x="75" y="-229" on="1"/>
      </contour>
    </TTGlyph>
    <TTGlyph name="bracketleft.cap" xMin="75" yMin="-114" xMax="318" yMax="778">
      <component glyphName="bracketleft" x="0" y="115" flags="0x204"/>
    </TTGlyph>
    <TTGlyph name="bracketright" xMin="21" yMin="-229" xMax="264" yMax="663">
      <contour>
        <pt x="264" y="-229" on="1"/>
        <pt x="21" y="-229" on="1"/>
        <pt x="21" y="-127" on="1"/>
        <pt x="153" y="-127" on="1"/>
        <pt x="153" y="561" on="1"/>
        <pt x="21" y="561" on="1"/>
        <pt x="21" y="663" on="1"/>
        <pt x="264" y="663" on="1"/>
      </contour>
    </TTGlyph>
    <TTGlyph name="bracketright.cap" xMin="21" yMin="-114" xMax="264" yMax="778">
      <component glyphName="bracketright" x="0" y="115" flags="0x204"/>
    </TTGlyph>
    <TTGlyph name="breve" xMin="42" yMin="554" xMax="368" yMax="709">
      <contour>
        <pt x="205" y="554" on="1"/>
        <pt x="136" y="554" on="0"/>
        <pt x="52" y="633" on="0"/>
        <pt x="42" y="697" on="1"/>
        <pt x="113" y="709" on="1"/>
        <pt x="126" y="674" on="0"/>
        <pt x="170" y="637" on="0"/>
        <pt x="205" y="637" on="1"/>
        <pt x="240" y="637" on="0"/>
        <pt x="284" y="674" on="0"/>
        <pt x="297" y="709" on="1"/>
        <pt x="368" y="697" on="1"/>
        <pt x="358" y="633" on="0"/>
        <pt x="274" y="554" on="0"/>
      </contour>
    </TTGlyph>
    <TTGlyph name="breve.cap" xMin="42" yMin="734" xMax="368" yMax="889">
      <contour>
        <pt x="205" y="734" on="1"/>
        <pt x="136" y="734" on="0"/>
        <pt x="52" y="813" on="0"/>
        <pt x="42" y="877" on="1"/>
        <pt x="113" y="889" on="1"/>
        <pt x="126" y="854" on="0"/>
        <pt x="170" y="817" on="0"/>
        <pt x="205" y="817" on="1"/>
        <pt x="240" y="817" on="0"/>
        <pt x="284" y="854" on="0"/>
        <pt x="297" y="889" on="1"/>
        <pt x="368" y="877" on="1"/>
        <pt x="358" y="813" on="0"/>
        <pt x="274" y="734" on="0"/>
      </contour>
    </TTGlyph>
    <TTGlyph name="brokenbar" xMin="79" yMin="-229" xMax="185" yMax="709">
      <contour>
        <pt x="79" y="709" on="1"/>
        <pt x="185" y="709" on="1"/>
        <pt x="185" y="291" on="1"/>
        <pt x="79" y="291" on="1"/>
      </contour>
      <contour>
        <pt x="79" y="189" on="1"/>
        <pt x="185" y="189" on="1"/>
        <pt x="185" y="-229" on="1"/>
        <pt x="79" y="-229" on="1"/>
      </contour>
    </TTGlyph>
    <TTGlyph name="bullet" xMin="69" yMin="177" xMax="289" yMax="387">
      <contour>
        <pt x="289" y="177" on="1"/>
        <pt x="69" y="177" on="1"/>
        <pt x="69" y="387" on="1"/>
        <pt x="266" y="387" on="1"/>
        <pt x="280" y="387" on="0"/>
        <pt x="289" y="379" on="0"/>
        <pt x="289" y="366" on="1"/>
      </contour>
    </TTGlyph>
    <TTGlyph name="bullet.cap" xMin="69" yMin="227" xMax="289" yMax="437">
      <component glyphName="bullet" x="0" y="50" flags="0x204"/>
    </TTGlyph>
    <TTGlyph name="c" xMin="32" yMin="-8" xMax="489" yMax="496">
      <contour>
        <pt x="489" y="85" on="1"/>
        <pt x="468" y="65" on="0"/>
        <pt x="415" y="32" on="0"/>
        <pt x="358" y="6" on="0"/>
        <pt x="300" y="-8" on="0"/>
        <pt x="272" y="-8" on="1"/>
        <pt x="270" y="-8" on="1"/>
        <pt x="215" y="-8" on="0"/>
        <pt x="127" y="29" on="0"/>
        <pt x="65" y="96" on="0"/>
        <pt x="32" y="189" on="0"/>
        <pt x="32" y="246" on="1"/>
        <pt x="32" y="302" on="0"/>
        <pt x="69" y="394" on="0"/>
        <pt x="132" y="460" on="0"/>
        <pt x="217" y="496" on="0"/>
        <pt x="266" y="496" on="1"/>
        <pt x="305" y="496" on="0"/>
        <pt x="375" y="472" on="0"/>
        <pt x="432" y="430" on="0"/>
        <pt x="472" y="372" on="0"/>
        <pt x="481" y="338" on="1"/>
        <pt x="409" y="301" on="1"/>
        <pt x="365" y="339" on="1"/>
        <pt x="333" y="367" on="0"/>
        <pt x="288" y="397" on="0"/>
        <pt x="258" y="397" on="1"/>
        <pt x="211" y="397" on="0"/>
        <pt x="148" y="323" on="0"/>
        <pt x="148" y="248" on="1"/>
        <pt x="148" y="168" on="0"/>
        <pt x="214" y="93" on="0"/>
        <pt x="284" y="93" on="1"/>
        <pt x="308" y="93" on="0"/>
        <pt x="364" y="108" on="0"/>
        <pt x="397" y="122" on="1"/>
        <pt x="452" y="146" on="1"/>
      </contour>
    </TTGlyph>
    <TTGlyph name="cacute" xMin="32" yMin="-8" xMax="489" yMax="743">
      <component glyphName="c" x="0" y="0" flags="0x204"/>
      <component glyphName="acute" x="79" y="0" flags="0x4"/>
    </TTGlyph>
    <TTGlyph name="caron" xMin="29" yMin="551" xMax="380" yMax="734">
      <contour>
        <pt x="333" y="734" on="1"/>
        <pt x="380" y="689" on="1"/>
        <pt x="252" y="564" on="1"/>
        <pt x="244" y="556" on="0"/>
        <pt x="232" y="551" on="0"/>
        <pt x="221" y="551" on="1"/>
        <pt x="188" y="551" on="1"/>
        <pt x="177" y="551" on="0"/>
        <pt x="165" y="556" on="0"/>
        <pt x="157" y="564" on="1"/>
        <pt x="29" y="689" on="1"/>
        <pt x="76" y="734" on="1"/>
        <pt x="203" y="638" on="1"/>
        <pt x="206" y="638" on="1"/>
      </contour>
    </TTGlyph>
    <TTGlyph name="caron.cap" xMin="29" yMin="731" xMax="380" yMax="914">
      <contour>
        <pt x="333" y="914" on="1"/>
        <pt x="380" y="869" on="1"/>
        <pt x="252" y="744" on="1"/>
        <pt x="244" y="736" on="0"/>
        <pt x="232" y="731" on="0"/>
        <pt x="221" y="731" on="1"/>
        <pt x="188" y="731" on="1"/>
        <pt x="177" y="731" on="0"/>
        <pt x="165" y="736" on="0"/>
        <pt x="157" y="744" on="1"/>
        <pt x="29" y="869" on="1"/>
        <pt x="76" y="914" on="1"/>
        <pt x="203" y="818" on="1"/>
        <pt x="206" y="818" on="1"/>
      </contour>
    </TTGlyph>
    <TTGlyph name="ccaron" xMin="32" yMin="-8" xMax="489" yMax="734">
      <component glyphName="c" x="0" y="0" flags="0x204"/>
      <component glyphName="caron" x="71" y="0" flags="0x4"/>
    </TTGlyph>
    <TTGlyph name="ccedilla" xMin="32" yMin="-240" xMax="489" yMax="496">
      <contour>
        <pt x="489" y="85" on="1"/>
        <pt x="451" y="50" on="0"/>
        <pt x="348" y="-1" on="0"/>
        <pt x="297" y="-6" on="1"/>
        <pt x="290" y="-16" on="0"/>
        <pt x="282" y="-33" on="0"/>
        <pt x="282" y="-41" on="1"/>
        <pt x="282" y="-51" on="0"/>
        <pt x="316" y="-62" on="0"/>
        <pt x="358" y="-79" on="0"/>
        <pt x="392" y="-108" on="0"/>
        <pt x="392" y="-136" on="1"/>
        <pt x="392" y="-182" on="0"/>
        <pt x="301" y="-240" on="0"/>
        <pt x="210" y="-240" on="1"/>
        <pt x="198" y="-178" on="1"/>
        <pt x="257" y="-167" on="1"/>
        <pt x="279" y="-162" on="0"/>
        <pt x="294" y="-150" on="0"/>
        <pt x="294" y="-143" on="1"/>
        <pt x="294" y="-134" on="0"/>
        <pt x="263" y="-123" on="0"/>
        <pt x="225" y="-109" on="0"/>
        <pt x="194" y="-88" on="0"/>
        <pt x="194" y="-68" on="1"/>
        <pt x="194" y="-54" on="0"/>
        <pt x="215" y="-21" on="0"/>
        <pt x="229" y="-5" on="1"/>
        <pt x="183" y="1" on="0"/>
        <pt x="110" y="43" on="0"/>
        <pt x="59" y="108" on="0"/>
        <pt x="32" y="195" on="0"/>
        <pt x="32" y="246" on="1"/>
        <pt x="32" y="302" on="0"/>
        <pt x="69" y="394" on="0"/>
        <pt x="132" y="460" on="0"/>
        <pt x="217" y="496" on="0"/>
        <pt x="266" y="496" on="1"/>
        <pt x="305" y="496" on="0"/>
        <pt x="375" y="472" on="0"/>
        <pt x="432" y="430" on="0"/>
        <pt x="472" y="372" on="0"/>
        <pt x="481" y="338" on="1"/>
        <pt x="409" y="301" on="1"/>
        <pt x="365" y="339" on="1"/>
        <pt x="333" y="367" on="0"/>
        <pt x="288" y="397" on="0"/>
        <pt x="258" y="397" on="1"/>
        <pt x="211" y="397" on="0"/>
        <pt x="148" y="323" on="0"/>
        <pt x="148" y="248" on="1"/>
        <pt x="148" y="168" on="0"/>
        <pt x="214" y="93" on="0"/>
        <pt x="284" y="93" on="1"/>
        <pt x="330" y="93" on="0"/>
        <pt x="397" y="122" on="1"/>
        <pt x="452" y="146" on="1"/>
      </contour>
    </TTGlyph>
    <TTGlyph name="ccircumflex" xMin="32" yMin="-8" xMax="489" yMax="724">
      <component glyphName="c" x="0" y="0" flags="0x204"/>
      <component glyphName="circumflex" x="69" y="0" flags="0x4"/>
    </TTGlyph>
    <TTGlyph name="cdotaccent" xMin="32" yMin="-8" xMax="489" yMax="667">
      <component glyphName="c" x="0" y="0" flags="0x204"/>
      <component glyphName="dotaccent" x="69" y="0" flags="0x4"/>
    </TTGlyph>
    <TTGlyph name="cedilla" xMin="106" yMin="-240" xMax="304" yMax="9">
      <contour>
        <pt x="217" y="3" on="1"/>
        <pt x="206" y="-11" on="0"/>
        <pt x="194" y="-31" on="0"/>
        <pt x="194" y="-41" on="1"/>
        <pt x="194" y="-51" on="0"/>
        <pt x="228" y="-62" on="0"/>
        <pt x="270" y="-79" on="0"/>
        <pt x="304" y="-108" on="0"/>
        <pt x="304" y="-136" on="1"/>
        <pt x="304" y="-182" on="0"/>
        <pt x="213" y="-240" on="0"/>
        <pt x="122" y="-240" on="1"/>
        <pt x="110" y="-178" on="1"/>
        <pt x="169" y="-167" on="1"/>
        <pt x="191" y="-162" on="0"/>
        <pt x="206" y="-150" on="0"/>
        <pt x="206" y="-143" on="1"/>
        <pt x="206" y="-134" on="0"/>
        <pt x="175" y="-123" on="0"/>
        <pt x="137" y="-109" on="0"/>
        <pt x="106" y="-88" on="0"/>
        <pt x="106" y="-68" on="1"/>
        <pt x="106" y="-51" on="0"/>
        <pt x="136" y="-10" on="0"/>
        <pt x="155" y="9" on="1"/>
      </contour>
    </TTGlyph>
    <TTGlyph name="cent" xMin="90" yMin="-116" xMax="549" yMax="617">
      <contour>
        <pt x="549" y="82" on="1"/>
        <pt x="512" y="48" on="0"/>
        <pt x="414" y="0" on="0"/>
        <pt x="365" y="-7" on="1"/>
        <pt x="355" y="-116" on="1"/>
        <pt x="307" y="-116" on="1"/>
        <pt x="307" y="-9" on="1"/>
        <pt x="257" y="-5" on="0"/>
        <pt x="176" y="35" on="0"/>
        <pt x="120" y="102" on="0"/>
        <pt x="90" y="192" on="0"/>
        <pt x="90" y="246" on="1"/>
        <pt x="90" y="299" on="0"/>
        <pt x="124" y="388" on="0"/>
        <pt x="182" y="454" on="0"/>
        <pt x="262" y="494" on="0"/>
        <pt x="307" y="497" on="1"/>
        <pt x="317" y="617" on="1"/>
        <pt x="365" y="617" on="1"/>
        <pt x="365" y="495" on="1"/>
        <pt x="397" y="489" on="0"/>
        <pt x="453" y="461" on="0"/>
        <pt x="498" y="420" on="0"/>
        <pt x="531" y="369" on="0"/>
        <pt x="541" y="340" on="1"/>
        <pt x="469" y="303" on="1"/>
        <pt x="431" y="341" on="1"/>
        <pt x="411" y="361" on="0"/>
        <pt x="380" y="384" on="0"/>
        <pt x="365" y="390" on="1"/>
        <pt x="365" y="94" on="1"/>
        <pt x="385" y="96" on="0"/>
        <pt x="431" y="110" on="0"/>
        <pt x="457" y="121" on="1"/>
        <pt x="512" y="144" on="1"/>
      </contour>
      <contour>
        <pt x="206" y="248" on="1"/>
        <pt x="206" y="182" on="0"/>
        <pt x="254" y="105" on="0"/>
        <pt x="307" y="96" on="1"/>
        <pt x="307" y="396" on="1"/>
        <pt x="264" y="391" on="0"/>
        <pt x="206" y="317" on="0"/>
      </contour>
    </TTGlyph>
    <TTGlyph name="cent.lprop" xMin="49" yMin="-116" xMax="508" yMax="617">
      <component glyphName="cent" x="-41" y="0" flags="0x4"/>
    </TTGlyph>
    <TTGlyph name="cent.oprop" xMin="55" yMin="-116" xMax="472" yMax="542">
      <component glyphName="cent.otab" x="-57" y="0" flags="0x4"/>
    </TTGlyph>
    <TTGlyph name="cent.otab" xMin="112" yMin="-116" xMax="529" yMax="542">
      <contour>
        <pt x="529" y="72" on="1"/>
        <pt x="497" y="42" on="0"/>
        <pt x="409" y="-1" on="0"/>
        <pt x="365" y="-8" on="1"/>
        <pt x="357" y="-116" on="1"/>
        <pt x="313" y="-116" on="1"/>
        <pt x="313" y="-9" on="1"/>
        <pt x="268" y="-6" on="0"/>
        <pt x="194" y="30" on="0"/>
        <pt x="141" y="89" on="0"/>
        <pt x="112" y="168" on="0"/>
        <pt x="112" y="216" on="1"/>
        <pt x="112" y="262" on="0"/>
        <pt x="145" y="342" on="0"/>
        <pt x="200" y="400" on="0"/>
        <pt x="273" y="436" on="0"/>
        <pt x="313" y="439" on="1"/>
        <pt x="321" y="542" on="1"/>
        <pt x="365" y="542" on="1"/>
        <pt x="365" y="437" on="1"/>
        <pt x="393" y="432" on="0"/>
        <pt x="443" y="406" on="0"/>
        <pt x="484" y="369" on="0"/>
        <pt x="513" y="324" on="0"/>
        <pt x="521" y="300" on="1"/>
        <pt x="458" y="260" on="1"/>
        <pt x="424" y="293" on="1"/>
        <pt x="406" y="310" on="0"/>
        <pt x="379" y="331" on="0"/>
        <pt x="365" y="337" on="1"/>
        <pt x="365" y="89" on="1"/>
        <pt x="400" y="93" on="0"/>
        <pt x="447" y="113" on="1"/>
        <pt x="496" y="134" on="1"/>
      </contour>
      <contour>
        <pt x="223" y="218" on="1"/>
        <pt x="223" y="165" on="0"/>
        <pt x="266" y="99" on="0"/>
        <pt x="313" y="91" on="1"/>
        <pt x="313" y="342" on="1"/>
        <pt x="275" y="337" on="0"/>
        <pt x="223" y="275" on="0"/>
      </contour>
    </TTGlyph>
    <TTGlyph name="circumflex" xMin="29" yMin="541" xMax="380" yMax="724">
      <contour>
        <pt x="206" y="637" on="1"/>
        <pt x="203" y="637" on="1"/>
        <pt x="76" y="541" on="1"/>
        <pt x="29" y="586" on="1"/>
        <pt x="157" y="711" on="1"/>
        <pt x="165" y="719" on="0"/>
        <pt x="177" y="724" on="0"/>
        <pt x="188" y="724" on="1"/>
        <pt x="221" y="724" on="1"/>
        <pt x="232" y="724" on="0"/>
        <pt x="244" y="719" on="0"/>
        <pt x="252" y="711" on="1"/>
        <pt x="380" y="586" on="1"/>
        <pt x="333" y="541" on="1"/>
      </contour>
    </TTGlyph>
    <TTGlyph name="circumflex.cap" xMin="29" yMin="721" xMax="380" yMax="904">
      <contour>
        <pt x="206" y="817" on="1"/>
        <pt x="203" y="817" on="1"/>
        <pt x="76" y="721" on="1"/>
        <pt x="29" y="766" on="1"/>
        <pt x="157" y="891" on="1"/>
        <pt x="165" y="899" on="0"/>
        <pt x="177" y="904" on="0"/>
        <pt x="188" y="904" on="1"/>
        <pt x="221" y="904" on="1"/>
        <pt x="232" y="904" on="0"/>
        <pt x="244" y="899" on="0"/>
        <pt x="252" y="891" on="1"/>
        <pt x="380" y="766" on="1"/>
        <pt x="333" y="721" on="1"/>
      </contour>
    </TTGlyph>
    <TTGlyph name="colon" xMin="55" yMin="0" xMax="177" yMax="438">
      <contour>
        <pt x="177" y="0" on="1"/>
        <pt x="55" y="0" on="1"/>
        <pt x="55" y="123" on="1"/>
        <pt x="157" y="123" on="1"/>
        <pt x="169" y="123" on="0"/>
        <pt x="177" y="114" on="0"/>
        <pt x="177" y="104" on="1"/>
      </contour>
      <contour>
        <pt x="177" y="315" on="1"/>
        <pt x="55" y="315" on="1"/>
        <pt x="55" y="438" on="1"/>
        <pt x="157" y="438" on="1"/>
        <pt x="169" y="438" on="0"/>
        <pt x="177" y="429" on="0"/>
        <pt x="177" y="419" on="1"/>
      </contour>
    </TTGlyph>
    <TTGlyph name="comma" xMin="22" yMin="-156" xMax="175" yMax="123">
      <contour>
        <pt x="85" y="-16" on="1"/>
        <pt x="89" y="-10" on="0"/>
        <pt x="88" y="-2" on="0"/>
        <pt x="81" y="2" on="1"/>
        <pt x="69" y="9" on="1"/>
        <pt x="59" y="15" on="0"/>
        <pt x="53" y="26" on="0"/>
        <pt x="53" y="36" on="1"/>
        <pt x="53" y="123" on="1"/>
        <pt x="155" y="123" on="1"/>
        <pt x="167" y="123" on="0"/>
        <pt x="175" y="114" on="0"/>
        <pt x="175" y="104" on="1"/>
        <pt x="175" y="38" on="1"/>
        <pt x="175" y="15" on="0"/>
        <pt x="168" y="-25" on="0"/>
        <pt x="144" y="-68" on="0"/>
        <pt x="99" y="-120" on="0"/>
        <pt x="61" y="-156" on="1"/>
        <pt x="22" y="-124" on="1"/>
      </contour>
    </TTGlyph>
    <TTGlyph name="commaaccent" xMin="142" yMin="-282" xMax="267" yMax="-58">
      <contour>
        <pt x="142" y="-270" on="1"/>
        <pt x="163" y="-58" on="1"/>
        <pt x="239" y="-58" on="1"/>
        <pt x="250" y="-58" on="0"/>
        <pt x="257" y="-63" on="0"/>
        <pt x="259" y="-71" on="1"/>
        <pt x="262" y="-81" on="1"/>
        <pt x="267" y="-99" on="0"/>
        <pt x="267" y="-111" on="1"/>
        <pt x="267" y="-129" on="0"/>
        <pt x="253" y="-166" on="0"/>
        <pt x="236" y="-202" on="1"/>
        <pt x="198" y="-282" on="1"/>
      </contour>
    </TTGlyph>
    <TTGlyph name="copyright" xMin="43" yMin="-10" xMax="721" yMax="673">
      <contour>
        <pt x="512" y="251" on="1"/>
        <pt x="488" y="221" on="0"/>
        <pt x="415" y="185" on="0"/>
        <pt x="378" y="185" on="1"/>
        <pt x="347" y="185" on="0"/>
        <pt x="295" y="207" on="0"/>
        <pt x="257" y="247" on="0"/>
        <pt x="235" y="302" on="0"/>
        <pt x="235" y="335" on="1"/>
        <pt x="235" y="369" on="0"/>
        <pt x="259" y="424" on="0"/>
        <pt x="299" y="463" on="0"/>
        <pt x="351" y="483" on="0"/>
        <pt x="379" y="483" on="1"/>
        <pt x="421" y="483" on="0"/>
        <pt x="487" y="435" on="0"/>
        <pt x="505" y="392" on="1"/>
        <pt x="460" y="361" on="1"/>
        <pt x="427" y="392" on="1"/>
        <pt x="416" y="403" on="0"/>
        <pt x="392" y="415" on="0"/>
        <pt x="375" y="415" on="1"/>
        <pt x="349" y="415" on="0"/>
        <pt x="310" y="377" on="0"/>
        <pt x="310" y="334" on="1"/>
        <pt x="310" y="298" on="0"/>
        <pt x="346" y="254" on="0"/>
        <pt x="384" y="254" on="1"/>
        <pt x="396" y="254" on="0"/>
        <pt x="422" y="262" on="0"/>
        <pt x="436" y="269" on="1"/>
        <pt x="486" y="294" on="1"/>
      </contour>
      <contour>
        <pt x="721" y="332" on="1"/>
        <pt x="721" y="262" on="0"/>
        <pt x="669" y="137" on="0"/>
        <pt x="578" y="44" on="0"/>
        <pt x="454" y="-10" on="0"/>
        <pt x="382" y="-10" on="1"/>
        <pt x="310" y="-10" on="0"/>
        <pt x="186" y="44" on="0"/>
        <pt x="95" y="137" on="0"/>
        <pt x="43" y="262" on="0"/>
        <pt x="43" y="332" on="1"/>
        <pt x="43" y="402" on="0"/>
        <pt x="95" y="526" on="0"/>
        <pt x="186" y="619" on="0"/>
        <pt x="310" y="673" on="0"/>
        <pt x="382" y="673" on="1"/>
        <pt x="454" y="673" on="0"/>
        <pt x="578" y="619" on="0"/>
        <pt x="669" y="526" on="0"/>
        <pt x="721" y="402" on="0"/>
      </contour>
      <contour>
        <pt x="629" y="332" on="1"/>
        <pt x="629" y="389" on="0"/>
        <pt x="594" y="482" on="0"/>
        <pt x="529" y="550" on="0"/>
        <pt x="438" y="587" on="0"/>
        <pt x="382" y="587" on="1"/>
        <pt x="326" y="587" on="0"/>
        <pt x="235" y="550" on="0"/>
        <pt x="170" y="482" on="0"/>
        <pt x="135" y="389" on="0"/>
        <pt x="135" y="332" on="1"/>
        <pt x="135" y="275" on="0"/>
        <pt x="170" y="181" on="0"/>
        <pt x="235" y="114" on="0"/>
        <pt x="326" y="76" on="0"/>
        <pt x="382" y="76" on="1"/>
        <pt x="438" y="76" on="0"/>
        <pt x="529" y="114" on="0"/>
        <pt x="594" y="181" on="0"/>
        <pt x="629" y="275" on="0"/>
      </contour>
    </TTGlyph>
    <TTGlyph name="currency" xMin="62" yMin="82" xMax="576" yMax="580">
      <contour>
        <pt x="430" y="153" on="1"/>
        <pt x="406" y="139" on="0"/>
        <pt x="350" y="125" on="0"/>
        <pt x="321" y="125" on="1"/>
        <pt x="317" y="125" on="1"/>
        <pt x="288" y="125" on="0"/>
        <pt x="231" y="139" on="0"/>
        <pt x="207" y="153" on="1"/>
        <pt x="136" y="82" on="1"/>
        <pt x="62" y="156" on="1"/>
        <pt x="136" y="230" on="1"/>
        <pt x="114" y="271" on="0"/>
        <pt x="114" y="331" on="1"/>
        <pt x="114" y="391" on="0"/>
        <pt x="136" y="432" on="1"/>
        <pt x="62" y="506" on="1"/>
        <pt x="136" y="580" on="1"/>
        <pt x="207" y="509" on="1"/>
        <pt x="231" y="523" on="0"/>
        <pt x="288" y="537" on="0"/>
        <pt x="317" y="537" on="1"/>
        <pt x="321" y="537" on="1"/>
        <pt x="350" y="537" on="0"/>
        <pt x="406" y="523" on="0"/>
        <pt x="430" y="509" on="1"/>
        <pt x="502" y="580" on="1"/>
        <pt x="576" y="506" on="1"/>
        <pt x="502" y="432" on="1"/>
        <pt x="524" y="388" on="0"/>
        <pt x="524" y="331" on="1"/>
        <pt x="524" y="274" on="0"/>
        <pt x="502" y="230" on="1"/>
        <pt x="576" y="156" on="1"/>
        <pt x="502" y="82" on="1"/>
      </contour>
      <contour>
        <pt x="215" y="331" on="1"/>
        <pt x="215" y="281" on="0"/>
        <pt x="266" y="220" on="0"/>
        <pt x="317" y="220" on="1"/>
        <pt x="321" y="220" on="1"/>
        <pt x="372" y="220" on="0"/>
        <pt x="423" y="281" on="0"/>
        <pt x="423" y="331" on="1"/>
        <pt x="423" y="381" on="0"/>
        <pt x="372" y="442" on="0"/>
        <pt x="321" y="442" on="1"/>
        <pt x="317" y="442" on="1"/>
        <pt x="266" y="442" on="0"/>
        <pt x="215" y="381" on="0"/>
      </contour>
    </TTGlyph>
    <TTGlyph name="d" xMin="33" yMin="-8" xMax="511" yMax="709">
      <contour>
        <pt x="398" y="709" on="1"/>
        <pt x="511" y="709" on="1"/>
        <pt x="511" y="0" on="1"/>
        <pt x="426" y="0" on="1"/>
        <pt x="409" y="45" on="1"/>
        <pt x="374" y="26" on="1"/>
        <pt x="345" y="11" on="0"/>
        <pt x="287" y="-8" on="0"/>
        <pt x="257" y="-8" on="1"/>
        <pt x="207" y="-8" on="0"/>
        <pt x="125" y="28" on="0"/>
        <pt x="66" y="94" on="0"/>
        <pt x="33" y="187" on="0"/>
        <pt x="33" y="243" on="1"/>
        <pt x="33" y="296" on="0"/>
        <pt x="66" y="389" on="0"/>
        <pt x="124" y="457" on="0"/>
        <pt x="206" y="496" on="0"/>
        <pt x="254" y="496" on="1"/>
        <pt x="285" y="496" on="0"/>
        <pt x="340" y="480" on="0"/>
        <pt x="371" y="464" on="1"/>
        <pt x="398" y="450" on="1"/>
      </contour>
      <contour>
        <pt x="398" y="349" on="1"/>
        <pt x="398" y="355" on="0"/>
        <pt x="395" y="363" on="0"/>
        <pt x="387" y="366" on="1"/>
        <pt x="361" y="377" on="0"/>
        <pt x="303" y="390" on="0"/>
        <pt x="279" y="390" on="1"/>
        <pt x="277" y="390" on="1"/>
        <pt x="149" y="390" on="0"/>
        <pt x="149" y="243" on="1"/>
        <pt x="149" y="171" on="0"/>
        <pt x="208" y="98" on="0"/>
        <pt x="277" y="98" on="1"/>
        <pt x="279" y="98" on="1"/>
        <pt x="303" y="98" on="0"/>
        <pt x="366" y="113" on="0"/>
        <pt x="387" y="124" on="1"/>
        <pt x="395" y="128" on="0"/>
        <pt x="398" y="134" on="0"/>
        <pt x="398" y="141" on="1"/>
      </contour>
    </TTGlyph>
    <TTGlyph name="dagger" xMin="45" yMin="-229" xMax="528" yMax="663">
      <contour>
        <pt x="339" y="19" on="1"/>
        <pt x="339" y="-1" on="0"/>
        <pt x="337" y="-38" on="0"/>
        <pt x="334" y="-67" on="1"/>
        <pt x="319" y="-229" on="1"/>
        <pt x="254" y="-229" on="1"/>
        <pt x="239" y="-67" on="1"/>
        <pt x="236" y="-38" on="0"/>
        <pt x="234" y="-1" on="0"/>
        <pt x="234" y="19" on="1"/>
        <pt x="234" y="198" on="1"/>
        <pt x="234" y="217" on="0"/>
        <pt x="237" y="258" on="0"/>
        <pt x="239" y="284" on="1"/>
        <pt x="243" y="339" on="1"/>
        <pt x="166" y="331" on="1"/>
        <pt x="137" y="328" on="0"/>
        <pt x="100" y="326" on="0"/>
        <pt x="80" y="326" on="1"/>
        <pt x="45" y="326" on="1"/>
        <pt x="45" y="425" on="1"/>
        <pt x="80" y="425" on="1"/>
        <pt x="100" y="425" on="0"/>
        <pt x="137" y="423" on="0"/>
        <pt x="166" y="420" on="1"/>
        <pt x="244" y="412" on="1"/>
        <pt x="239" y="469" on="1"/>
        <pt x="237" y="493" on="0"/>
        <pt x="234" y="535" on="0"/>
        <pt x="234" y="555" on="1"/>
        <pt x="234" y="663" on="1"/>
        <pt x="339" y="663" on="1"/>
        <pt x="339" y="555" on="1"/>
        <pt x="339" y="535" on="0"/>
        <pt x="336" y="495" on="0"/>
        <pt x="334" y="469" on="1"/>
        <pt x="329" y="412" on="1"/>
        <pt x="407" y="420" on="1"/>
        <pt x="436" y="423" on="0"/>
        <pt x="473" y="425" on="0"/>
        <pt x="493" y="425" on="1"/>
        <pt x="528" y="425" on="1"/>
        <pt x="528" y="326" on="1"/>
        <pt x="493" y="326" on="1"/>
        <pt x="473" y="326" on="0"/>
        <pt x="436" y="328" on="0"/>
        <pt x="407" y="331" on="1"/>
        <pt x="329" y="339" on="1"/>
        <pt x="334" y="284" on="1"/>
        <pt x="336" y="257" on="0"/>
        <pt x="339" y="216" on="0"/>
        <pt x="339" y="198" on="1"/>
      </contour>
    </TTGlyph>
    <TTGlyph name="daggerdbl" xMin="45" yMin="-229" xMax="528" yMax="663">
      <contour>
        <pt x="407" y="96" on="1"/>
        <pt x="436" y="99" on="0"/>
        <pt x="473" y="101" on="0"/>
        <pt x="493" y="101" on="1"/>
        <pt x="528" y="101" on="1"/>
        <pt x="528" y="2" on="1"/>
        <pt x="493" y="2" on="1"/>
        <pt x="473" y="2" on="0"/>
        <pt x="436" y="4" on="0"/>
        <pt x="407" y="7" on="1"/>
        <pt x="329" y="15" on="1"/>
        <pt x="334" y="-42" on="1"/>
        <pt x="336" y="-68" on="0"/>
        <pt x="339" y="-108" on="0"/>
        <pt x="339" y="-128" on="1"/>
        <pt x="339" y="-229" on="1"/>
        <pt x="234" y="-229" on="1"/>
        <pt x="234" y="-128" on="1"/>
        <pt x="234" y="-108" on="0"/>
        <pt x="237" y="-66" on="0"/>
        <pt x="239" y="-42" on="1"/>
        <pt x="244" y="15" on="1"/>
        <pt x="166" y="7" on="1"/>
        <pt x="137" y="4" on="0"/>
        <pt x="100" y="2" on="0"/>
        <pt x="80" y="2" on="1"/>
        <pt x="45" y="2" on="1"/>
        <pt x="45" y="101" on="1"/>
        <pt x="80" y="101" on="1"/>
        <pt x="100" y="101" on="0"/>
        <pt x="137" y="99" on="0"/>
        <pt x="166" y="96" on="1"/>
        <pt x="243" y="88" on="1"/>
        <pt x="238" y="140" on="0"/>
        <pt x="234" y="198" on="0"/>
        <pt x="234" y="212" on="1"/>
        <pt x="234" y="226" on="0"/>
        <pt x="238" y="285" on="0"/>
        <pt x="243" y="337" on="1"/>
        <pt x="166" y="329" on="1"/>
        <pt x="137" y="326" on="0"/>
        <pt x="100" y="324" on="0"/>
        <pt x="80" y="324" on="1"/>
        <pt x="45" y="324" on="1"/>
        <pt x="45" y="423" on="1"/>
        <pt x="80" y="423" on="1"/>
        <pt x="100" y="423" on="0"/>
        <pt x="137" y="421" on="0"/>
        <pt x="166" y="418" on="1"/>
        <pt x="244" y="410" on="1"/>
        <pt x="239" y="467" on="1"/>
        <pt x="237" y="491" on="0"/>
        <pt x="234" y="533" on="0"/>
        <pt x="234" y="553" on="1"/>
        <pt x="234" y="663" on="1"/>
        <pt x="339" y="663" on="1"/>
        <pt x="339" y="553" on="1"/>
        <pt x="339" y="533" on="0"/>
        <pt x="336" y="493" on="0"/>
        <pt x="334" y="467" on="1"/>
        <pt x="329" y="410" on="1"/>
        <pt x="407" y="418" on="1"/>
        <pt x="436" y="421" on="0"/>
        <pt x="473" y="423" on="0"/>
        <pt x="493" y="423" on="1"/>
        <pt x="528" y="423" on="1"/>
        <pt x="528" y="324" on="1"/>
        <pt x="493" y="324" on="1"/>
        <pt x="473" y="324" on="0"/>
        <pt x="436" y="326" on="0"/>
        <pt x="407" y="329" on="1"/>
        <pt x="329" y="337" on="1"/>
        <pt x="334" y="285" on="0"/>
        <pt x="338" y="226" on="0"/>
        <pt x="338" y="212" on="1"/>
        <pt x="338" y="198" on="0"/>
        <pt x="334" y="140" on="0"/>
        <pt x="329" y="88" on="1"/>
      </contour>
    </TTGlyph>
    <TTGlyph name="dcaron" xMin="33" yMin="-8" xMax="696" yMax="709">
      <component glyphName="d" x="0" y="0" flags="0x4"/>
      <component glyphName="commaaccent" x="429" y="767" flags="0x4"/>
    </TTGlyph>
    <TTGlyph name="dcroat" xMin="33" yMin="-10" xMax="586" yMax="709">
      <contour>
        <pt x="511" y="561" on="1"/>
        <pt x="511" y="0" on="1"/>
        <pt x="426" y="0" on="1"/>
        <pt x="409" y="43" on="1"/>
        <pt x="374" y="24" on="1"/>
        <pt x="345" y="9" on="0"/>
        <pt x="287" y="-10" on="0"/>
        <pt x="257" y="-10" on="1"/>
        <pt x="207" y="-10" on="0"/>
        <pt x="125" y="27" on="0"/>
        <pt x="66" y="94" on="0"/>
        <pt x="33" y="187" on="0"/>
        <pt x="33" y="243" on="1"/>
        <pt x="33" y="301" on="0"/>
        <pt x="70" y="398" on="0"/>
        <pt x="102" y="432" on="1"/>
        <pt x="131" y="464" on="0"/>
        <pt x="207" y="498" on="0"/>
        <pt x="252" y="498" on="1"/>
        <pt x="281" y="498" on="0"/>
        <pt x="340" y="481" on="0"/>
        <pt x="370" y="466" on="1"/>
        <pt x="398" y="452" on="1"/>
        <pt x="398" y="561" on="1"/>
        <pt x="230" y="561" on="1"/>
        <pt x="230" y="636" on="1"/>
        <pt x="398" y="636" on="1"/>
        <pt x="398" y="709" on="1"/>
        <pt x="511" y="709" on="1"/>
        <pt x="511" y="635" on="1"/>
        <pt x="586" y="622" on="1"/>
        <pt x="586" y="561" on="1"/>
      </contour>
      <contour>
        <pt x="398" y="350" on="1"/>
        <pt x="398" y="356" on="0"/>
        <pt x="395" y="364" on="0"/>
        <pt x="387" y="367" on="1"/>
        <pt x="361" y="378" on="0"/>
        <pt x="301" y="391" on="0"/>
        <pt x="277" y="391" on="1"/>
        <pt x="275" y="391" on="1"/>
        <pt x="149" y="391" on="0"/>
        <pt x="149" y="243" on="1"/>
        <pt x="149" y="171" on="0"/>
        <pt x="208" y="96" on="0"/>
        <pt x="277" y="96" on="1"/>
        <pt x="279" y="96" on="1"/>
        <pt x="303" y="96" on="0"/>
        <pt x="366" y="111" on="0"/>
        <pt x="387" y="122" on="1"/>
        <pt x="395" y="126" on="0"/>
        <pt x="398" y="132" on="0"/>
        <pt x="398" y="139" on="1"/>
      </contour>
    </TTGlyph>
    <TTGlyph name="degree" xMin="55" yMin="329" xMax="406" yMax="673">
      <contour>
        <pt x="147" y="501" on="1"/>
        <pt x="147" y="459" on="0"/>
        <pt x="191" y="418" on="0"/>
        <pt x="229" y="418" on="1"/>
        <pt x="232" y="418" on="1"/>
        <pt x="270" y="418" on="0"/>
        <pt x="314" y="459" on="0"/>
        <pt x="314" y="501" on="1"/>
        <pt x="314" y="543" on="0"/>
        <pt x="270" y="584" on="0"/>
        <pt x="232" y="584" on="1"/>
        <pt x="229" y="584" on="1"/>
        <pt x="191" y="584" on="0"/>
        <pt x="147" y="543" on="0"/>
      </contour>
      <contour>
        <pt x="406" y="501" on="1"/>
        <pt x="406" y="459" on="0"/>
        <pt x="376" y="395" on="0"/>
        <pt x="326" y="352" on="0"/>
        <pt x="264" y="329" on="0"/>
        <pt x="232" y="329" on="1"/>
        <pt x="229" y="329" on="1"/>
        <pt x="197" y="329" on="0"/>
        <pt x="135" y="352" on="0"/>
        <pt x="85" y="395" on="0"/>
        <pt x="55" y="459" on="0"/>
        <pt x="55" y="501" on="1"/>
        <pt x="55" y="543" on="0"/>
        <pt x="85" y="607" on="0"/>
        <pt x="135" y="650" on="0"/>
        <pt x="197" y="673" on="0"/>
        <pt x="229" y="673" on="1"/>
        <pt x="232" y="673" on="1"/>
        <pt x="264" y="673" on="0"/>
        <pt x="326" y="650" on="0"/>
        <pt x="376" y="607" on="0"/>
        <pt x="406" y="543" on="0"/>
      </contour>
    </TTGlyph>
    <TTGlyph name="dieresis" xMin="48" yMin="572" xMax="362" yMax="683">
      <contour>
        <pt x="165" y="572" on="1"/>
        <pt x="48" y="572" on="1"/>
        <pt x="48" y="683" on="1"/>
        <pt x="146" y="683" on="1"/>
        <pt x="157" y="683" on="0"/>
        <pt x="165" y="675" on="0"/>
        <pt x="165" y="665" on="1"/>
      </contour>
      <contour>
        <pt x="362" y="572" on="1"/>
        <pt x="245" y="572" on="1"/>
        <pt x="245" y="683" on="1"/>
        <pt x="343" y="683" on="1"/>
        <pt x="354" y="683" on="0"/>
        <pt x="362" y="675" on="0"/>
        <pt x="362" y="665" on="1"/>
      </contour>
    </TTGlyph>
    <TTGlyph name="dieresis.cap" xMin="48" yMin="752" xMax="362" yMax="863">
      <contour>
        <pt x="165" y="752" on="1"/>
        <pt x="48" y="752" on="1"/>
        <pt x="48" y="863" on="1"/>
        <pt x="146" y="863" on="1"/>
        <pt x="157" y="863" on="0"/>
        <pt x="165" y="855" on="0"/>
        <pt x="165" y="845" on="1"/>
      </contour>
      <contour>
        <pt x="362" y="752" on="1"/>
        <pt x="245" y="752" on="1"/>
        <pt x="245" y="863" on="1"/>
        <pt x="343" y="863" on="1"/>
        <pt x="354" y="863" on="0"/>
        <pt x="362" y="855" on="0"/>
        <pt x="362" y="845" on="1"/>
      </contour>
    </TTGlyph>
    <TTGlyph name="divide" xMin="75" yMin="30" xMax="475" yMax="461">
      <contour>
        <pt x="75" y="197" on="1"/>
        <pt x="75" y="294" on="1"/>
        <pt x="475" y="294" on="1"/>
        <pt x="475" y="197" on="1"/>
      </contour>
      <contour>
        <pt x="331" y="30" on="1"/>
        <pt x="218" y="30" on="1"/>
        <pt x="218" y="139" on="1"/>
        <pt x="313" y="139" on="1"/>
        <pt x="324" y="139" on="0"/>
        <pt x="331" y="130" on="0"/>
        <pt x="331" y="121" on="1"/>
      </contour>
      <contour>
        <pt x="331" y="352" on="1"/>
        <pt x="218" y="352" on="1"/>
        <pt x="218" y="461" on="1"/>
        <pt x="313" y="461" on="1"/>
        <pt x="324" y="461" on="0"/>
        <pt x="331" y="452" on="0"/>
        <pt x="331" y="443" on="1"/>
      </contour>
    </TTGlyph>
    <TTGlyph name="dollar" xMin="69" yMin="-116" xMax="563" yMax="789">
      <contour>
        <pt x="100" y="130" on="1"/>
        <pt x="163" y="116" on="1"/>
        <pt x="200" y="108" on="0"/>
        <pt x="265" y="96" on="0"/>
        <pt x="293" y="94" on="1"/>
        <pt x="293" y="303" on="1"/>
        <pt x="270" y="310" on="1"/>
        <pt x="223" y="325" on="0"/>
        <pt x="150" y="360" on="0"/>
        <pt x="100" y="404" on="0"/>
        <pt x="75" y="460" on="0"/>
        <pt x="75" y="496" on="1"/>
        <pt x="75" y="536" on="0"/>
        <pt x="106" y="599" on="0"/>
        <pt x="163" y="644" on="0"/>
        <pt x="244" y="670" on="0"/>
        <pt x="293" y="672" on="1"/>
        <pt x="303" y="789" on="1"/>
        <pt x="355" y="789" on="1"/>
        <pt x="355" y="671" on="1"/>
        <pt x="399" y="668" on="0"/>
        <pt x="489" y="648" on="0"/>
        <pt x="532" y="632" on="1"/>
        <pt x="514" y="553" on="1"/>
        <pt x="470" y="558" on="1"/>
        <pt x="437" y="562" on="0"/>
        <pt x="378" y="567" on="0"/>
        <pt x="355" y="568" on="1"/>
        <pt x="355" y="396" on="1"/>
        <pt x="415" y="377" on="0"/>
        <pt x="496" y="337" on="0"/>
        <pt x="520" y="313" on="1"/>
        <pt x="543" y="290" on="0"/>
        <pt x="563" y="231" on="0"/>
        <pt x="563" y="194" on="1"/>
        <pt x="563" y="154" on="0"/>
        <pt x="537" y="85" on="0"/>
        <pt x="485" y="31" on="0"/>
        <pt x="407" y="-3" on="0"/>
        <pt x="355" y="-8" on="1"/>
        <pt x="345" y="-116" on="1"/>
        <pt x="293" y="-116" on="1"/>
        <pt x="293" y="-9" on="1"/>
        <pt x="263" y="-7" on="0"/>
        <pt x="201" y="5" on="0"/>
        <pt x="142" y="22" on="0"/>
        <pt x="90" y="45" on="0"/>
        <pt x="69" y="57" on="1"/>
      </contour>
      <contour>
        <pt x="450" y="191" on="1"/>
        <pt x="450" y="226" on="0"/>
        <pt x="407" y="266" on="0"/>
        <pt x="355" y="283" on="1"/>
        <pt x="355" y="96" on="1"/>
        <pt x="450" y="110" on="0"/>
      </contour>
      <contour>
        <pt x="186" y="498" on="1"/>
        <pt x="186" y="466" on="0"/>
        <pt x="241" y="431" on="0"/>
        <pt x="293" y="415" on="1"/>
        <pt x="293" y="568" on="1"/>
        <pt x="239" y="564" on="0"/>
        <pt x="186" y="531" on="0"/>
      </contour>
    </TTGlyph>
    <TTGlyph name="dollar.lprop" xMin="52" yMin="-116" xMax="546" yMax="789">
      <component glyphName="dollar" x="-17" y="0" flags="0x4"/>
    </TTGlyph>
    <TTGlyph name="dollar.oprop" xMin="66" yMin="-116" xMax="468" yMax="604">
      <component glyphName="dollar.otab" x="-56" y="0" flags="0x4"/>
    </TTGlyph>
    <TTGlyph name="dollar.otab" xMin="122" yMin="-116" xMax="524" yMax="604">
      <contour>
        <pt x="438" y="392" on="1"/>
        <pt x="415" y="395" on="0"/>
        <pt x="376" y="398" on="0"/>
        <pt x="358" y="399" on="1"/>
        <pt x="358" y="298" on="1"/>
        <pt x="400" y="287" on="0"/>
        <pt x="463" y="261" on="0"/>
        <pt x="504" y="226" on="0"/>
        <pt x="524" y="179" on="0"/>
        <pt x="524" y="147" on="1"/>
        <pt x="524" y="81" on="0"/>
        <pt x="436" y="-1" on="0"/>
        <pt x="358" y="-7" on="1"/>
        <pt x="358" y="-8" on="1"/>
        <pt x="350" y="-116" on="1"/>
        <pt x="306" y="-116" on="1"/>
        <pt x="306" y="-7" on="1"/>
        <pt x="256" y="-3" on="0"/>
        <pt x="157" y="24" on="0"/>
        <pt x="122" y="43" on="1"/>
        <pt x="146" y="112" on="1"/>
        <pt x="189" y="104" on="1"/>
        <pt x="225" y="97" on="0"/>
        <pt x="283" y="90" on="0"/>
        <pt x="306" y="88" on="1"/>
        <pt x="306" y="210" on="1"/>
        <pt x="280" y="217" on="1"/>
        <pt x="205" y="237" on="0"/>
        <pt x="129" y="303" on="0"/>
        <pt x="129" y="360" on="1"/>
        <pt x="129" y="421" on="0"/>
        <pt x="226" y="490" on="0"/>
        <pt x="306" y="495" on="1"/>
        <pt x="314" y="604" on="1"/>
        <pt x="358" y="604" on="1"/>
        <pt x="358" y="495" on="1"/>
        <pt x="397" y="492" on="0"/>
        <pt x="472" y="474" on="0"/>
        <pt x="505" y="461" on="1"/>
        <pt x="487" y="386" on="1"/>
      </contour>
      <contour>
        <pt x="232" y="361" on="1"/>
        <pt x="232" y="343" on="0"/>
        <pt x="268" y="322" on="0"/>
        <pt x="306" y="312" on="1"/>
        <pt x="306" y="399" on="1"/>
        <pt x="265" y="397" on="0"/>
        <pt x="232" y="380" on="0"/>
      </contour>
      <contour>
        <pt x="419" y="144" on="1"/>
        <pt x="419" y="162" on="0"/>
        <pt x="393" y="187" on="0"/>
        <pt x="358" y="196" on="1"/>
        <pt x="358" y="90" on="1"/>
        <pt x="386" y="95" on="0"/>
        <pt x="419" y="121" on="0"/>
      </contour>
    </TTGlyph>
    <TTGlyph name="dotaccent" xMin="144" yMin="552" xMax="265" yMax="667">
      <contour>
        <pt x="265" y="552" on="1"/>
        <pt x="144" y="552" on="1"/>
        <pt x="144" y="667" on="1"/>
        <pt x="245" y="667" on="1"/>
        <pt x="257" y="667" on="0"/>
        <pt x="265" y="658" on="0"/>
        <pt x="265" y="648" on="1"/>
      </contour>
    </TTGlyph>
    <TTGlyph name="dotaccent.cap" xMin="144" yMin="732" xMax="265" yMax="847">
      <contour>
        <pt x="265" y="732" on="1"/>
        <pt x="144" y="732" on="1"/>
        <pt x="144" y="847" on="1"/>
        <pt x="245" y="847" on="1"/>
        <pt x="257" y="847" on="0"/>
        <pt x="265" y="838" on="0"/>
        <pt x="265" y="828" on="1"/>
      </contour>
    </TTGlyph>
    <TTGlyph name="dotlessi" xMin="64" yMin="0" xMax="177" yMax="488">
      <contour>
        <pt x="64" y="488" on="1"/>
        <pt x="177" y="488" on="1"/>
        <pt x="177" y="0" on="1"/>
        <pt x="64" y="0" on="1"/>
      </contour>
    </TTGlyph>
    <TTGlyph name="e" xMin="32" yMin="-8" xMax="506" yMax="496">
      <contour>
        <pt x="494" y="76" on="1"/>
        <pt x="449" y="38" on="0"/>
        <pt x="336" y="-8" on="0"/>
        <pt x="278" y="-8" on="1"/>
        <pt x="275" y="-8" on="1"/>
        <pt x="219" y="-8" on="0"/>
        <pt x="129" y="31" on="0"/>
        <pt x="66" y="99" on="0"/>
        <pt x="32" y="191" on="0"/>
        <pt x="32" y="244" on="1"/>
        <pt x="32" y="301" on="0"/>
        <pt x="70" y="394" on="0"/>
        <pt x="135" y="460" on="0"/>
        <pt x="221" y="496" on="0"/>
        <pt x="270" y="496" on="1"/>
        <pt x="272" y="496" on="1"/>
        <pt x="323" y="496" on="0"/>
        <pt x="409" y="459" on="0"/>
        <pt x="471" y="396" on="0"/>
        <pt x="506" y="311" on="0"/>
        <pt x="506" y="262" on="1"/>
        <pt x="506" y="254" on="0"/>
        <pt x="504" y="230" on="0"/>
        <pt x="502" y="221" on="1"/>
        <pt x="500" y="213" on="0"/>
        <pt x="492" y="209" on="0"/>
        <pt x="484" y="209" on="1"/>
        <pt x="148" y="209" on="1"/>
        <pt x="153" y="157" on="0"/>
        <pt x="218" y="92" on="0"/>
        <pt x="287" y="92" on="1"/>
        <pt x="317" y="92" on="0"/>
        <pt x="379" y="109" on="0"/>
        <pt x="401" y="117" on="1"/>
        <pt x="457" y="139" on="1"/>
      </contour>
      <contour>
        <pt x="392" y="291" on="1"/>
        <pt x="388" y="336" on="0"/>
        <pt x="330" y="397" on="0"/>
        <pt x="272" y="397" on="1"/>
        <pt x="271" y="397" on="1"/>
        <pt x="213" y="397" on="0"/>
        <pt x="154" y="336" on="0"/>
        <pt x="149" y="291" on="1"/>
      </contour>
    </TTGlyph>
    <TTGlyph name="eacute" xMin="32" yMin="-8" xMax="506" yMax="743">
      <component glyphName="e" x="0" y="0" flags="0x204"/>
      <component glyphName="acute" x="75" y="0" flags="0x4"/>
    </TTGlyph>
    <TTGlyph name="ebreve" xMin="32" yMin="-8" xMax="506" yMax="709">
      <component glyphName="e" x="0" y="0" flags="0x204"/>
      <component glyphName="breve" x="69" y="0" flags="0x4"/>
    </TTGlyph>
    <TTGlyph name="ecaron" xMin="32" yMin="-8" xMax="506" yMax="734">
      <component glyphName="e" x="0" y="0" flags="0x204"/>
      <component glyphName="caron" x="70" y="0" flags="0x4"/>
    </TTGlyph>
    <TTGlyph name="ecircumflex" xMin="32" yMin="-8" xMax="506" yMax="724">
      <component glyphName="e" x="0" y="0" flags="0x204"/>
      <component glyphName="circumflex" x="71" y="0" flags="0x4"/>
    </TTGlyph>
    <TTGlyph name="edieresis" xMin="32" yMin="-8" xMax="506" yMax="683">
      <component glyphName="e" x="0" y="0" flags="0x204"/>
      <component glyphName="dieresis" x="69" y="0" flags="0x4"/>
    </TTGlyph>
    <TTGlyph name="edotaccent" xMin="32" yMin="-8" xMax="506" yMax="667">
      <component glyphName="e" x="0" y="0" flags="0x204"/>
      <component glyphName="dotaccent" x="70" y="0" flags="0x4"/>
    </TTGlyph>
    <TTGlyph name="egrave" xMin="32" yMin="-8" xMax="506" yMax="743">
      <component glyphName="e" x="0" y="0" flags="0x204"/>
      <component glyphName="grave" x="79" y="0" flags="0x4"/>
    </TTGlyph>
    <TTGlyph name="eight" xMin="53" yMin="-10" xMax="584" yMax="673">
      <contour>
        <pt x="53" y="195" on="1"/>
        <pt x="53" y="246" on="0"/>
        <pt x="112" y="327" on="0"/>
        <pt x="154" y="357" on="1"/>
        <pt x="123" y="380" on="0"/>
        <pt x="83" y="441" on="0"/>
        <pt x="83" y="488" on="1"/>
        <pt x="83" y="528" on="0"/>
        <pt x="120" y="596" on="0"/>
        <pt x="184" y="646" on="0"/>
        <pt x="271" y="673" on="0"/>
        <pt x="321" y="673" on="1"/>
        <pt x="372" y="673" on="0"/>
        <pt x="459" y="647" on="0"/>
        <pt x="523" y="601" on="0"/>
        <pt x="559" y="534" on="0"/>
        <pt x="559" y="494" on="1"/>
        <pt x="559" y="451" on="0"/>
        <pt x="507" y="372" on="0"/>
        <pt x="470" y="343" on="1"/>
        <pt x="521" y="320" on="0"/>
        <pt x="584" y="250" on="0"/>
        <pt x="584" y="192" on="1"/>
        <pt x="584" y="151" on="0"/>
        <pt x="544" y="78" on="0"/>
        <pt x="473" y="22" on="0"/>
        <pt x="376" y="-10" on="0"/>
        <pt x="320" y="-10" on="1"/>
        <pt x="266" y="-10" on="0"/>
        <pt x="169" y="18" on="0"/>
        <pt x="96" y="70" on="0"/>
        <pt x="53" y="147" on="0"/>
      </contour>
      <contour>
        <pt x="197" y="492" on="1"/>
        <pt x="197" y="471" on="0"/>
        <pt x="218" y="441" on="0"/>
        <pt x="258" y="417" on="0"/>
        <pt x="315" y="397" on="0"/>
        <pt x="351" y="386" on="1"/>
        <pt x="371" y="380" on="1"/>
        <pt x="383" y="376" on="0"/>
        <pt x="394" y="381" on="0"/>
        <pt x="400" y="387" on="1"/>
        <pt x="419" y="404" on="0"/>
        <pt x="450" y="459" on="0"/>
        <pt x="450" y="485" on="1"/>
        <pt x="450" y="527" on="0"/>
        <pt x="377" y="571" on="0"/>
        <pt x="319" y="571" on="1"/>
        <pt x="295" y="571" on="0"/>
        <pt x="251" y="561" on="0"/>
        <pt x="217" y="542" on="0"/>
        <pt x="197" y="512" on="0"/>
      </contour>
      <contour>
        <pt x="218" y="305" on="1"/>
        <pt x="196" y="283" on="0"/>
        <pt x="167" y="234" on="0"/>
        <pt x="167" y="205" on="1"/>
        <pt x="167" y="179" on="0"/>
        <pt x="191" y="137" on="0"/>
        <pt x="233" y="108" on="0"/>
        <pt x="289" y="93" on="0"/>
        <pt x="321" y="93" on="1"/>
        <pt x="350" y="93" on="0"/>
        <pt x="402" y="107" on="0"/>
        <pt x="442" y="133" on="0"/>
        <pt x="466" y="169" on="0"/>
        <pt x="466" y="190" on="1"/>
        <pt x="466" y="207" on="0"/>
        <pt x="450" y="232" on="0"/>
        <pt x="411" y="256" on="0"/>
        <pt x="342" y="281" on="0"/>
        <pt x="290" y="298" on="1"/>
        <pt x="247" y="312" on="1"/>
        <pt x="239" y="315" on="0"/>
        <pt x="226" y="313" on="0"/>
      </contour>
    </TTGlyph>
    <TTGlyph name="eight.lprop" xMin="45" yMin="-10" xMax="576" yMax="673">
      <component glyphName="eight" x="-8" y="0" flags="0x4"/>
    </TTGlyph>
    <TTGlyph name="eight.oprop" xMin="51" yMin="-8" xMax="555" yMax="671">
      <contour>
        <pt x="51" y="196" on="1"/>
        <pt x="51" y="223" on="0"/>
        <pt x="68" y="270" on="0"/>
        <pt x="97" y="310" on="0"/>
        <pt x="135" y="342" on="0"/>
        <pt x="155" y="353" on="1"/>
        <pt x="123" y="376" on="0"/>
        <pt x="78" y="439" on="0"/>
        <pt x="78" y="487" on="1"/>
        <pt x="78" y="528" on="0"/>
        <pt x="115" y="596" on="0"/>
        <pt x="178" y="644" on="0"/>
        <pt x="261" y="671" on="0"/>
        <pt x="306" y="671" on="1"/>
        <pt x="350" y="671" on="0"/>
        <pt x="431" y="646" on="0"/>
        <pt x="492" y="600" on="0"/>
        <pt x="529" y="534" on="0"/>
        <pt x="529" y="492" on="1"/>
        <pt x="529" y="450" on="0"/>
        <pt x="478" y="375" on="0"/>
        <pt x="439" y="346" on="1"/>
        <pt x="463" y="336" on="0"/>
        <pt x="505" y="308" on="0"/>
        <pt x="536" y="271" on="0"/>
        <pt x="555" y="226" on="0"/>
        <pt x="555" y="198" on="1"/>
        <pt x="555" y="156" on="0"/>
        <pt x="519" y="81" on="0"/>
        <pt x="453" y="25" on="0"/>
        <pt x="360" y="-8" on="0"/>
        <pt x="304" y="-8" on="1"/>
        <pt x="249" y="-8" on="0"/>
        <pt x="156" y="22" on="0"/>
        <pt x="89" y="76" on="0"/>
        <pt x="51" y="151" on="0"/>
      </contour>
      <contour>
        <pt x="371" y="387" on="1"/>
        <pt x="392" y="407" on="0"/>
        <pt x="426" y="460" on="0"/>
        <pt x="426" y="487" on="1"/>
        <pt x="426" y="529" on="0"/>
        <pt x="356" y="573" on="0"/>
        <pt x="305" y="573" on="1"/>
        <pt x="281" y="573" on="0"/>
        <pt x="237" y="563" on="0"/>
        <pt x="204" y="542" on="0"/>
        <pt x="185" y="512" on="0"/>
        <pt x="185" y="492" on="1"/>
        <pt x="185" y="471" on="0"/>
        <pt x="207" y="439" on="0"/>
        <pt x="245" y="415" on="0"/>
        <pt x="298" y="396" on="0"/>
        <pt x="328" y="387" on="1"/>
        <pt x="346" y="382" on="1"/>
        <pt x="355" y="380" on="0"/>
        <pt x="365" y="381" on="0"/>
      </contour>
      <contour>
        <pt x="213" y="307" on="1"/>
        <pt x="188" y="287" on="0"/>
        <pt x="159" y="236" on="0"/>
        <pt x="159" y="206" on="1"/>
        <pt x="159" y="155" on="0"/>
        <pt x="238" y="90" on="0"/>
        <pt x="304" y="90" on="1"/>
        <pt x="334" y="90" on="0"/>
        <pt x="386" y="106" on="0"/>
        <pt x="423" y="133" on="0"/>
        <pt x="444" y="168" on="0"/>
        <pt x="444" y="188" on="1"/>
        <pt x="444" y="209" on="0"/>
        <pt x="418" y="241" on="0"/>
        <pt x="371" y="267" on="0"/>
        <pt x="305" y="290" on="0"/>
        <pt x="266" y="303" on="1"/>
        <pt x="238" y="312" on="1"/>
        <pt x="230" y="314" on="0"/>
        <pt x="220" y="312" on="0"/>
      </contour>
    </TTGlyph>
    <TTGlyph name="eight.otab" xMin="68" yMin="-8" xMax="572" yMax="671">
      <contour>
        <pt x="68" y="196" on="1"/>
        <pt x="68" y="223" on="0"/>
        <pt x="85" y="270" on="0"/>
        <pt x="114" y="310" on="0"/>
        <pt x="152" y="342" on="0"/>
        <pt x="172" y="353" on="1"/>
        <pt x="140" y="376" on="0"/>
        <pt x="95" y="439" on="0"/>
        <pt x="95" y="487" on="1"/>
        <pt x="95" y="528" on="0"/>
        <pt x="132" y="596" on="0"/>
        <pt x="195" y="644" on="0"/>
        <pt x="278" y="671" on="0"/>
        <pt x="323" y="671" on="1"/>
        <pt x="367" y="671" on="0"/>
        <pt x="448" y="646" on="0"/>
        <pt x="509" y="600" on="0"/>
        <pt x="546" y="534" on="0"/>
        <pt x="546" y="492" on="1"/>
        <pt x="546" y="450" on="0"/>
        <pt x="495" y="375" on="0"/>
        <pt x="456" y="346" on="1"/>
        <pt x="480" y="336" on="0"/>
        <pt x="522" y="308" on="0"/>
        <pt x="553" y="271" on="0"/>
        <pt x="572" y="226" on="0"/>
        <pt x="572" y="198" on="1"/>
        <pt x="572" y="156" on="0"/>
        <pt x="536" y="81" on="0"/>
        <pt x="470" y="25" on="0"/>
        <pt x="377" y="-8" on="0"/>
        <pt x="321" y="-8" on="1"/>
        <pt x="266" y="-8" on="0"/>
        <pt x="173" y="22" on="0"/>
        <pt x="106" y="76" on="0"/>
        <pt x="68" y="151" on="0"/>
      </contour>
      <contour>
        <pt x="388" y="387" on="1"/>
        <pt x="409" y="407" on="0"/>
        <pt x="443" y="460" on="0"/>
        <pt x="443" y="487" on="1"/>
        <pt x="443" y="529" on="0"/>
        <pt x="373" y="573" on="0"/>
        <pt x="322" y="573" on="1"/>
        <pt x="298" y="573" on="0"/>
        <pt x="254" y="563" on="0"/>
        <pt x="221" y="542" on="0"/>
        <pt x="202" y="512" on="0"/>
        <pt x="202" y="492" on="1"/>
        <pt x="202" y="471" on="0"/>
        <pt x="224" y="439" on="0"/>
        <pt x="262" y="415" on="0"/>
        <pt x="315" y="396" on="0"/>
        <pt x="345" y="387" on="1"/>
        <pt x="363" y="382" on="1"/>
        <pt x="372" y="380" on="0"/>
        <pt x="382" y="381" on="0"/>
      </contour>
      <contour>
        <pt x="230" y="307" on="1"/>
        <pt x="205" y="287" on="0"/>
        <pt x="176" y="236" on="0"/>
        <pt x="176" y="206" on="1"/>
        <pt x="176" y="155" on="0"/>
        <pt x="255" y="90" on="0"/>
        <pt x="321" y="90" on="1"/>
        <pt x="351" y="90" on="0"/>
        <pt x="403" y="106" on="0"/>
        <pt x="440" y="133" on="0"/>
        <pt x="461" y="168" on="0"/>
        <pt x="461" y="188" on="1"/>
        <pt x="461" y="209" on="0"/>
        <pt x="435" y="241" on="0"/>
        <pt x="388" y="267" on="0"/>
        <pt x="322" y="290" on="0"/>
        <pt x="283" y="303" on="1"/>
        <pt x="255" y="312" on="1"/>
        <pt x="247" y="314" on="0"/>
        <pt x="237" y="312" on="0"/>
      </contour>
    </TTGlyph>
    <TTGlyph name="ellipsis" xMin="55" yMin="0" xMax="629" yMax="123">
      <contour>
        <pt x="177" y="0" on="1"/>
        <pt x="55" y="0" on="1"/>
        <pt x="55" y="123" on="1"/>
        <pt x="157" y="123" on="1"/>
        <pt x="169" y="123" on="0"/>
        <pt x="177" y="114" on="0"/>
        <pt x="177" y="104" on="1"/>
      </contour>
      <contour>
        <pt x="403" y="0" on="1"/>
        <pt x="281" y="0" on="1"/>
        <pt x="281" y="123" on="1"/>
        <pt x="383" y="123" on="1"/>
        <pt x="395" y="123" on="0"/>
        <pt x="403" y="114" on="0"/>
        <pt x="403" y="104" on="1"/>
      </contour>
      <contour>
        <pt x="629" y="0" on="1"/>
        <pt x="507" y="0" on="1"/>
        <pt x="507" y="123" on="1"/>
        <pt x="609" y="123" on="1"/>
        <pt x="621" y="123" on="0"/>
        <pt x="629" y="114" on="0"/>
        <pt x="629" y="104" on="1"/>
      </contour>
    </TTGlyph>
    <TTGlyph name="emacron" xMin="32" yMin="-8" xMax="506" yMax="674">
      <component glyphName="e" x="0" y="0" flags="0x204"/>
      <component glyphName="macron" x="68" y="0" flags="0x4"/>
    </TTGlyph>
    <TTGlyph name="emdash" xMin="53" yMin="195" xMax="1053" yMax="294">
      <contour>
        <pt x="53" y="195" on="1"/>
        <pt x="53" y="294" on="1"/>
        <pt x="1053" y="294" on="1"/>
        <pt x="1053" y="195" on="1"/>
      </contour>
    </TTGlyph>
    <TTGlyph name="emdash.cap" xMin="53" yMin="282" xMax="1053" yMax="381">
      <component glyphName="emdash" x="0" y="87" flags="0x204"/>
    </TTGlyph>
    <TTGlyph name="endash" xMin="53" yMin="195" xMax="553" yMax="294">
      <contour>
        <pt x="53" y="195" on="1"/>
        <pt x="53" y="294" on="1"/>
        <pt x="553" y="294" on="1"/>
        <pt x="553" y="195" on="1"/>
      </contour>
    </TTGlyph>
    <TTGlyph name="endash.cap" xMin="53" yMin="282" xMax="553" yMax="381">
      <component glyphName="endash" x="0" y="87" flags="0x204"/>
    </TTGlyph>
    <TTGlyph name="eng" xMin="62" yMin="-213" xMax="505" yMax="498">
      <contour>
        <pt x="147" y="488" on="1"/>
        <pt x="163" y="447" on="1"/>
        <pt x="192" y="463" on="1"/>
        <pt x="223" y="480" on="0"/>
        <pt x="283" y="498" on="0"/>
        <pt x="309" y="498" on="1"/>
        <pt x="310" y="498" on="1"/>
        <pt x="357" y="498" on="0"/>
        <pt x="433" y="468" on="0"/>
        <pt x="458" y="442" on="1"/>
        <pt x="505" y="394" on="0"/>
        <pt x="505" y="314" on="1"/>
        <pt x="505" y="-39" on="1"/>
        <pt x="505" y="-82" on="0"/>
        <pt x="488" y="-149" on="0"/>
        <pt x="466" y="-172" on="1"/>
        <pt x="427" y="-213" on="0"/>
        <pt x="354" y="-213" on="1"/>
        <pt x="333" y="-213" on="0"/>
        <pt x="289" y="-205" on="0"/>
        <pt x="275" y="-200" on="1"/>
        <pt x="275" y="-138" on="1"/>
        <pt x="331" y="-127" on="1"/>
        <pt x="351" y="-123" on="0"/>
        <pt x="375" y="-112" on="0"/>
        <pt x="388" y="-96" on="0"/>
        <pt x="392" y="-74" on="0"/>
        <pt x="392" y="-59" on="1"/>
        <pt x="392" y="306" on="1"/>
        <pt x="392" y="353" on="0"/>
        <pt x="370" y="371" on="1"/>
        <pt x="358" y="382" on="0"/>
        <pt x="318" y="391" on="0"/>
        <pt x="293" y="391" on="1"/>
        <pt x="291" y="391" on="1"/>
        <pt x="262" y="391" on="0"/>
        <pt x="204" y="379" on="0"/>
        <pt x="185" y="370" on="1"/>
        <pt x="175" y="366" on="0"/>
        <pt x="175" y="353" on="1"/>
        <pt x="175" y="0" on="1"/>
        <pt x="62" y="0" on="1"/>
        <pt x="62" y="488" on="1"/>
      </contour>
    </TTGlyph>
</ttFont>
